<svg xmlns="http://www.w3.org/2000/svg" xmlns:xlink="http://www.w3.org/1999/xlink" width="252.13" height="95.81" viewBox="0 0 252.13 95.81"><defs><style>.\36 2ca6cb9-73d6-4846-9910-883379d857ce{isolation:isolate;}.dafbd42b-a9ea-4d66-bf9f-88671d79bffd{fill:#d1d3d4;}.b3232f91-0464-4449-8848-c46fecf69bd1{fill:#231f20;}.e3b8f98c-ac95-4648-a8b9-5f76ca2d8a5a{fill:url(#481a09be-2401-49af-828a-79228a9325b8);}.\37 3a63b50-4af3-4edb-a955-a7106b12d789{fill:#fff;}.\39 93b2f33-209f-4020-8e86-140faaa6f5eb{fill:#e68945;}.\39 93b2f33-209f-4020-8e86-140faaa6f5eb,.bb5d49cc-b11d-4283-8c43-d14e7837a147{mix-blend-mode:multiply;}.ce471633-66ef-4fe3-b307-b4aa9218e83d{fill:#00aeef;}.\30 0882558-a66a-4d60-a75c-63abacbc2fcf,.\34 f707482-c078-4f2d-8fba-bfa49c410d2a,.\38 fc59e5c-0e18-426b-acd7-09fedb0f358a,.bc9357b7-8bdf-4d00-8b22-e449340ef03d,.bcc16679-620e-4b57-8514-ed1d6ed4d6ef{fill:none;}.bcc16679-620e-4b57-8514-ed1d6ed4d6ef{stroke:#00aeef;stroke-width:0.02px;}.\34 f707482-c078-4f2d-8fba-bfa49c410d2a,.\38 fc59e5c-0e18-426b-acd7-09fedb0f358a,.bc9357b7-8bdf-4d00-8b22-e449340ef03d,.bcc16679-620e-4b57-8514-ed1d6ed4d6ef{stroke-miterlimit:10;}.\36 2a0183e-92e7-49df-818b-9a8b7da7ba51{fill:#bcbec0;}.\34 f707482-c078-4f2d-8fba-bfa49c410d2a{stroke:#ffed93;stroke-width:3.96px;}.bc9357b7-8bdf-4d00-8b22-e449340ef03d{stroke:#231f20;stroke-width:3.92px;}.a3337157-c7bf-4d45-8a99-4825e64d85cc{fill:#39b54a;}.\33 dd8b7b1-490e-49cd-9978-ff9742274414{fill:#ffca46;}.\35 dab4b93-883c-416b-95b8-1d7999d8512d{fill:#f7941d;}.\33 18156de-4678-47d4-8295-a16505d241de{fill:#ed1c24;}.\39 e4735d6-0407-4565-a305-0e5b7cff9ce9{fill:#662d91;}.\38 fc59e5c-0e18-426b-acd7-09fedb0f358a{stroke:#fff;stroke-width:1.13px;}</style><linearGradient id="481a09be-2401-49af-828a-79228a9325b8" x1="124.21" y1="23.81" x2="124.21" y2="88.78" gradientUnits="userSpaceOnUse"><stop offset="0" stop-color="#ffea00"/><stop offset="1" stop-color="#f4be18"/></linearGradient></defs><title>vf_logo_h</title><g class="62ca6cb9-73d6-4846-9910-883379d857ce"><g id="a7213c6a-ef2c-4fd2-936a-a3f1b86a18aa" data-name="Layer 1"><path class="dafbd42b-a9ea-4d66-bf9f-88671d79bffd" d="M249.21,29.67a15.63,15.63,0,0,0-5.89-1.12,12.47,12.47,0,0,0-4.5.76c-4,1.53-7,7.21-6.09,11.16l-.48.27a5.48,5.48,0,0,0-1.36,1.1,8.68,8.68,0,0,0-5.59-2A9.73,9.73,0,0,0,224,40l-.92.12a4.83,4.83,0,0,0-1.48-.74,4.82,4.82,0,0,0,1.09-6.72,5.78,5.78,0,0,1,1,.25,4.66,4.66,0,0,0,1.66.31,4.73,4.73,0,0,0,4.41-3.07,4.66,4.66,0,0,0-1.32-5.19,20.58,20.58,0,0,0-10-4.38,40.26,40.26,0,0,0-7.2-.6c-6.59,0-14.56,1.29-23.75,3.84l.26-2.11-5.67,1a14.76,14.76,0,0,0-9.84,6,123.79,123.79,0,0,1-14.36,4,4.8,4.8,0,0,0-4.35-6.78,4.81,4.81,0,0,0-2.31.6c-5.26,2.89-7.94,5.83-9.17,8.48a18.12,18.12,0,0,0-2.75-.22,8.35,8.35,0,0,0-4.37,1,11.28,11.28,0,0,0-4,3.82,11.94,11.94,0,0,0-2.18-1.6A9.31,9.31,0,0,0,124,36.6a9.06,9.06,0,0,0-4.4,1.25,17.71,17.71,0,0,0-3.44,2.54,24,24,0,0,0-2.76,3.06,20.25,20.25,0,0,0-2.57-2.77,5.7,5.7,0,0,0-3.47-1.43A12.05,12.05,0,0,0,100,35.16a5.11,5.11,0,0,0-6.06,5.4,22.17,22.17,0,0,1-.14,4.26c-.35-.18-.69-.32-1-.45l-.19-.08a13.32,13.32,0,0,0,.17-4.87,6.68,6.68,0,0,0-6.67-6.07A8.1,8.1,0,0,0,80,36.27a12.28,12.28,0,0,0-1.33-.89A9.34,9.34,0,0,0,74,34.09a9.09,9.09,0,0,0-4.4,1.25,17.92,17.92,0,0,0-3.44,2.54l-.55.53a9.77,9.77,0,0,0-4.19-1.83,22.87,22.87,0,0,0,.92-8,10.93,10.93,0,0,0-7.15-9,16.08,16.08,0,0,0-5.49-1.11H44.19A19.42,19.42,0,0,0,42,8.86c-1.7-3.23-4.24-5.71-6.47-6.32a11.5,11.5,0,0,0-3-.37c-6.35,0-17.31,4.39-24,11.47-4.21,4.49-6.26,9.59-5.93,14.73A17.47,17.47,0,0,0,13.51,43.95l5.33,1.87c-1,8.2-1.85,25.91,8.44,31.75l2.21,1.25,2.15-1.35a66.34,66.34,0,0,0,18-17.09l.08.16a12,12,0,0,0,6.2,5.59,5.32,5.32,0,0,0,6.49-1.93,14.87,14.87,0,0,0,2.07,1.23,9.88,9.88,0,0,0,4.39,1.09,12.05,12.05,0,0,0,5.35-1.35,24.93,24.93,0,0,0,4.44-2.85q1.16-.92,2.3-1.95a8.42,8.42,0,0,0,.43,1.81,6.8,6.8,0,0,0,3.68,4,7.58,7.58,0,0,0,3.1.66,9.51,9.51,0,0,0,5.28-1.77A8,8,0,0,0,99,67.28h.27l1.64-.05,1.18-1.14a13.55,13.55,0,0,0,1.7-2.13,14.13,14.13,0,0,0,2.87,1.82l.41.2.45.1a4.82,4.82,0,0,0,1.1.12,6.26,6.26,0,0,0,2.55-.57l.07.06A15.08,15.08,0,0,0,114.58,68,9.93,9.93,0,0,0,119,69a15.08,15.08,0,0,0,5.15-1l1.12-.42a15.42,15.42,0,0,0,9.44,3.31h.49a11.48,11.48,0,0,0,6.69-2c0,1.47.09,2.77.18,3.8a49.25,49.25,0,0,0,3.16,14c2.05,5.07,4.73,8.22,8,9.39l.16.06.16,0a13,13,0,0,0,3.44.47h0c10.46,0,18.95-12.69,23.88-35.73l.28-1.3.4.66a4.84,4.84,0,0,0,4.15,2.28,5.59,5.59,0,0,0,1.93-.35A8.38,8.38,0,0,0,188,64a6.79,6.79,0,0,0,3.67,4,7.5,7.5,0,0,0,2.53.64,2.3,2.3,0,0,0,1.56,1.61c1.85.4,3.95-1.92,5.42-.57,1.3,1.19.69,4.36,2.32,4.8,1.13.31,1.94-1.15,2.59-2.25s2.26-1.94,2.8-.76c.39.86-.31,2,.18,2.84s1.53.38,2.37.3a1.4,1.4,0,0,1,1.32,1.14.8.8,0,0,0,1.32.55,1.8,1.8,0,0,0,.34-.38c.48-.74,1-1.76,1.81-1.57.5.12.8.71,1.26,1,1.27.72,2.42-1.32,3.8-1.71,1.79-.5,2.62,2.05,2.47,4.16a29.67,29.67,0,0,1-.79,4,3.62,3.62,0,0,0,.7,2.64,1.73,1.73,0,0,0,1.12.76,1.66,1.66,0,0,0,1.75-1.36c.46-2.25-1.33-3.51-1.23-7,0-1,.13-2.2,1-2.4,1.22-.27,1.9,1.52,2.85,2.48a.8.8,0,0,0,1.36-.41L231,74a.8.8,0,0,1,1.07-.6,2.93,2.93,0,0,1,1.16.87.8.8,0,0,0,1.37-.29v0a.8.8,0,0,1,1.57,0,8.16,8.16,0,0,1,.12,2.14,5.11,5.11,0,0,0,.57,2.73.8.8,0,0,0,1.49-.35,24,24,0,0,0-.52-7.27.8.8,0,0,1,.68-1,3.16,3.16,0,0,0,2.37-2.72,6.4,6.4,0,0,0-.26-2.71h0c-.18-1.8-.18-7.27,4.24-17a5,5,0,0,0,.23-3.52,5,5,0,0,0,.72-1.45c.79-2.56,2.2-3.58,3.24-4a4.95,4.95,0,0,0,.14-9.16Zm-229.6,11-.63-2A17,17,0,0,1,19.45,29a27.87,27.87,0,0,1,5.37-8.58A139,139,0,0,0,19.61,40.71Zm25.23-5a55.87,55.87,0,0,1-9.1,17.64l-.57.72c.67-5.28,2.65-13.92,7.58-28a26.39,26.39,0,0,0,1.18-4.65L46,24.86C46.47,25.63,46.78,29.28,44.84,35.66ZM158.63,81.19a36.33,36.33,0,0,1-1.94-11.11c-.07-1.82-.06-3.51,0-5a5.17,5.17,0,0,0,.6,0A4.78,4.78,0,0,0,162,61.36a30.38,30.38,0,0,0,.75-5l.81,5.91.8-.5C161.83,72.65,159.89,78.28,158.63,81.19Zm4-28a8.15,8.15,0,0,0-1.64-4,6.35,6.35,0,0,0-1.91-1.62c2.09-.22,4.21-.53,6.23-.89A10.93,10.93,0,0,0,162.62,53.2Zm41.24-12-.36.2a9.94,9.94,0,0,0-3.69,5l-.45-.2-.2-.09a13.38,13.38,0,0,0,.17-4.9,7.37,7.37,0,0,0-1.87-4c2.5-.79,5.14-1.57,7.78-2.26A9.43,9.43,0,0,0,203.86,41.24Z" transform="translate(-0.54 -0.85)"/></g><g id="673ba6b5-ee50-403c-859c-ace12223ac36" data-name="Layer 3"><path class="b3232f91-0464-4449-8848-c46fecf69bd1" d="M141.32,45.35c1.85-5-.09-7.7-2.12-8.4-1.4-.49-4.44-.61-5.34-.07-5.52,3.31-2.69,8-.15,12.36l-.55.46c-1,.84-2.09,1.7-3.28,2.6-.81.61-1.66,1.22-2.53,1.82a15.13,15.13,0,0,1,1.38-3.74c-2.61.12-5,2.59-5.9,4a4.71,4.71,0,0,0-.67,3A30.21,30.21,0,0,1,118.6,59a9.07,9.07,0,0,1-3.23.67,1.06,1.06,0,0,1-1-.5,2.36,2.36,0,0,1-.29-1.34,9.35,9.35,0,0,1,.31-2,24.56,24.56,0,0,1,.77-2.42,6.63,6.63,0,0,0,1.36.36,10.81,10.81,0,0,0,1.7.12,6.13,6.13,0,0,0,3.21-1,14.66,14.66,0,0,0,2.87-2.27,13.64,13.64,0,0,0,2.13-2.78,6.5,6.5,0,0,0,.93-2.47,5.39,5.39,0,0,0-.46-2.25,8.9,8.9,0,0,0-1.39-2.32,7.74,7.74,0,0,0-2.13-1.79,5.11,5.11,0,0,0-2.58-.72,4.92,4.92,0,0,0-2.35.72,13.47,13.47,0,0,0-2.61,1.94A20.22,20.22,0,0,0,113.31,44,29.52,29.52,0,0,0,111,47.61a25,25,0,0,0-1.72,4.09,19.52,19.52,0,0,0-.67,2.69h0c-.61.72-1.25,1.08-1.89.85,0,0-1.87-3,.87-10.58a15.27,15.27,0,0,0-2.78-3.27,1.43,1.43,0,0,0-1.74-.14,5.9,5.9,0,0,0-2.2,3.28,22.21,22.21,0,0,0,.37-4.47s-1-2.34-5.33-3.18a.86.86,0,0,0-1,.91,32.77,32.77,0,0,1-3.09,15.44c-1.18,1-4.13,3.44-4.13,1.15,0-2.86,2.36-6.35,1.87-7.47s-4-1.25-5.23-3.86a7.71,7.71,0,0,0,1-5.48c-.5-3.48-4.48-3-6,0S77,43.89,79.56,47q-.75.84-1.57,1.73-1.44,1.56-3,3.09a31.17,31.17,0,0,1-3.26,2.73,19,19,0,0,1-3.28,1.94,7.5,7.5,0,0,1-3.11.74,1.07,1.07,0,0,1-1-.5A2.37,2.37,0,0,1,64,55.34a9.15,9.15,0,0,1,.31-2A24.33,24.33,0,0,1,65.11,51a6.81,6.81,0,0,0,1.36.36,10.46,10.46,0,0,0,1.7.12,6.12,6.12,0,0,0,3.21-1,14.49,14.49,0,0,0,2.87-2.27,13.61,13.61,0,0,0,2.13-2.78A6.52,6.52,0,0,0,77.32,43a5.37,5.37,0,0,0-.46-2.25,8.92,8.92,0,0,0-1.39-2.32,7.79,7.79,0,0,0-2.13-1.79,5.11,5.11,0,0,0-2.58-.72,4.92,4.92,0,0,0-2.35.72,13.58,13.58,0,0,0-2.61,1.94,20.53,20.53,0,0,0-2.56,2.92A29.74,29.74,0,0,0,61,45.1a24.91,24.91,0,0,0-1.72,4.1,19.6,19.6,0,0,0-.89,4.31,3.11,3.11,0,0,0,.6,2,9.83,9.83,0,0,0,1.79,2.08,10.61,10.61,0,0,0,2.42,1.63,5.68,5.68,0,0,0,2.51.65,7.85,7.85,0,0,0,3.47-.91,20.7,20.7,0,0,0,3.69-2.37,41.79,41.79,0,0,0,3.59-3.21q1.75-1.75,3.21-3.45.9-1,1.66-2l.8.38,2,.5S79.56,58,83.61,59.84c2.66,1.18,5.65-1.46,7.34-4,.43,1.29,1.89,4.83,4.94,4.73,0,0,3.35-3.26,4-10.11a8.82,8.82,0,0,0,0,1.13h0a9.26,9.26,0,0,0,5.34,7.88s1.22.29,3.4-2.2A5.41,5.41,0,0,0,109,58a9.83,9.83,0,0,0,1.79,2.08,10.7,10.7,0,0,0,2.42,1.63,5.71,5.71,0,0,0,2.51.65,11.07,11.07,0,0,0,3.71-.77A38.87,38.87,0,0,0,123.11,60c1.4,2.21,4.29,4,8.49,4.17,7.72.25,8.22-7.59,7.72-10.33a10.15,10.15,0,0,0-1.5-4.06A11.17,11.17,0,0,0,141.32,45.35Zm-22.84,1.33a25,25,0,0,1,1.6-2.44,11.47,11.47,0,0,1,1.48-1.68,2,2,0,0,1,1.22-.62q.72,0,.6,1a5.78,5.78,0,0,1-1,2.35,12.11,12.11,0,0,1-2.25,2.56,7.38,7.38,0,0,1-3.28,1.68Q117.66,48.07,118.48,46.68ZM68.42,44.17A25.63,25.63,0,0,1,70,41.73,11.63,11.63,0,0,1,71.5,40a2,2,0,0,1,1.22-.62q.72,0,.6,1a5.84,5.84,0,0,1-1,2.35,12.09,12.09,0,0,1-2.25,2.56A7.4,7.4,0,0,1,66.84,47Q67.6,45.55,68.42,44.17Zm14.93-1.74c-1.37-2-.87-5.35-.87-5.35A6.69,6.69,0,0,1,83.34,42.43Zm51.85,12.84a4.43,4.43,0,0,1-4.62,3.25,3.33,3.33,0,0,1-2.76-1l.71-.44a34.41,34.41,0,0,0,4.05-2.95c.89-.78,1.82-1.46,2.6-2.11A4.55,4.55,0,0,1,135.19,55.27Zm1.16-8.07s-3-6.6,1.53-9.16C137.89,38,140.77,42.43,136.35,47.2Z" transform="translate(-0.54 -0.85)"/><path class="b3232f91-0464-4449-8848-c46fecf69bd1" d="M27.94,8.78c-6.2,1.15-13.2,9.52-15.68,16.27a21.23,21.23,0,0,0-.55,12.44s-7.43-2.61-8-11.85C2.79,11.92,24.64,2.39,31.2,4.18c1.56.42,8.22,6.86,4.33,18-3.21,9.17-10.82,31.77-7.06,39.05a46.13,46.13,0,0,0,7.4-7.74C45,41.9,49.48,25.27,46.45,20.22c0,0,7.63,0,8.43,6.43s-8,31.72-28.71,44.78c-7.43-4.22-7.52-18.63-6.22-28.31A139.7,139.7,0,0,1,27.58,13.8C29.2,9.32,27.94,8.78,27.94,8.78Z" transform="translate(-0.54 -0.85)"/><path class="b3232f91-0464-4449-8848-c46fecf69bd1" d="M55.88,58.69c-.24-2.61,0-8.4,4.5-17.84a1.07,1.07,0,0,0-.28-1.28A5.2,5.2,0,0,0,53.92,39c-2.5,1.43-5.28,13.77-3.59,17.17a7.89,7.89,0,0,0,4.06,3.58A1.07,1.07,0,0,0,55.88,58.69Z" transform="translate(-0.54 -0.85)"/><path class="b3232f91-0464-4449-8848-c46fecf69bd1" d="M221.92,25c-8.13-3-30.39,4.35-39.62,8-1.3.51-2.86,1.06-4.59,1.62q-.53,3-1.23,6.66c1.43-.31,3-.59,4.87-.84l.5-3.8s1.59-.68,3.41,1.59a20.08,20.08,0,0,0-3.18,10.46l-1.82.23.68-4.32s-1-.88-5.24.64q-1,4.92-2.26,11c-4.77,22.28-13,34.56-22.05,32.06-8.19-3-13-33.88-2.5-39.79,7.69-4.35,6.78,3.6,5.75,8.11a.56.56,0,0,1-1.09,0c-.38-2.49-1.13-5.59-2.39-4.89-2,1.14-4.09,23.19,2.73,31.6,4.41,5.45,10.07-17.31,13.51-34q-1.72,1-3.73,2.21s-.68-5,3.18-6.82c.54-.25,1.08-.5,1.62-.74.53-2.72,1-5.11,1.3-7-11.61,2.94-25.33,4.77-27.24,0-1.79-4.49,3.6-8.39,7.5-10.53a.54.54,0,0,1,.64.86c-4.41,4.26-9.11,11.25,21.13,1.15a10.43,10.43,0,0,1,7.8-5.35s-.12,1-.41,2.87c17.79-5.69,28.67-6.22,35.27-5a16.27,16.27,0,0,1,8,3.4A.46.46,0,0,1,221.92,25Z" transform="translate(-0.54 -0.85)"/><path class="b3232f91-0464-4449-8848-c46fecf69bd1" d="M209.72,38.66A.57.57,0,0,1,209,39c-1.15-.27-3.82-1-4.21-2.4-.5-1.74,1.49-5.26,3.49-6a11.38,11.38,0,0,1,7.44.4.57.57,0,0,1-.05,1.06A9.56,9.56,0,0,0,209.72,38.66Z" transform="translate(-0.54 -0.85)"/><path class="b3232f91-0464-4449-8848-c46fecf69bd1" d="M238.57,37.7a.7.7,0,0,1-.84.47c-1.21-.31-3.7-1.11-4.07-2.48-.5-1.82,1.49-5.51,3.49-6.28a10.94,10.94,0,0,1,7.2.31.7.7,0,0,1,0,1.3C242.64,31.66,239.91,33.36,238.57,37.7Z" transform="translate(-0.54 -0.85)"/><path class="b3232f91-0464-4449-8848-c46fecf69bd1" d="M209.19,42.38a5.37,5.37,0,0,0-6.79-1.13c-1.77,1-3.69,7.53-4,12.44h0c-1.22,1.08-4.07,3.37-4.07,1.1,0-2.87,2.36-6.37,1.87-7.5s-4-1.25-5.23-3.87a7.77,7.77,0,0,0,1-5.5c-.5-3.5-4.48-3-6,0s-2.3,6.24.08,9.27a27.33,27.33,0,0,1-4.12,7s1.17,2,6.48-5.69l.3.14,2,.5s-4.53,9.3-.48,11.11c3.14,1.4,6.72-2.53,8.11-5.34a8.08,8.08,0,0,0,.52,3.48c1.17,2.34,3.73,3.43,5.21,3.87a.65.65,0,0,0,.82-.75C204.38,59.27,204,53.11,209.19,42.38Zm-19.27.42a5.94,5.94,0,0,1-.87-5.37C191,38.69,189.92,42.81,189.92,42.81Z" transform="translate(-0.54 -0.85)"/><path class="b3232f91-0464-4449-8848-c46fecf69bd1" d="M237.81,42.16c-5,10.84-4.88,17.14-4.56,19.56a.74.74,0,0,1-1,.78A8.93,8.93,0,0,1,228.57,60c-1.14,2-3,3.81-5.88,3-5.44-1.58-8.16-9.75-8.16-9.75a23.53,23.53,0,0,0,.1,9,1,1,0,0,1-.94,1.21c-4.34.11-6-1.88-6.69-3.13a2.85,2.85,0,0,1-.29-1.61c1.39-12.58,5.1-18.08,5.1-18.08a6.66,6.66,0,0,1,5.28-1,.61.61,0,0,1,.4.85,21,21,0,0,0-2,7.15,31.61,31.61,0,0,0,3.18-3.21,22.7,22.7,0,0,0,2.7-4c4-.55,5.44,3.42,5.44,3.42-5,5.61-8.43,7.12-8.43,7.12,3.37,4.9,6.66,6,8.88,6.09-.63-4.83,1.8-15.09,4-16.41a5.08,5.08,0,0,1,6.43.8A.73.73,0,0,1,237.81,42.16Z" transform="translate(-0.54 -0.85)"/><path class="b3232f91-0464-4449-8848-c46fecf69bd1" d="M132.6,69.57a15.44,15.44,0,0,1-9.44-3.3l-1.12.42a15.13,15.13,0,0,1-5.16,1,9.93,9.93,0,0,1-4.38-1.08,15,15,0,0,1-3.37-2.27l-.07-.06a6.25,6.25,0,0,1-2.55.57,4.84,4.84,0,0,1-1.1-.12l-.45-.11-.41-.2a14.17,14.17,0,0,1-2.87-1.82,13.33,13.33,0,0,1-1.7,2.12L98.81,65.9,97.17,66H96.9a8,8,0,0,1-5.52-2.23,9.26,9.26,0,0,1-5.26,1.78,7.58,7.58,0,0,1-3.1-.66,6.8,6.8,0,0,1-3.68-4,8.37,8.37,0,0,1-.43-1.81q-1.13,1-2.29,1.95a25,25,0,0,1-4.45,2.85,12,12,0,0,1-5.35,1.35,9.9,9.9,0,0,1-4.39-1.09,14.92,14.92,0,0,1-3.37-2.27,14.13,14.13,0,0,1-2.56-3,7.23,7.23,0,0,1-1.23-4.64A24,24,0,0,1,56.34,49a29.29,29.29,0,0,1,2-4.78A34.16,34.16,0,0,1,61,40.08a24.89,24.89,0,0,1,3.1-3.52A17.9,17.9,0,0,1,67.49,34a9.07,9.07,0,0,1,4.4-1.25,9.32,9.32,0,0,1,4.71,1.29,12.28,12.28,0,0,1,1.33.89A8.1,8.1,0,0,1,84,32a6.68,6.68,0,0,1,6.67,6.07A13.3,13.3,0,0,1,90.5,43l.19.08c.3.13.64.27,1,.45a21.91,21.91,0,0,0,.14-4.26,5.11,5.11,0,0,1,6.06-5.4,12.06,12.06,0,0,1,7.44,4.08,5.71,5.71,0,0,1,3.47,1.44,20.15,20.15,0,0,1,2.57,2.77,24,24,0,0,1,2.75-3.06,17.74,17.74,0,0,1,3.44-2.54,9.09,9.09,0,0,1,4.4-1.25,9.32,9.32,0,0,1,4.7,1.29,12.16,12.16,0,0,1,2.14,1.57,11.36,11.36,0,0,1,4-3.78,8.32,8.32,0,0,1,4.37-1,15.32,15.32,0,0,1,4.55.66,8.31,8.31,0,0,1,4.78,4.39c.88,1.87,1.58,5-.09,9.5A14.89,14.89,0,0,1,144,51.91a18.08,18.08,0,0,1,.58,2.33c.45,2.49.38,7.72-2.75,11.48a11,11,0,0,1-8.78,3.87Z" transform="translate(-0.54 -0.85)"/><path class="b3232f91-0464-4449-8848-c46fecf69bd1" d="M25.21,76.25c-10.3-5.85-9.45-23.57-8.44-31.77l-5.33-1.85A17.48,17.48,0,0,1,.58,27.05C.24,21.91,2.29,16.82,6.5,12.33,13.14,5.24,24.11.85,30.46.85a11.42,11.42,0,0,1,3,.37c2.23.61,4.77,3.09,6.47,6.32a19.45,19.45,0,0,1,2.19,9.59l5.47,0c3.94,0,11.64,2.12,12.65,10.14s-8.52,35-30.67,48.9L27.42,77.5ZM41.86,20a26.33,26.33,0,0,1-1.19,4.71c-4.93,14.09-6.91,22.73-7.58,28l.58-.72C43,40,45.27,25.8,43.94,23.54Zm-19.11-.92a27.85,27.85,0,0,0-5.37,8.58,17.19,17.19,0,0,0-.47,9.74l.61,2.07A138.69,138.69,0,0,1,22.75,19.07Z" transform="translate(-0.54 -0.85)"/><path class="b3232f91-0464-4449-8848-c46fecf69bd1" d="M55.95,65.24a5.29,5.29,0,0,1-2.08-.43,12,12,0,0,1-6.2-5.59c-2.44-4.89.46-20,5.28-22.75a9.4,9.4,0,0,1,11,1,5.31,5.31,0,0,1,1.41,6.37c-4.19,8.85-4.27,13.88-4.1,15.63a5.32,5.32,0,0,1-5.29,5.81Z" transform="translate(-0.54 -0.85)"/><path class="b3232f91-0464-4449-8848-c46fecf69bd1" d="M154.84,93.93a13,13,0,0,1-3.44-.47l-.16,0-.16-.06C144.11,90.84,140.73,79.2,140,70c-.47-5.63-.65-19.26,8-24.13q.79-.45,1.53-.78c-3.27-.24-8-1.27-9.75-5.54-1.31-3.27-1.82-9.67,9.4-15.83a4.78,4.78,0,0,1,6.75,2.41,4.75,4.75,0,0,1-.08,3.78,124.54,124.54,0,0,0,14.36-4,14.75,14.75,0,0,1,9.84-6l5.67-1L185.37,21c9.2-2.55,17.16-3.84,23.75-3.84a40.33,40.33,0,0,1,7.21.6,20.57,20.57,0,0,1,10,4.38,4.66,4.66,0,0,1,1.32,5.19,4.7,4.7,0,0,1-6.07,2.77,10.46,10.46,0,0,0-3.52-.44c-7.64,0-20.26,3.77-28.57,6.71l.24.29,2,2.48-1.83,2.61a16,16,0,0,0-2.42,8v3.75l-8,1q-.38,1.82-.77,3.65c-4.94,23-13.42,35.73-23.88,35.73Zm-.21-31.6c-.23,5.06.13,11.61,1.91,16.16,1.26-2.89,3.2-8.53,5.73-19.42l-.8.5-.81-5.91a30.54,30.54,0,0,1-.75,5,4.78,4.78,0,0,1-4.68,3.74A4.94,4.94,0,0,1,154.63,62.32Zm-4.81-6.87ZM157,44.89a6.43,6.43,0,0,1,1.91,1.62,8.18,8.18,0,0,1,1.64,4A10.93,10.93,0,0,1,163.23,44C161.21,44.36,159.09,44.68,157,44.89Z" transform="translate(-0.54 -0.85)"/><path class="b3232f91-0464-4449-8848-c46fecf69bd1" d="M210.31,44.44a4.83,4.83,0,0,1-1.1-.13c-4.11-1-6.57-2.78-7.31-5.36-1.12-3.91,2-9.63,6.1-11.14a12.8,12.8,0,0,1,4.44-.72,15.65,15.65,0,0,1,6.22,1.23,4.82,4.82,0,0,1-.43,8.95,5.38,5.38,0,0,0-3.32,3.82A4.8,4.8,0,0,1,210.31,44.44Z" transform="translate(-0.54 -0.85)"/><path class="b3232f91-0464-4449-8848-c46fecf69bd1" d="M239,43.57a5,5,0,0,1-1.23-.16c-4-1-6.4-2.87-7.11-5.48-1.08-4,2-9.8,6-11.36a12.46,12.46,0,0,1,4.5-.76,15.61,15.61,0,0,1,5.89,1.12A4.95,4.95,0,0,1,247,36.1c-1,.4-2.44,1.42-3.24,4A4.92,4.92,0,0,1,239,43.57Z" transform="translate(-0.54 -0.85)"/><path class="b3232f91-0464-4449-8848-c46fecf69bd1" d="M205.35,67.7a4.9,4.9,0,0,1-1.42-.21,13.82,13.82,0,0,1-5.86-3.39A9.32,9.32,0,0,1,192.69,66a7.57,7.57,0,0,1-3.11-.66,6.8,6.8,0,0,1-3.67-4,8.43,8.43,0,0,1-.43-1.82,5.58,5.58,0,0,1-1.93.35,4.84,4.84,0,0,1-4.16-2.28L177.88,55l1.83-2.3a25,25,0,0,0,2.67-4.1c-1.53-3.33-1.23-7.17.9-11.45a8.37,8.37,0,0,1,7.3-4.79,6.68,6.68,0,0,1,6.67,6.09,13.36,13.36,0,0,1-.17,4.9l.65.28c.9-2.16,2.1-4,3.7-4.95a9.67,9.67,0,0,1,4.84-1.34,10.05,10.05,0,0,1,7.32,3.44l1.76,2.11-1.2,2.47c-4.82,9.9-4.28,15.1-4,16.46a4.89,4.89,0,0,1-4.79,5.87Z" transform="translate(-0.54 -0.85)"/><path class="b3232f91-0464-4449-8848-c46fecf69bd1" d="M214.47,68.77c-6.61,0-9.28-3.81-10.12-5.45a7.09,7.09,0,0,1-.73-4c1.46-13.23,5.36-19.33,5.8-20l.49-.73.74-.47a11.44,11.44,0,0,1,6.14-1.87,10.09,10.09,0,0,1,2.48.3,4.8,4.8,0,0,1,1.7.8l.92-.13a9.81,9.81,0,0,1,1.33-.09,8.68,8.68,0,0,1,5.63,2A5.72,5.72,0,0,1,230.17,38a9.48,9.48,0,0,1,4.92-1.42,9.68,9.68,0,0,1,6.65,2.81,5,5,0,0,1,1.07,5.65c-4.68,10.25-4.41,15.78-4.21,17.23a5,5,0,0,1-6.7,5.32,14.39,14.39,0,0,1-1.67-.75,8.51,8.51,0,0,1-5,1.68h0a9.12,9.12,0,0,1-2.55-.37,11.89,11.89,0,0,1-3.5-1.7l-.19.26a5.21,5.21,0,0,1-4,2Z" transform="translate(-0.54 -0.85)"/><path class="e3b8f98c-ac95-4648-a8b9-5f76ca2d8a5a" d="M141.32,45.35c1.85-5-.09-7.7-2.12-8.4-1.4-.49-4.44-.61-5.34-.07-5.52,3.31-2.69,8-.15,12.36l-.55.46c-1,.84-2.09,1.7-3.28,2.6-.81.61-1.66,1.22-2.53,1.82a15.13,15.13,0,0,1,1.38-3.74c-2.61.12-5,2.59-5.9,4a4.71,4.71,0,0,0-.67,3A30.21,30.21,0,0,1,118.6,59a9.07,9.07,0,0,1-3.23.67,1.06,1.06,0,0,1-1-.5,2.36,2.36,0,0,1-.29-1.34,9.35,9.35,0,0,1,.31-2,24.56,24.56,0,0,1,.77-2.42,6.63,6.63,0,0,0,1.36.36,10.81,10.81,0,0,0,1.7.12,6.13,6.13,0,0,0,3.21-1,14.66,14.66,0,0,0,2.87-2.27,13.64,13.64,0,0,0,2.13-2.78,6.5,6.5,0,0,0,.93-2.47,5.39,5.39,0,0,0-.46-2.25,8.9,8.9,0,0,0-1.39-2.32,7.74,7.74,0,0,0-2.13-1.79,5.11,5.11,0,0,0-2.58-.72,4.92,4.92,0,0,0-2.35.72,13.47,13.47,0,0,0-2.61,1.94A20.22,20.22,0,0,0,113.31,44,29.52,29.52,0,0,0,111,47.61a25,25,0,0,0-1.72,4.09,19.52,19.52,0,0,0-.67,2.69h0c-.61.72-1.25,1.08-1.89.85,0,0-1.87-3,.87-10.58a15.27,15.27,0,0,0-2.78-3.27,1.43,1.43,0,0,0-1.74-.14,5.9,5.9,0,0,0-2.2,3.28,22.21,22.21,0,0,0,.37-4.47s-1-2.34-5.33-3.18a.86.86,0,0,0-1,.91,32.77,32.77,0,0,1-3.09,15.44c-1.18,1-4.13,3.44-4.13,1.15,0-2.86,2.36-6.35,1.87-7.47s-4-1.25-5.23-3.86a7.71,7.71,0,0,0,1-5.48c-.5-3.48-4.48-3-6,0S77,43.89,79.56,47q-.75.84-1.57,1.73-1.44,1.56-3,3.09a31.17,31.17,0,0,1-3.26,2.73,19,19,0,0,1-3.28,1.94,7.5,7.5,0,0,1-3.11.74,1.07,1.07,0,0,1-1-.5A2.37,2.37,0,0,1,64,55.34a9.15,9.15,0,0,1,.31-2A24.33,24.33,0,0,1,65.11,51a6.81,6.81,0,0,0,1.36.36,10.46,10.46,0,0,0,1.7.12,6.12,6.12,0,0,0,3.21-1,14.49,14.49,0,0,0,2.87-2.27,13.61,13.61,0,0,0,2.13-2.78A6.52,6.52,0,0,0,77.32,43a5.37,5.37,0,0,0-.46-2.25,8.92,8.92,0,0,0-1.39-2.32,7.79,7.79,0,0,0-2.13-1.79,5.11,5.11,0,0,0-2.58-.72,4.92,4.92,0,0,0-2.35.72,13.58,13.58,0,0,0-2.61,1.94,20.53,20.53,0,0,0-2.56,2.92A29.74,29.74,0,0,0,61,45.1a24.91,24.91,0,0,0-1.72,4.1,19.6,19.6,0,0,0-.89,4.31,3.11,3.11,0,0,0,.6,2,9.83,9.83,0,0,0,1.79,2.08,10.61,10.61,0,0,0,2.42,1.63,5.68,5.68,0,0,0,2.51.65,7.85,7.85,0,0,0,3.47-.91,20.7,20.7,0,0,0,3.69-2.37,41.79,41.79,0,0,0,3.59-3.21q1.75-1.75,3.21-3.45.9-1,1.66-2l.8.38,2,.5S79.56,58,83.61,59.84c2.66,1.18,5.65-1.46,7.34-4,.43,1.29,1.89,4.83,4.94,4.73,0,0,3.35-3.26,4-10.11a8.82,8.82,0,0,0,0,1.13h0a9.26,9.26,0,0,0,5.34,7.88s1.22.29,3.4-2.2A5.41,5.41,0,0,0,109,58a9.83,9.83,0,0,0,1.79,2.08,10.7,10.7,0,0,0,2.42,1.63,5.71,5.71,0,0,0,2.51.65,11.07,11.07,0,0,0,3.71-.77A38.87,38.87,0,0,0,123.11,60c1.4,2.21,4.29,4,8.49,4.17,7.72.25,8.22-7.59,7.72-10.33a10.15,10.15,0,0,0-1.5-4.06A11.17,11.17,0,0,0,141.32,45.35Zm-22.84,1.33a25,25,0,0,1,1.6-2.44,11.47,11.47,0,0,1,1.48-1.68,2,2,0,0,1,1.22-.62q.72,0,.6,1a5.78,5.78,0,0,1-1,2.35,12.11,12.11,0,0,1-2.25,2.56,7.38,7.38,0,0,1-3.28,1.68Q117.66,48.07,118.48,46.68ZM68.42,44.17A25.63,25.63,0,0,1,70,41.73,11.63,11.63,0,0,1,71.5,40a2,2,0,0,1,1.22-.62q.72,0,.6,1a5.84,5.84,0,0,1-1,2.35,12.09,12.09,0,0,1-2.25,2.56A7.4,7.4,0,0,1,66.84,47Q67.6,45.55,68.42,44.17Zm14.93-1.74c-1.37-2-.87-5.35-.87-5.35A6.69,6.69,0,0,1,83.34,42.43Zm51.85,12.84a4.43,4.43,0,0,1-4.62,3.25,3.33,3.33,0,0,1-2.76-1l.71-.44a34.41,34.41,0,0,0,4.05-2.95c.89-.78,1.82-1.46,2.6-2.11A4.55,4.55,0,0,1,135.19,55.27Zm1.16-8.07s-3-6.6,1.53-9.16C137.89,38,140.77,42.43,136.35,47.2Z" transform="translate(-0.54 -0.85)"/><path class="e3b8f98c-ac95-4648-a8b9-5f76ca2d8a5a" d="M27.94,8.78c-6.2,1.15-13.2,9.52-15.68,16.27a21.23,21.23,0,0,0-.55,12.44s-7.43-2.61-8-11.85C2.79,11.92,24.64,2.39,31.2,4.18c1.56.42,8.22,6.86,4.33,18-3.21,9.17-10.82,31.77-7.06,39.05a46.13,46.13,0,0,0,7.4-7.74C45,41.9,49.48,25.27,46.45,20.22c0,0,7.63,0,8.43,6.43s-8,31.72-28.71,44.78c-7.43-4.22-7.52-18.63-6.22-28.31A139.7,139.7,0,0,1,27.58,13.8C29.2,9.32,27.94,8.78,27.94,8.78Z" transform="translate(-0.54 -0.85)"/><path class="e3b8f98c-ac95-4648-a8b9-5f76ca2d8a5a" d="M55.88,58.69c-.24-2.61,0-8.4,4.5-17.84a1.07,1.07,0,0,0-.28-1.28A5.2,5.2,0,0,0,53.92,39c-2.5,1.43-5.28,13.77-3.59,17.17a7.89,7.89,0,0,0,4.06,3.58A1.07,1.07,0,0,0,55.88,58.69Z" transform="translate(-0.54 -0.85)"/><path class="e3b8f98c-ac95-4648-a8b9-5f76ca2d8a5a" d="M221.92,25c-8.13-3-30.39,4.35-39.62,8-1.3.51-2.86,1.06-4.59,1.62q-.53,3-1.23,6.66c1.43-.31,3-.59,4.87-.84l.5-3.8s1.59-.68,3.41,1.59a20.08,20.08,0,0,0-3.18,10.46l-1.82.23.68-4.32s-1-.88-5.24.64q-1,4.92-2.26,11c-4.77,22.28-13,34.56-22.05,32.06-8.19-3-13-33.88-2.5-39.79,7.69-4.35,6.78,3.6,5.75,8.11a.56.56,0,0,1-1.09,0c-.38-2.49-1.13-5.59-2.39-4.89-2,1.14-4.09,23.19,2.73,31.6,4.41,5.45,10.07-17.31,13.51-34q-1.72,1-3.73,2.21s-.68-5,3.18-6.82c.54-.25,1.08-.5,1.62-.74.53-2.72,1-5.11,1.3-7-11.61,2.94-25.33,4.77-27.24,0-1.79-4.49,3.6-8.39,7.5-10.53a.54.54,0,0,1,.64.86c-4.41,4.26-9.11,11.25,21.13,1.15a10.43,10.43,0,0,1,7.8-5.35s-.12,1-.41,2.87c17.79-5.69,28.67-6.22,35.27-5a16.27,16.27,0,0,1,8,3.4A.46.46,0,0,1,221.92,25Z" transform="translate(-0.54 -0.85)"/><path class="e3b8f98c-ac95-4648-a8b9-5f76ca2d8a5a" d="M209.72,38.66A.57.57,0,0,1,209,39c-1.15-.27-3.82-1-4.21-2.4-.5-1.74,1.49-5.26,3.49-6a11.38,11.38,0,0,1,7.44.4.57.57,0,0,1-.05,1.06A9.56,9.56,0,0,0,209.72,38.66Z" transform="translate(-0.54 -0.85)"/><path class="e3b8f98c-ac95-4648-a8b9-5f76ca2d8a5a" d="M238.57,37.7a.7.7,0,0,1-.84.47c-1.21-.31-3.7-1.11-4.07-2.48-.5-1.82,1.49-5.51,3.49-6.28a10.94,10.94,0,0,1,7.2.31.7.7,0,0,1,0,1.3C242.64,31.66,239.91,33.36,238.57,37.7Z" transform="translate(-0.54 -0.85)"/><path class="e3b8f98c-ac95-4648-a8b9-5f76ca2d8a5a" d="M209.19,42.38a5.37,5.37,0,0,0-6.79-1.13c-1.77,1-3.69,7.53-4,12.44h0c-1.22,1.08-4.07,3.37-4.07,1.1,0-2.87,2.36-6.37,1.87-7.5s-4-1.25-5.23-3.87a7.77,7.77,0,0,0,1-5.5c-.5-3.5-4.48-3-6,0s-2.3,6.24.08,9.27a27.33,27.33,0,0,1-4.12,7s1.17,2,6.48-5.69l.3.14,2,.5s-4.53,9.3-.48,11.11c3.14,1.4,6.72-2.53,8.11-5.34a8.08,8.08,0,0,0,.52,3.48c1.17,2.34,3.73,3.43,5.21,3.87a.65.65,0,0,0,.82-.75C204.38,59.27,204,53.11,209.19,42.38Zm-19.27.42a5.94,5.94,0,0,1-.87-5.37C191,38.69,189.92,42.81,189.92,42.81Z" transform="translate(-0.54 -0.85)"/><path class="e3b8f98c-ac95-4648-a8b9-5f76ca2d8a5a" d="M237.81,42.16c-5,10.84-4.88,17.14-4.56,19.56a.74.74,0,0,1-1,.78A8.93,8.93,0,0,1,228.57,60c-1.14,2-3,3.81-5.88,3-5.44-1.58-8.16-9.75-8.16-9.75a23.53,23.53,0,0,0,.1,9,1,1,0,0,1-.94,1.21c-4.34.11-6-1.88-6.69-3.13a2.85,2.85,0,0,1-.29-1.61c1.39-12.58,5.1-18.08,5.1-18.08a6.66,6.66,0,0,1,5.28-1,.61.61,0,0,1,.4.85,21,21,0,0,0-2,7.15,31.61,31.61,0,0,0,3.18-3.21,22.7,22.7,0,0,0,2.7-4c4-.55,5.44,3.42,5.44,3.42-5,5.61-8.43,7.12-8.43,7.12,3.37,4.9,6.66,6,8.88,6.09-.63-4.83,1.8-15.09,4-16.41a5.08,5.08,0,0,1,6.43.8A.73.73,0,0,1,237.81,42.16Z" transform="translate(-0.54 -0.85)"/><path class="73a63b50-4af3-4edb-a955-a7106b12d789" d="M32.78,24.57c-.18.78-.37,1.57-.58,2.36s-.5,1.53-.75,2.3l-1.57,4.54c-1,3-2,6.05-2.75,9.13a58.27,58.27,0,0,0-1.59,9.33,46.51,46.51,0,0,0,.2,9.53,28.15,28.15,0,0,1-1.52-9.59,41.24,41.24,0,0,1,1.27-9.68,59.53,59.53,0,0,1,3.16-9.19c.64-1.48,1.33-2.94,2-4.39l1.08-2.15Q32.25,25.67,32.78,24.57Z" transform="translate(-0.54 -0.85)"/><path class="73a63b50-4af3-4edb-a955-a7106b12d789" d="M49.73,22.95a2.62,2.62,0,0,1,2.72.66,4.78,4.78,0,0,1,1.18,2.71,14.91,14.91,0,0,1-.47,5.59,29.41,29.41,0,0,1-1.84,5.16,30.09,30.09,0,0,1-2.66,4.75c.36-1.8,1-3.49,1.42-5.22.23-.86.55-1.69.75-2.55s.53-1.69.69-2.55l.32-1.27c.1-.42.14-.85.23-1.27l.13-.64.06-.63a8.75,8.75,0,0,0,.07-1.25v-.62c0-.2-.08-.39-.1-.59a1.69,1.69,0,0,0-.15-.57,2.05,2.05,0,0,0-.25-.53A2.53,2.53,0,0,0,49.73,22.95Z" transform="translate(-0.54 -0.85)"/><path class="993b2f33-209f-4020-8e86-140faaa6f5eb" d="M11.72,39.93S-3.81,17.79,27.94,8.78C27.94,8.78,12.53,14.86,11.72,39.93Z" transform="translate(-0.54 -0.85)"/><path class="993b2f33-209f-4020-8e86-140faaa6f5eb" d="M46.45,20.22a5.69,5.69,0,0,1,5.7,4.88c1.08,5.12.33,20.95-26,46.32A54.15,54.15,0,0,0,47.61,52.71c2.56-3.87,2.49-7,4-12.24C52,39,54.69,36.16,55,34.89,58.91,16.14,46.45,20.22,46.45,20.22Z" transform="translate(-0.54 -0.85)"/><path class="993b2f33-209f-4020-8e86-140faaa6f5eb" d="M53.92,39,57,40.2S52.6,47.27,54.4,59.77l1.49-1.08,6-19.84-3.5-1.62Z" transform="translate(-0.54 -0.85)"/><path class="993b2f33-209f-4020-8e86-140faaa6f5eb" d="M72.72,39.43l-2.38-1a20.79,20.79,0,0,0-6.06,8.81,22.39,22.39,0,0,0-1.82,8.36c0,.93,1.86,1.12,1.86,1.12L65.11,51s-.84-1.89-.6-2.49S66.84,47,66.84,47Z" transform="translate(-0.54 -0.85)"/><path class="993b2f33-209f-4020-8e86-140faaa6f5eb" d="M89.57,46.91l-2.91-.51s-3.5,7.55-1.08,10.24l3-1.31,2.9-4.62Z" transform="translate(-0.54 -0.85)"/><path class="993b2f33-209f-4020-8e86-140faaa6f5eb" d="M107.62,44.67l-2.89-1.36s-2.87,8.61,1,12.71a2.73,2.73,0,0,0,3-1.62c1.15-2.07-.36-7.27-.36-7.27Z" transform="translate(-0.54 -0.85)"/><path class="993b2f33-209f-4020-8e86-140faaa6f5eb" d="M99.92,51.6l.12-3.34s-2.54,8.59-5,10.5l.87,1.82,2.55-1.28Z" transform="translate(-0.54 -0.85)"/><path class="993b2f33-209f-4020-8e86-140faaa6f5eb" d="M127.38,45.48S123,54,114.19,52c0,0-3.44,3.91-2.19,6.78s6.6.21,6.6.21l.58-2.6,7.78-7Z" transform="translate(-0.54 -0.85)"/><path class="993b2f33-209f-4020-8e86-140faaa6f5eb" d="M137.89,38h0s6.08,6-1.53,9.16l.57-3.93Z" transform="translate(-0.54 -0.85)"/><path class="993b2f33-209f-4020-8e86-140faaa6f5eb" d="M135.17,52s2.34,5.83-.45,7.82-8.77-1.4-8.77-1.4l4.39-2Z" transform="translate(-0.54 -0.85)"/><path class="993b2f33-209f-4020-8e86-140faaa6f5eb" d="M154.23,89.09s15.09-7.55,19.14-42.86l2.33-1,.36,5.6-1.62,11.05-3.23,12.94s-3.77,5.66-4.31,6.74-4.58,7.28-5.39,7.55S154.23,89.09,154.23,89.09Z" transform="translate(-0.54 -0.85)"/><path class="993b2f33-209f-4020-8e86-140faaa6f5eb" d="M177.71,34.6l-2.18-2.11S213.32,17.3,221.92,25l-8.66,1.26L192,30.06Z" transform="translate(-0.54 -0.85)"/><path class="993b2f33-209f-4020-8e86-140faaa6f5eb" d="M169.76,36.87l-3.4-1.69s-18.3,7.1-23.84,1.66l-.69,4,12.4,1.89s8.63-.81,10.24-1.35S169.76,36.87,169.76,36.87Z" transform="translate(-0.54 -0.85)"/><path class="993b2f33-209f-4020-8e86-140faaa6f5eb" d="M189.92,42.81a9.67,9.67,0,0,0,3.66,4.78s-3,8.09-1.35,10.24,6.12-4.13,6.12-4.13l-1.53-3.15-.27-5.12-2.43-2.16Z" transform="translate(-0.54 -0.85)"/><path class="993b2f33-209f-4020-8e86-140faaa6f5eb" d="M209.19,42.38l-3.21.89s-4.18,10.29-2,19L205.45,64l.79-1.68-.47-3.27,1.56-8.42Z" transform="translate(-0.54 -0.85)"/><path class="993b2f33-209f-4020-8e86-140faaa6f5eb" d="M238,42l-3.21.89s-4.18,10.29-2,19l1.42,1.73L235,62l-.47-3.27,1.56-8.42Z" transform="translate(-0.54 -0.85)"/><path class="993b2f33-209f-4020-8e86-140faaa6f5eb" d="M210.13,39.74l-2.49-.94a10.42,10.42,0,0,1,1.71-4.37,11.3,11.3,0,0,1,3.2-2.66,8.83,8.83,0,0,0,2.11.23,8.58,8.58,0,0,0,1.41-.31l-2.19,4Z" transform="translate(-0.54 -0.85)"/><path class="993b2f33-209f-4020-8e86-140faaa6f5eb" d="M239.13,38.58l-2.49-.94a10.42,10.42,0,0,1,1.71-4.37,11.3,11.3,0,0,1,3.2-2.66,8.83,8.83,0,0,0,2.11.23,8.58,8.58,0,0,0,1.41-.31l-2.19,4Z" transform="translate(-0.54 -0.85)"/><polygon class="993b2f33-209f-4020-8e86-140faaa6f5eb" points="216.95 39.53 214.27 40.3 212.51 47.89 214.91 46.69 216.99 42.24 216.95 39.53"/><polygon class="993b2f33-209f-4020-8e86-140faaa6f5eb" points="213.99 52.36 211.54 53.14 211.54 61.32 214.09 61.33 214.46 58.98 213.99 52.36"/></g><g id="fbb3a3c4-7ce0-423c-ba6b-afad143f8c22" data-name="Blue hilights"><path class="73a63b50-4af3-4edb-a955-a7106b12d789" d="M8,31.53a9.57,9.57,0,0,1-1.25-6.22,13.16,13.16,0,0,1,.75-3.18,9.69,9.69,0,0,1,.66-1.49,10.7,10.7,0,0,1,.79-1.42,18.44,18.44,0,0,1,4.34-4.64,30.4,30.4,0,0,1,2.64-1.67,25.51,25.51,0,0,1,2.89-1.17l.09.14-2.44,1.74c-.77.64-1.53,1.28-2.28,1.94a23.93,23.93,0,0,0-3.81,4.57A16.48,16.48,0,0,0,8,25.58a12.21,12.21,0,0,0,.1,5.89Z" transform="translate(-0.54 -0.85)"/><path class="73a63b50-4af3-4edb-a955-a7106b12d789" d="M67.13,49.7a20.81,20.81,0,0,0,2.34-1.24A14.29,14.29,0,0,0,71.38,47a14.09,14.09,0,0,0,1.67-1.74,20.35,20.35,0,0,0,1.5-2.18h.11a7.76,7.76,0,0,1-7.53,6.71Z" transform="translate(-0.54 -0.85)"/><path class="73a63b50-4af3-4edb-a955-a7106b12d789" d="M96.59,38.86a4.11,4.11,0,0,1,2.31,1.61A5.83,5.83,0,0,1,99.67,46a4.13,4.13,0,0,1-1.78,2.18l-.09-.07a7.07,7.07,0,0,0-1.27-9.16Z" transform="translate(-0.54 -0.85)"/><path class="73a63b50-4af3-4edb-a955-a7106b12d789" d="M115.4,49.77a5,5,0,0,1-.32-2.58,6.91,6.91,0,0,1,2.44-4.48,5,5,0,0,1,2.33-1.14l.07.09a11.52,11.52,0,0,0-4.4,8.11Z" transform="translate(-0.54 -0.85)"/><path class="73a63b50-4af3-4edb-a955-a7106b12d789" d="M134.36,38.39a2.61,2.61,0,0,0-1.21,1.35,3.75,3.75,0,0,0-.32,1.64,8.83,8.83,0,0,0,1.08,3.34c.56,1.19,1.13,2.43,1.58,3.69a23.28,23.28,0,0,1,1.12,3.94l-.1.05-3.62-7.2a7.65,7.65,0,0,1-.94-3.92,3.31,3.31,0,0,1,2.4-3Z" transform="translate(-0.54 -0.85)"/><path class="73a63b50-4af3-4edb-a955-a7106b12d789" d="M144.26,36.33a15.73,15.73,0,0,0,7.58.67,40.31,40.31,0,0,0,7.47-1.74l7.38-2.47c2.51-.81,5-1.53,7.48-2.31,5-1.42,10-2.86,15-4.2l7.57-1.94c2.54-.57,5.07-1.22,7.63-1.73l0,.11-29.95,8.83c-2.49.74-5,1.43-7.49,2.2s-4.95,1.62-7.45,2.33a39.58,39.58,0,0,1-7.66,1.5,15.41,15.41,0,0,1-7.67-1.14Z" transform="translate(-0.54 -0.85)"/><path class="73a63b50-4af3-4edb-a955-a7106b12d789" d="M152.38,50.76a2.31,2.31,0,0,0-2.47.79A5.94,5.94,0,0,0,148.83,54c-.46,1.94-.86,3.9-1.13,5.87A77.8,77.8,0,0,0,147,72l-.11,0A35.65,35.65,0,0,1,148,53.76a5.88,5.88,0,0,1,1.54-2.66,2.57,2.57,0,0,1,2.92-.44Z" transform="translate(-0.54 -0.85)"/><path class="73a63b50-4af3-4edb-a955-a7106b12d789" d="M186.56,39.08a16.35,16.35,0,0,0,.27,4.19,16.57,16.57,0,0,0,1.4,4,5.93,5.93,0,0,1-1.68-8.16Z" transform="translate(-0.54 -0.85)"/><path class="73a63b50-4af3-4edb-a955-a7106b12d789" d="M204.92,41.57a12.43,12.43,0,0,0-1.43,1.57,8.35,8.35,0,0,0-1,1.74c-.54,1.23-.82,2.59-1.34,4a6.74,6.74,0,0,1-.21-2.24,6.82,6.82,0,0,1,.51-2.23,5.18,5.18,0,0,1,1.37-1.89A4.07,4.07,0,0,1,204.92,41.57Z" transform="translate(-0.54 -0.85)"/><path class="73a63b50-4af3-4edb-a955-a7106b12d789" d="M217.19,53.27a5.79,5.79,0,0,0,1.21,2.92,14.88,14.88,0,0,0,2.19,2.3,10.1,10.1,0,0,0,2.68,1.59,3.94,3.94,0,0,0,3.07.17,2.56,2.56,0,0,1-1.56.72,4.92,4.92,0,0,1-1.75-.14,7.94,7.94,0,0,1-3.1-1.58,10.06,10.06,0,0,1-2.2-2.64A4.43,4.43,0,0,1,217.19,53.27Z" transform="translate(-0.54 -0.85)"/><path class="73a63b50-4af3-4edb-a955-a7106b12d789" d="M234.52,40.94a4.9,4.9,0,0,0-2.17,1.27,6.58,6.58,0,0,0-1.38,2,33.75,33.75,0,0,0-1.37,5,11,11,0,0,1-.17-2.7,7.77,7.77,0,0,1,.63-2.7,5.4,5.4,0,0,1,1.8-2.19A3.5,3.5,0,0,1,234.52,40.94Z" transform="translate(-0.54 -0.85)"/><path class="ce471633-66ef-4fe3-b307-b4aa9218e83d" d="M45.14,54.71a19.86,19.86,0,0,1,3-5.56l1.24-1.67-.5,2a26.65,26.65,0,0,0-.67,5,10.22,10.22,0,0,1-.14-5.14l.74.34C47.61,51.33,46.45,53,45.14,54.71Z" transform="translate(-0.54 -0.85)"/><path class="ce471633-66ef-4fe3-b307-b4aa9218e83d" d="M56.86,58.49a10.68,10.68,0,0,1,.19-3.1l.15-.83.57.63a10.71,10.71,0,0,1,1.91,2.7,10.71,10.71,0,0,1-2.53-2.13l.72-.2A10.68,10.68,0,0,1,56.86,58.49Z" transform="translate(-0.54 -0.85)"/><path class="ce471633-66ef-4fe3-b307-b4aa9218e83d" d="M97.8,60.18c.41-1.28.87-2.54,1.35-3.79l.2-.51.32.48c.5.76,1,1.52,1.55,2.21a6.43,6.43,0,0,0,1.94,1.67,3.76,3.76,0,0,0,2.39.37,2.53,2.53,0,0,0,1.91-1.32l.18-.39.28.29c.46.47.93.92,1.37,1.41s.9,1,1.33,1.46c-.54-.39-1-.8-1.56-1.2s-1-.83-1.52-1.25l.46-.1a3,3,0,0,1-2.29,1.87,4.37,4.37,0,0,1-2.95-.39,6.74,6.74,0,0,1-2.16-1.94,15.88,15.88,0,0,1-1.44-2.4l.52,0C99.09,57.83,98.47,59,97.8,60.18Z" transform="translate(-0.54 -0.85)"/><path class="ce471633-66ef-4fe3-b307-b4aa9218e83d" d="M66.55,61.36a29.33,29.33,0,0,0,3.86-1.69,27.89,27.89,0,0,0,3.52-2.24A23.15,23.15,0,0,0,77,54.66a22.21,22.21,0,0,0,2.62-3.23l.6-.91.08,1.08c.1,1.38.12,2.76.18,4.14s.06,2.77.05,4.15c-.21-1.37-.4-2.74-.55-4.12s-.33-2.75-.43-4.13l.68.18a23,23,0,0,1-2.63,3.41A23.61,23.61,0,0,1,74.36,58a20.27,20.27,0,0,1-3.74,2.09A18.43,18.43,0,0,1,66.55,61.36Z" transform="translate(-0.54 -0.85)"/><path class="ce471633-66ef-4fe3-b307-b4aa9218e83d" d="M144.07,43.7a10,10,0,0,1-.4,2,10.71,10.71,0,0,1-.78,1.92,11.91,11.91,0,0,1-2.56,3.29l.07-.47a11.2,11.2,0,0,1,1.73,4.85,10.78,10.78,0,0,1-.68,5.11,10.44,10.44,0,0,1-3,4.16,10.07,10.07,0,0,1-4.5,2.25,11.7,11.7,0,0,0,4.15-2.63,11.29,11.29,0,0,0,2.62-4,10.89,10.89,0,0,0,.57-4.75,10.43,10.43,0,0,0-1.51-4.55l-.17-.28.24-.19a11.5,11.5,0,0,0,2.63-3,13.39,13.39,0,0,0,.93-1.78A13.65,13.65,0,0,0,144.07,43.7Z" transform="translate(-0.54 -0.85)"/><path class="ce471633-66ef-4fe3-b307-b4aa9218e83d" d="M115.21,64.27a10.44,10.44,0,0,0,6.89-2l.41-.31.23.45a8.11,8.11,0,0,0,5.17,4.1A6.74,6.74,0,0,1,122,62.78l.63.15A8.1,8.1,0,0,1,115.21,64.27Z" transform="translate(-0.54 -0.85)"/><path class="ce471633-66ef-4fe3-b307-b4aa9218e83d" d="M88.27,44q-.43-.34-.84-.69l-.73-.63.91.4a44.41,44.41,0,0,1,4.05,2l.25.14-.05.29a42.23,42.23,0,0,1-1.69,6.81,42.23,42.23,0,0,1,.87-7l.2.44a44.41,44.41,0,0,1-3.79-2.49l.19-.23Q88,43.51,88.27,44Z" transform="translate(-0.54 -0.85)"/><path class="ce471633-66ef-4fe3-b307-b4aa9218e83d" d="M106.06,39.93a41.52,41.52,0,0,1,4.2,3.42l.19.17-.08.26c-.38,1.25-.8,2.5-1.26,3.72a36.46,36.46,0,0,1-1.56,3.63,36.46,36.46,0,0,1,.87-3.85c.35-1.26.74-2.51,1.17-3.75l.11.42A41.51,41.51,0,0,1,106.06,39.93Z" transform="translate(-0.54 -0.85)"/><path class="ce471633-66ef-4fe3-b307-b4aa9218e83d" d="M129.21,41.83a21.07,21.07,0,0,0,1.13,3.44,15.59,15.59,0,0,0,1.77,3.06l.21.29-.24.19a20.64,20.64,0,0,1-2.29,1.63,20.64,20.64,0,0,1,1.81-2.15l0,.48a9,9,0,0,1-2-3.23A7.77,7.77,0,0,1,129.21,41.83Z" transform="translate(-0.54 -0.85)"/><path class="ce471633-66ef-4fe3-b307-b4aa9218e83d" d="M119.54,47.48a3.76,3.76,0,0,1,.9-1.63A3.72,3.72,0,0,1,122,44.78a3.72,3.72,0,0,1-.9,1.63A3.76,3.76,0,0,1,119.54,47.48Z" transform="translate(-0.54 -0.85)"/><ellipse class="ce471633-66ef-4fe3-b307-b4aa9218e83d" cx="131.98" cy="56.07" rx="2.78" ry="0.32" transform="translate(-7.67 90.02) rotate(-37.06)"/><path class="ce471633-66ef-4fe3-b307-b4aa9218e83d" d="M137,44.36c-.16.06-.64-1.06-.5-2.51s.81-2.46.95-2.38-.21,1.12-.32,2.43S137.18,44.31,137,44.36Z" transform="translate(-0.54 -0.85)"/><path class="ce471633-66ef-4fe3-b307-b4aa9218e83d" d="M115.81,54.81c.09,0,.06.32,0,.77a4.53,4.53,0,0,0,0,1.63,1.8,1.8,0,0,0,.89,1.15c.34.18.63.13.66.22s-.25.31-.8.2a1.92,1.92,0,0,1-1.37-1.43,3.2,3.2,0,0,1,.21-1.89C115.56,55,115.73,54.78,115.81,54.81Z" transform="translate(-0.54 -0.85)"/><path class="ce471633-66ef-4fe3-b307-b4aa9218e83d" d="M72,40.41c.13.12-.7,1.22-1.6,2.65s-1.55,2.64-1.72,2.57.25-1.43,1.19-2.91S71.93,40.3,72,40.41Z" transform="translate(-0.54 -0.85)"/><path class="ce471633-66ef-4fe3-b307-b4aa9218e83d" d="M73.36,49.83c.06,0-.22.68-1.06,1.43a6.73,6.73,0,0,1-4,1.64,6.29,6.29,0,0,1-1.25,0l-.56-.09c-.15,0-.1,0-.18.07a7.76,7.76,0,0,0-.61,1.68,14.34,14.34,0,0,1-.33,1.69,3,3,0,0,1-.11-1.77,6.52,6.52,0,0,1,.55-1.89.73.73,0,0,1,.31-.31.81.81,0,0,1,.43-.07l.57.07a6.4,6.4,0,0,0,1.14,0A7.33,7.33,0,0,0,72,50.9C72.87,50.3,73.27,49.76,73.36,49.83Z" transform="translate(-0.54 -0.85)"/><path class="ce471633-66ef-4fe3-b307-b4aa9218e83d" d="M92,59.61c-.06.05-.27-.06-.56-.29s-.32-.25-.5-.42l-.14-.13-.09-.08h0s0,0,0,.05a3.13,3.13,0,0,1-1.32,1.43c-.45.24-.76.25-.79.17s1-.67,1.54-1.87a3.52,3.52,0,0,0,.17-.45l.16-.49.58.62.19.21.13.15c.16.19.3.37.41.53C91.91,59.35,92,59.56,92,59.61Z" transform="translate(-0.54 -0.85)"/><path class="ce471633-66ef-4fe3-b307-b4aa9218e83d" d="M36.61,49.07a10.59,10.59,0,0,1-1.47,2.67,33.35,33.35,0,0,1-4.76,5.65l-.78.73-.19.18c0,.06,0,0,0,0V57.6l0-1.37,0-1.94V51a14.52,14.52,0,0,1,.17-3,14.52,14.52,0,0,1,.28,3l.13,3.29c0,1.07.09,3.24.07,2.63a44.55,44.55,0,0,0,4.8-5.42A23.17,23.17,0,0,1,36.61,49.07Z" transform="translate(-0.54 -0.85)"/><path class="ce471633-66ef-4fe3-b307-b4aa9218e83d" d="M26.92,10.17c0,.1-1.11.59-2.72,1.77a23.18,23.18,0,0,0-5.34,5.61,45,45,0,0,0-3.74,6.86,20.55,20.55,0,0,1-1.41,2.95,14.2,14.2,0,0,1,1-3.12,34.87,34.87,0,0,1,3.63-7,20.53,20.53,0,0,1,5.61-5.62A8.42,8.42,0,0,1,26.92,10.17Z" transform="translate(-0.54 -0.85)"/><path class="ce471633-66ef-4fe3-b307-b4aa9218e83d" d="M166.65,42.83s-.12-.35-.1-1a7,7,0,0,1,.13-1.15c0-.22.1-.46.17-.7l.06-.19v-.05l0-.08-.17.06-.69.18c-.48.12-1,.23-1.51.33-1.06.21-2.21.38-3.42.5a35.27,35.27,0,0,1-7.06,0,10.33,10.33,0,0,1-2.88-.53c0-.2,4.45.46,9.88-.11,1.19-.12,2.32-.28,3.37-.46l1.5-.28.69-.15,1.12-.26-.3.68-.13.31-.07.17c-.08.23-.15.45-.21.65a9.61,9.61,0,0,0-.24,1.09A4,4,0,0,1,166.65,42.83Z" transform="translate(-0.54 -0.85)"/><path class="ce471633-66ef-4fe3-b307-b4aa9218e83d" d="M193.11,30.72A13.61,13.61,0,0,1,190.48,32a64.54,64.54,0,0,1-6.6,2.64c-.67.21-1.33.39-2,.53-.32.07-.64.13-1,.18l-.47.07-.18,0s0,0,0,0l-.15.7c-.07.28-.14.55-.22.81-.15.52-.32,1-.49,1.42l-.26.6-.06.14,0,.06-.06.11c0,.06.12,0,.18.05l.4,0c.51,0,.79.08.79.13s-.28.08-.79.12l-.44,0h-.68s0-.06,0-.09l.29-.75.21-.6c.14-.43.28-.9.41-1.41l.18-.79.08-.42.1-.61s0-.08,0-.08l.11,0,.22,0,.27,0,.45-.08c.3-.05.61-.12.93-.19.63-.14,1.27-.32,1.92-.53,2.61-.83,4.91-1.83,6.62-2.45A13.61,13.61,0,0,1,193.11,30.72Z" transform="translate(-0.54 -0.85)"/><path class="ce471633-66ef-4fe3-b307-b4aa9218e83d" d="M179.51,47.36s-.09-.19-.11-.51l0-.59c0-.09,0-.29,0-.31l0-.08-.07,0,0,0-.16.07-.69.27-.75.28c-.25.1-.29.14-.35.37s0,.63-.08.95-.07.64-.12.94a10.9,10.9,0,0,1-.38,1.55c-.29.86-.58,1.35-.65,1.32s.05-.57.22-1.43c.08-.43.17-.94.24-1.52,0-.29.06-.59.08-.9s0-.61.07-1a1.07,1.07,0,0,1,.27-.54,1.24,1.24,0,0,1,.48-.28l.77-.26,1.7-.56-.07.72-.05.41-.1.58C179.62,47.18,179.56,47.36,179.51,47.36Z" transform="translate(-0.54 -0.85)"/><path class="ce471633-66ef-4fe3-b307-b4aa9218e83d" d="M180.69,53.75c-.14-.12,1.5-2,2.93-4.78a2.38,2.38,0,0,0,.36-.88c0-.27-.16-.69-.19-1a6.14,6.14,0,0,1,0-1.86c.19-1,.55-1.61.62-1.57a13.47,13.47,0,0,1-.18,1.63,7.16,7.16,0,0,0,.1,1.72c0,.34.16.59.23,1.06a1.38,1.38,0,0,1-.15.69c-.09.2-.17.36-.26.54C182.71,52.09,180.8,53.87,180.69,53.75Z" transform="translate(-0.54 -0.85)"/><path class="ce471633-66ef-4fe3-b307-b4aa9218e83d" d="M192.83,62.07a2.41,2.41,0,0,1-1,0,7.77,7.77,0,0,1-2.63-.79,6,6,0,0,1-2.82-3,4.87,4.87,0,0,1-.36-2.46,6.66,6.66,0,0,1,.92-2.47l2.16-3.58.48.35a32,32,0,0,1-4.38,4.22,8.54,8.54,0,0,1-2,1.33,73.15,73.15,0,0,0,5.9-5.93l.48.35-2.12,3.58a6.22,6.22,0,0,0-.86,2.24,4.37,4.37,0,0,0,.29,2.16,5.66,5.66,0,0,0,2.49,2.8,9.07,9.07,0,0,0,2.46.94A4.2,4.2,0,0,1,192.83,62.07Z" transform="translate(-0.54 -0.85)"/><path class="ce471633-66ef-4fe3-b307-b4aa9218e83d" d="M204.82,63.24a3.22,3.22,0,0,1-2,.17,6.35,6.35,0,0,1-4.13-2.35,6.5,6.5,0,0,1-1-1.78,6.14,6.14,0,0,1-.26-.9l0-.11s0,0,0,0v-.11s0,0-.3.37-.33.56-.44.78c-.22.45-.34.71-.39.7s0-.31.11-.81a6.37,6.37,0,0,1,1.36-2.38l.11.76a5.56,5.56,0,0,0,.13.69,6.25,6.25,0,0,0,.27.81A6.48,6.48,0,0,0,202.94,63C204.07,63.22,204.81,63.14,204.82,63.24Z" transform="translate(-0.54 -0.85)"/><path class="bcc16679-620e-4b57-8514-ed1d6ed4d6ef" d="M194.55,43" transform="translate(-0.54 -0.85)"/><path class="ce471633-66ef-4fe3-b307-b4aa9218e83d" d="M196.56,52.18a9.45,9.45,0,0,1,.24-2.45l.44-2.63.13-.76.06-.36h0a4.42,4.42,0,0,1-.6-.11,5.48,5.48,0,0,1-.86-.28,10.43,10.43,0,0,1-2.77-1.86l-.55-.5c-.09-.09-.16-.15-.27-.26a.61.61,0,0,1-.16-.54,3.89,3.89,0,0,1,.31-.64,5.25,5.25,0,0,0,.23-.52,12.45,12.45,0,0,0,.47-2.34,3.58,3.58,0,0,1,0,2.49A5.12,5.12,0,0,1,193,42c-.07.19-.22.44-.23.53s0,0,0,.08l.24.21.55.47A11,11,0,0,0,196.21,45a5.1,5.1,0,0,0,.76.25,5.17,5.17,0,0,0,1,.15s.17,0,.15,0l0,.2-.08.4-.08.42-.15.75-.57,2.59A9.66,9.66,0,0,1,196.56,52.18Z" transform="translate(-0.54 -0.85)"/><path class="ce471633-66ef-4fe3-b307-b4aa9218e83d" d="M206.7,39.2a3.56,3.56,0,0,1,1.86.11,8.69,8.69,0,0,1,.91.26l.41.15s0,0,0,0a11.16,11.16,0,0,1,4.13-5.5,3.79,3.79,0,0,1,1.67-.82c.11.16-2.43,1.52-4.2,4.43a13,13,0,0,0-1.06,2.14l-.18.49,0,.06-.06,0-.12-.05-.23-.11-.54-.24c-.3-.13-.58-.23-.84-.32A11.71,11.71,0,0,1,206.7,39.2Z" transform="translate(-0.54 -0.85)"/><path class="ce471633-66ef-4fe3-b307-b4aa9218e83d" d="M220.79,40.28c.15.06-.33,1.46-1.54,2.81a8.31,8.31,0,0,1-1.72,1.49l-.34.2c-.1.06-.28.12-.38.06s0-.11.06-.18,0,0,0,0,0-.07,0-.07-.09,0,0,0,.08,0,.15-.11l.27-.26c.41-.39,1-.92,1.53-1.55C219.92,41.41,220.63,40.2,220.79,40.28Z" transform="translate(-0.54 -0.85)"/><path class="ce471633-66ef-4fe3-b307-b4aa9218e83d" d="M226.53,55.23a4.11,4.11,0,0,1-1.92-.34,11.54,11.54,0,0,1-4.06-2.4,11.89,11.89,0,0,1-1-1,.62.62,0,0,1-.21-.53.59.59,0,0,1,.36-.42l.6-.23a9.5,9.5,0,0,0,1.78-1c1-.66,1.45-1.21,1.53-1.14s-.32.71-1.26,1.5a8,8,0,0,1-1.82,1.14l-.52.22s0,0,0,0c.28.3.58.62.91.91C223.61,54.45,226.59,55.05,226.53,55.23Z" transform="translate(-0.54 -0.85)"/><path class="ce471633-66ef-4fe3-b307-b4aa9218e83d" d="M222.79,64a2,2,0,0,1-.79-.17,11.52,11.52,0,0,1-2-.87,9.19,9.19,0,0,1-2.63-2.1A6.93,6.93,0,0,1,215.65,57h.63c0,.51-.07,1-.07,1.56a20.55,20.55,0,0,0,.47,4.56c0,.18.08.31.11.56a.68.68,0,0,1-.1.43.71.71,0,0,1-.32.26,6.66,6.66,0,0,1-1,.24,10.1,10.1,0,0,1-1.81.12,9.13,9.13,0,0,1-2.57-.42,2.24,2.24,0,0,1-.87-.39,20.63,20.63,0,0,0,3.44.37,10.65,10.65,0,0,0,1.72-.19,7.34,7.34,0,0,0,.89-.23c.1-.07.07,0,.08-.13s-.07-.31-.11-.48a19.29,19.29,0,0,1-.54-4.69c0-.55,0-1.09.08-1.61h.63a6.57,6.57,0,0,0,1.48,3.56,9.51,9.51,0,0,0,2.41,2.09C221.74,63.52,222.83,63.87,222.79,64Z" transform="translate(-0.54 -0.85)"/><path class="ce471633-66ef-4fe3-b307-b4aa9218e83d" d="M244.4,32.5c.06.07-.49.59-1.35,1.42a10.7,10.7,0,0,0-2.67,3.67,5.63,5.63,0,0,0-.33,1.23c0,.1,0,.2,0,.3v.7s-.09,0-.14,0l-.3,0-.42-.05a8.72,8.72,0,0,1-2.09-.6c-1.14-.5-1.71-1-1.66-1.08a17.37,17.37,0,0,1,1.82.66,10.5,10.5,0,0,0,2,.44c.28,0,.16,0,.19,0h0v-.08c0-.11,0-.23,0-.34a5.79,5.79,0,0,1,.35-1.37,9.36,9.36,0,0,1,3-3.77A5.45,5.45,0,0,1,244.4,32.5Z" transform="translate(-0.54 -0.85)"/><path class="ce471633-66ef-4fe3-b307-b4aa9218e83d" d="M235.69,51.77a16.11,16.11,0,0,1-.74,3.12c-.14.48-.25,1-.39,1.55-.06.28-.15.56-.19.86a7.41,7.41,0,0,0-.06.92,13.06,13.06,0,0,0,.77,4.06l.28.83,0,.13s-.08,0-.12,0l-.26,0-.49.06a8.79,8.79,0,0,1-3.2-.33,8.75,8.75,0,0,1-1.76-.74,8,8,0,0,1-.73-.46l-.29-.21-.1-.09,0,.09c0,.07-.11.21-.17.3a3.7,3.7,0,0,1-1.21,1.2c-.5.29-.82.34-.83.31s.27-.17.69-.51a4,4,0,0,0,.68-.7,3.56,3.56,0,0,0,.32-.51,3,3,0,0,0,.15-.32c.07-.19.14-.38.22-.59l.5.37c.18.13.23.16.36.24s.46.28.71.4a8.8,8.8,0,0,0,1.67.64,8.47,8.47,0,0,0,1.95.29,8.35,8.35,0,0,0,1,0h.08l-.08-.24a12.71,12.71,0,0,1-.75-4.26,7.57,7.57,0,0,1,.09-1c.06-.31.16-.6.23-.89.16-.57.3-1.11.47-1.57A16.11,16.11,0,0,1,235.69,51.77Z" transform="translate(-0.54 -0.85)"/><path class="ce471633-66ef-4fe3-b307-b4aa9218e83d" d="M223.25,27A8.8,8.8,0,0,1,221,26.8c-1.4-.19-3.33-.5-5.46-.61a22.6,22.6,0,0,0-5.43.32c-.68.13-1.24.29-1.66.31s-.64-.06-.63-.1.22,0,.59-.14.9-.31,1.59-.5a17.68,17.68,0,0,1,5.56-.52,33.67,33.67,0,0,1,5.51.8A8,8,0,0,1,223.25,27Z" transform="translate(-0.54 -0.85)"/><path class="ce471633-66ef-4fe3-b307-b4aa9218e83d" d="M155.09,80.57s-.24-.29-.56-.86a23.9,23.9,0,0,1-1.21-2.52A34.83,34.83,0,0,1,151,59.05a23.9,23.9,0,0,1,.53-2.75,3.23,3.23,0,0,1,.32-1c.1,0-.19,1.45-.41,3.77A40.42,40.42,0,0,0,153.73,77C154.54,79.22,155.18,80.52,155.09,80.57Z" transform="translate(-0.54 -0.85)"/><path class="ce471633-66ef-4fe3-b307-b4aa9218e83d" d="M163.59,60.3c-.17,0,.22-2.63.88-5.78l.34-1.59.08-.37,0-.09h0v0a.84.84,0,0,0,0-.11l-.06,0-.05,0-.21.15a6.49,6.49,0,0,1-.78.44c-.45.21-.73.27-.75.22s.2-.21.59-.49c.19-.14.42-.31.68-.52l.2-.17c.12-.11.24-.21.38-.33l.88-.86-.74,3.82C164.43,57.81,163.76,60.34,163.59,60.3Z" transform="translate(-0.54 -0.85)"/><path class="ce471633-66ef-4fe3-b307-b4aa9218e83d" d="M168.49,75.87a4.54,4.54,0,0,1-.44,1.19c-.33.75-.84,1.81-1.56,3.09a43.7,43.7,0,0,1-2.79,4.32,18.51,18.51,0,0,1-4.37,4.59,8.88,8.88,0,0,1-6.19,1.38,8.56,8.56,0,0,1-6.66-5.13,3.23,3.23,0,0,1-.34-1.23,10.58,10.58,0,0,1,.56,1.13,9.16,9.16,0,0,0,2.07,2.65,8.27,8.27,0,0,0,4.45,2A8.45,8.45,0,0,0,159,88.53a18.87,18.87,0,0,0,4.26-4.41c1.16-1.52,2.11-3,2.87-4.2C167.62,77.46,168.4,75.83,168.49,75.87Z" transform="translate(-0.54 -0.85)"/><path class="62a0183e-92e7-49df-818b-9a8b7da7ba51" d="M250.34,52a.07.07,0,0,0-.13,0,19.79,19.79,0,0,1-.85,4.11c-.23.41-1.26.61-1.87.69a.07.07,0,0,0,0,.13c.6.12,1.63.37,1.87.78a19.5,19.5,0,0,1,.86,4.31.07.07,0,0,0,.13,0,23.83,23.83,0,0,1,.65-4.31c.2-.41,1.07-.66,1.62-.77a.07.07,0,0,0,0-.13c-.54-.07-1.39-.26-1.61-.7A21.13,21.13,0,0,1,250.34,52Z" transform="translate(-0.54 -0.85)"/><path class="62a0183e-92e7-49df-818b-9a8b7da7ba51" d="M247,57.51a0,0,0,0,0-.05,0,7.93,7.93,0,0,1-.34,1.65c-.09.16-.5.24-.75.28a0,0,0,0,0,0,.05c.24,0,.65.15.75.31a7.81,7.81,0,0,1,.34,1.73,0,0,0,0,0,.05,0,9.55,9.55,0,0,1,.26-1.73c.08-.17.43-.26.65-.31a0,0,0,0,0,0-.05c-.22,0-.56-.1-.65-.28A8.47,8.47,0,0,1,247,57.51Z" transform="translate(-0.54 -0.85)"/><path class="62a0183e-92e7-49df-818b-9a8b7da7ba51" d="M245.58,53.5a0,0,0,0,0-.07,0,11.22,11.22,0,0,1-.48,2.33c-.13.23-.71.34-1.06.39a0,0,0,0,0,0,.07c.34.07.92.21,1.06.44a11.06,11.06,0,0,1,.48,2.44,0,0,0,0,0,.07,0,13.51,13.51,0,0,1,.37-2.44c.11-.24.61-.37.92-.44a0,0,0,0,0,0-.07c-.31,0-.79-.15-.92-.4A12,12,0,0,1,245.58,53.5Z" transform="translate(-0.54 -0.85)"/><path class="b3232f91-0464-4449-8848-c46fecf69bd1" d="M248.4,48.86a.07.07,0,0,0-.13,0,19.79,19.79,0,0,1-.85,4.11c-.23.41-1.26.61-1.87.69a.07.07,0,0,0,0,.13c.6.12,1.63.37,1.87.78a19.5,19.5,0,0,1,.86,4.31.07.07,0,0,0,.13,0,23.83,23.83,0,0,1,.65-4.31c.2-.41,1.07-.66,1.62-.77a.07.07,0,0,0,0-.13c-.54-.07-1.39-.26-1.61-.7A21.13,21.13,0,0,1,248.4,48.86Z" transform="translate(-0.54 -0.85)"/><path class="b3232f91-0464-4449-8848-c46fecf69bd1" d="M245.08,54.33a0,0,0,0,0-.05,0,7.93,7.93,0,0,1-.34,1.65c-.09.16-.5.24-.75.28a0,0,0,0,0,0,.05c.24,0,.65.15.75.31a7.81,7.81,0,0,1,.34,1.73,0,0,0,0,0,.05,0,9.55,9.55,0,0,1,.26-1.73c.08-.17.43-.26.65-.31a0,0,0,0,0,0-.05c-.22,0-.56-.1-.65-.28A8.47,8.47,0,0,1,245.08,54.33Z" transform="translate(-0.54 -0.85)"/><path class="b3232f91-0464-4449-8848-c46fecf69bd1" d="M243.65,50.32a0,0,0,0,0-.07,0,11.22,11.22,0,0,1-.48,2.33c-.13.23-.71.34-1.06.39a0,0,0,0,0,0,.07c.34.07.92.21,1.06.44a11.06,11.06,0,0,1,.48,2.44,0,0,0,0,0,.07,0,13.51,13.51,0,0,1,.37-2.44c.11-.24.61-.37.92-.44a0,0,0,0,0,0-.07c-.31,0-.79-.15-.92-.4A12,12,0,0,1,243.65,50.32Z" transform="translate(-0.54 -0.85)"/></g><g id="b517428b-77a9-4b27-8921-6eea6b77ec32" data-name="Apple"><path class="4f707482-c078-4f2d-8fba-bfa49c410d2a" d="M68.33,11.13c-6.3,1.52-4.53,8.31-4.53,8.31A7.94,7.94,0,0,0,68.33,11.13Z" transform="translate(-0.54 -0.85)"/><path class="bc9357b7-8bdf-4d00-8b22-e449340ef03d" d="M68,10.28c-6.3,1.52-4.53,8.31-4.53,8.31A7.94,7.94,0,0,0,68,10.28Z" transform="translate(-0.54 -0.85)"/><path class="4f707482-c078-4f2d-8fba-bfa49c410d2a" d="M71.14,29.67h0a4.23,4.23,0,0,1-1.92-2.44h0A5.45,5.45,0,0,1,69,25.7a6.24,6.24,0,0,1,.12-1.34h0A7.14,7.14,0,0,1,70.75,21h0a6.64,6.64,0,0,1,.74-.72,3.25,3.25,0,0,0-1.17-.94c-3.33-1.55-4.64,1.83-6.49,2.3-2.09.53-2.27-2.53-5.71-.6a5.56,5.56,0,0,0-2.29,2.61h0a8.77,8.77,0,0,0-.75,3.1h0a9.43,9.43,0,0,0,.23,2.8h0a6.72,6.72,0,0,0,.6,1.61c.16.31.34.61.53.9h0a15.1,15.1,0,0,0,1.77,2.29h0a6,6,0,0,0,2.65,1.89c2.17.4,2.09-1.1,4-1.38s1.73,1.23,3.84.15a6.3,6.3,0,0,0,2.14-2.68h0a22.13,22.13,0,0,0,1-2.33A3.86,3.86,0,0,1,71.14,29.67Z" transform="translate(-0.54 -0.85)"/><path class="bc9357b7-8bdf-4d00-8b22-e449340ef03d" d="M70.86,28.82h0a4.23,4.23,0,0,1-1.92-2.44h0a5.45,5.45,0,0,1-.24-1.53,6.24,6.24,0,0,1,.12-1.34h0a7.14,7.14,0,0,1,1.66-3.33h0a6.64,6.64,0,0,1,.74-.72A3.25,3.25,0,0,0,70,18.5c-3.33-1.55-4.64,1.83-6.49,2.3-2.09.53-2.27-2.53-5.71-.6a5.56,5.56,0,0,0-2.29,2.61h0a8.77,8.77,0,0,0-.75,3.1h0a9.43,9.43,0,0,0,.23,2.8h0a6.72,6.72,0,0,0,.6,1.61c.16.31.34.61.53.9h0a15.1,15.1,0,0,0,1.77,2.29h0a6,6,0,0,0,2.65,1.89c2.17.4,2.09-1.1,4-1.38s1.73,1.23,3.84.15a6.3,6.3,0,0,0,2.14-2.68h0a22.13,22.13,0,0,0,1-2.33A3.86,3.86,0,0,1,70.86,28.82Z" transform="translate(-0.54 -0.85)"/><polygon class="b3232f91-0464-4449-8848-c46fecf69bd1" points="68.24 22.66 68.24 22.66 54.24 25.07 54.24 25.07 68.24 22.66"/><polygon class="b3232f91-0464-4449-8848-c46fecf69bd1" points="68.37 25.53 68.37 25.54 54.48 27.87 54.48 27.86 68.37 25.53"/><polygon class="b3232f91-0464-4449-8848-c46fecf69bd1" points="70.04 30.64 70.03 30.65 57.38 32.67 57.37 32.67 70.04 30.64"/><polygon class="b3232f91-0464-4449-8848-c46fecf69bd1" points="70.3 27.97 55.6 30.38 55.6 30.38 70.29 27.97 70.3 27.97"/><path class="a3337157-c7bf-4d45-8a99-4825e64d85cc" d="M63.49,18.6S61.72,11.81,68,10.29A7.94,7.94,0,0,1,63.49,18.6Z" transform="translate(-0.54 -0.85)"/><path class="00882558-a66a-4d60-a75c-63abacbc2fcf" d="M68,10.29c-6.3,1.52-4.53,8.31-4.53,8.31A7.94,7.94,0,0,0,68,10.29ZM55.53,22.8h0m14.93-2.65h0" transform="translate(-0.54 -0.85)"/><path class="a3337157-c7bf-4d45-8a99-4825e64d85cc" d="M71.2,19.44a6.64,6.64,0,0,0-.74.72h0L55.53,22.82h0a5.56,5.56,0,0,1,2.29-2.61c3.43-1.93,3.62,1.13,5.71.6C65.39,20.33,66.7,17,70,18.5A3.25,3.25,0,0,1,71.2,19.44Z" transform="translate(-0.54 -0.85)"/><path class="3dd8b7b1-490e-49cd-9978-ff9742274414" d="M70.44,20.18a7.14,7.14,0,0,0-1.66,3.33l-14,2.41a8.77,8.77,0,0,1,.74-3.1Z" transform="translate(-0.54 -0.85)"/><path class="00882558-a66a-4d60-a75c-63abacbc2fcf" d="M70.46,20.17h0" transform="translate(-0.54 -0.85)"/><path class="5dab4b93-883c-416b-95b8-1d7999d8512d" d="M68.91,26.38,55,28.71a9.43,9.43,0,0,1-.24-2.79l14-2.41a6.23,6.23,0,0,0-.12,1.34A5.45,5.45,0,0,0,68.91,26.38Z" transform="translate(-0.54 -0.85)"/><path class="318156de-4678-47d4-8295-a16505d241de" d="M70.83,28.82,56.14,31.23c-.19-.29-.36-.59-.53-.9a6.73,6.73,0,0,1-.6-1.61l13.89-2.33A4.23,4.23,0,0,0,70.83,28.82Z" transform="translate(-0.54 -0.85)"/><path class="9e4735d6-0407-4565-a305-0e5b7cff9ce9" d="M71.61,29.16a22.13,22.13,0,0,1-1,2.33l-12.66,2a15.11,15.11,0,0,1-1.77-2.29l14.69-2.41A3.86,3.86,0,0,0,71.61,29.16Z" transform="translate(-0.54 -0.85)"/><path class="ce471633-66ef-4fe3-b307-b4aa9218e83d" d="M70.58,31.5a6.3,6.3,0,0,1-2.13,2.68c-2.12,1.08-1.9-.44-3.84-.15s-1.86,1.78-4,1.38a6,6,0,0,1-2.65-1.89Z" transform="translate(-0.54 -0.85)"/><path class="73a63b50-4af3-4edb-a955-a7106b12d789" d="M63,19.42a8.09,8.09,0,0,0,3.64-2.49,11.07,11.07,0,0,0,1.26-1.83A15.83,15.83,0,0,0,68.84,13a7.12,7.12,0,0,1-.54,2.26,7.45,7.45,0,0,1-1.22,2,6.43,6.43,0,0,1-1.83,1.49A5,5,0,0,1,63,19.42Z" transform="translate(-0.54 -0.85)"/><path class="73a63b50-4af3-4edb-a955-a7106b12d789" d="M70.82,21.06a6.39,6.39,0,0,0-1,4.35,4.13,4.13,0,0,0,.9,2A3.38,3.38,0,0,0,72.5,28.5l.27.06-.07.27a18.46,18.46,0,0,1-1,3,7.15,7.15,0,0,1-1.83,2.58,4.09,4.09,0,0,1-3,1c-1.09-.14-1.87-1.07-2.93-.76a2,2,0,0,1,1.52.05,5.4,5.4,0,0,0,1.44.41A3.72,3.72,0,0,0,69.58,34a6.65,6.65,0,0,0,1.65-2.43,28.77,28.77,0,0,0,1-2.88l.19.33a3.89,3.89,0,0,1-2.06-1.32,4.2,4.2,0,0,1-.9-2.24A6,6,0,0,1,70.82,21.06Z" transform="translate(-0.54 -0.85)"/></g><g id="cc04cb73-d13d-4723-8e5f-d30c340d2c83" data-name="X-wing"><path class="8fc59e5c-0e18-426b-acd7-09fedb0f358a" d="M17,53.17,16.72,53c-.12-.08-.22-.13-.24-.11s.05.12.15.23l.22.25s0,.1,0,.16-.09.12-.07.14.07,0,.13-.09.3.06.54.28l2.06,1.81c.24.21.38.45.32.53s0,.27.21.43a.53.53,0,0,1-.06.73L17.55,60c-.21.24-.5.34-.64.22s-.42,0-.64.22l0,0c-.21.24-.49.35-.61.24s-.36,0-.53.15a.59.59,0,0,1-.77,0l-6.9-5.23L7,55.31,6.48,55,4,53.26a.68.68,0,0,0-.87.11l-.25.28a.68.68,0,0,0,0,.88l2,2.27.39.44.4.42,6,6.2a.59.59,0,0,1,.1.76c-.17.19-.2.43-.08.54s0,.39-.17.63l0,0c-.21.24-.28.54-.14.66s.07.42-.14.66L8.91,69.82a.53.53,0,0,1-.72.15c-.18-.16-.39-.23-.45-.15s-.32,0-.56-.25L5.12,67.75c-.24-.21-.39-.44-.34-.5s.09-.12.07-.14-.07,0-.13.09-.13.09-.16.06l-.27-.19c-.12-.08-.22-.13-.24-.11s.05.12.15.23l.22.25s0,.1,0,.16-.09.12-.07.14.07,0,.13-.09.3.06.54.28L7,69.73c.24.21.38.45.32.53s.08.31.32.53l2.44,2.16a.54.54,0,0,0,.76,0c.17-.2.23-.44.11-.54s0-.34.26-.54l3.66-2.82a6.11,6.11,0,0,0,.68-.6c.12-.13.41-.07.65.15l.62.54c.24.21.39.44.34.5s.11.27.37.46l.52.38a.66.66,0,0,0,.86-.09l0,0a.65.65,0,0,0,0-.86l-.32-.34a.65.65,0,0,1,0-.86l1-1.13a.65.65,0,0,1,.86-.09l.37.27a.65.65,0,0,0,.86-.09l0,0a.65.65,0,0,0,0-.86l-.44-.47c-.22-.23-.45-.38-.5-.31s-.29-.06-.54-.28l-.62-.54c-.24-.21-.4-.43-.35-.48s.22-.32.39-.59l2.63-4.27c.17-.27.39-.42.49-.33s.33,0,.5-.2a.54.54,0,0,0-.12-.75L20.73,56c-.24-.21-.49-.32-.56-.25s-.32,0-.56-.25l-2.06-1.81c-.24-.21-.39-.44-.34-.5s.09-.12.07-.14-.07,0-.13.09S17,53.2,17,53.17Zm-3.51,9.6a.56.56,0,0,1-.81,0L10.82,61a.5.5,0,1,1,.66-.75l2,1.62a.56.56,0,0,1,.07.81Z" transform="translate(-0.54 -0.85)"/><g class="bb5d49cc-b11d-4283-8c43-d14e7837a147"><path class="dafbd42b-a9ea-4d66-bf9f-88671d79bffd" d="M21.24,61.95,21,61.76c-.12-.08-.22-.13-.24-.11s.05.12.15.23l.22.25s0,.1,0,.16-.09.12-.07.14.07,0,.13-.09.3.06.54.28l2.06,1.81c.24.21.38.45.32.53s0,.27.21.43a.53.53,0,0,1-.06.73L21.8,68.8c-.21.24-.5.34-.64.22s-.42,0-.64.22l0,0c-.21.24-.49.35-.61.24s-.36,0-.53.15a.59.59,0,0,1-.77,0l-6.9-5.23-.47-.35-.49-.33L8.22,62a.68.68,0,0,0-.87.11l-.25.28a.68.68,0,0,0,0,.88l2,2.27.39.44.4.42,6,6.2a.59.59,0,0,1,.1.76c-.17.19-.2.43-.08.54s0,.39-.17.63l0,0c-.21.24-.28.54-.14.66s.07.42-.14.66L13.15,78.6a.53.53,0,0,1-.72.15c-.18-.16-.39-.23-.45-.15s-.32,0-.56-.25L9.36,76.52C9.12,76.31,9,76.09,9,76s.09-.12.07-.14S9,75.92,9,76s-.13.09-.16.06l-.27-.19c-.12-.08-.22-.13-.24-.11s.05.12.15.23l.22.25s0,.1,0,.16-.09.12-.07.14.07,0,.13-.09.3.06.54.28l2.06,1.81c.24.21.38.45.32.53s.08.31.32.53l2.44,2.16a.54.54,0,0,0,.76,0c.17-.2.23-.44.11-.54s0-.34.26-.54l3.66-2.82a6.11,6.11,0,0,0,.68-.6c.12-.13.41-.07.65.15l.62.54c.24.21.39.44.34.5s.11.27.37.46l.52.38a.66.66,0,0,0,.86-.09l0,0a.65.65,0,0,0,0-.86l-.32-.34a.65.65,0,0,1,0-.86l1-1.13a.65.65,0,0,1,.86-.09l.37.27a.65.65,0,0,0,.86-.09l0,0a.65.65,0,0,0,0-.86l-.44-.47c-.22-.23-.45-.38-.5-.31s-.29-.06-.54-.28l-.62-.54c-.24-.21-.4-.43-.35-.48s.22-.32.39-.59l2.63-4.27c.17-.27.39-.42.49-.33s.33,0,.5-.2a.54.54,0,0,0-.12-.75L25,64.75c-.24-.21-.49-.32-.56-.25s-.32,0-.56-.25L21.8,62.44c-.24-.21-.39-.44-.34-.5s.09-.12.07-.14-.07,0-.13.09S21.27,62,21.24,61.95Zm-3.51,9.6a.56.56,0,0,1-.81,0l-1.85-1.77a.5.5,0,1,1,.66-.75l2,1.62a.56.56,0,0,1,.07.81Z" transform="translate(-0.54 -0.85)"/></g><path class="b3232f91-0464-4449-8848-c46fecf69bd1" d="M17,53.17,16.72,53c-.12-.08-.22-.13-.24-.11s.05.12.15.23l.22.25s0,.1,0,.16-.09.12-.07.14.07,0,.13-.09.3.06.54.28l2.06,1.81c.24.21.38.45.32.53s0,.27.21.43a.53.53,0,0,1-.06.73L17.55,60c-.21.24-.5.34-.64.22s-.42,0-.64.22l0,0c-.21.24-.49.35-.61.24s-.36,0-.53.15a.59.59,0,0,1-.77,0l-6.9-5.23L7,55.31,6.48,55,4,53.26a.68.68,0,0,0-.87.11l-.25.28a.68.68,0,0,0,0,.88l2,2.27.39.44.4.42,6,6.2a.59.59,0,0,1,.1.76c-.17.19-.2.43-.08.54s0,.39-.17.63l0,0c-.21.24-.28.54-.14.66s.07.42-.14.66L8.91,69.82a.53.53,0,0,1-.72.15c-.18-.16-.39-.23-.45-.15s-.32,0-.56-.25L5.12,67.75c-.24-.21-.39-.44-.34-.5s.09-.12.07-.14-.07,0-.13.09-.13.09-.16.06l-.27-.19c-.12-.08-.22-.13-.24-.11s.05.12.15.23l.22.25s0,.1,0,.16-.09.12-.07.14.07,0,.13-.09.3.06.54.28L7,69.73c.24.21.38.45.32.53s.08.31.32.53l2.44,2.16a.54.54,0,0,0,.76,0c.17-.2.23-.44.11-.54s0-.34.26-.54l3.66-2.82a6.11,6.11,0,0,0,.68-.6c.12-.13.41-.07.65.15l.62.54c.24.21.39.44.34.5s.11.27.37.46l.52.38a.66.66,0,0,0,.86-.09l0,0a.65.65,0,0,0,0-.86l-.32-.34a.65.65,0,0,1,0-.86l1-1.13a.65.65,0,0,1,.86-.09l.37.27a.65.65,0,0,0,.86-.09l0,0a.65.65,0,0,0,0-.86l-.44-.47c-.22-.23-.45-.38-.5-.31s-.29-.06-.54-.28l-.62-.54c-.24-.21-.4-.43-.35-.48s.22-.32.39-.59l2.63-4.27c.17-.27.39-.42.49-.33s.33,0,.5-.2a.54.54,0,0,0-.12-.75L20.73,56c-.24-.21-.49-.32-.56-.25s-.32,0-.56-.25l-2.06-1.81c-.24-.21-.39-.44-.34-.5s.09-.12.07-.14-.07,0-.13.09S17,53.2,17,53.17Zm-3.51,9.6a.56.56,0,0,1-.81,0L10.82,61a.5.5,0,1,1,.66-.75l2,1.62a.56.56,0,0,1,.07.81Z" transform="translate(-0.54 -0.85)"/></g></g></svg>