<svg xmlns="http://www.w3.org/2000/svg" xmlns:xlink="http://www.w3.org/1999/xlink" width="186.88" height="172.63" viewBox="0 0 186.88 172.63"><defs><style>.\35 708df6f-8cb5-4c0d-9d9a-b792627fcf8e{isolation:isolate;}.\35 bc2a48c-9fac-47b5-9acf-d73050060ade{fill:#d1d3d4;}.\30 52da3b7-70a9-4f16-a2ce-c04f39b23bd7{fill:#d3d5d6;}.\30 1d31921-619d-4362-99ad-e40fd709a739,.\30 52da3b7-70a9-4f16-a2ce-c04f39b23bd7,.e029191c-2bc2-44ac-8d8c-1b3145cc3fad{mix-blend-mode:multiply;}.be653e24-249d-41cd-bce4-aa1faa313148{fill:#231f20;}.edb846e6-a784-4080-a95a-6a36df4874d7{fill:url(#c80db37f-26b5-45a6-ac16-fe2f3301cc99);}.\39 91f6de4-bd4e-49b6-a354-21f117e5150e{fill:#fff;}.e029191c-2bc2-44ac-8d8c-1b3145cc3fad{fill:#e68945;}.\37 46a4e32-40d7-4832-9f67-a401ecaf8d43{fill:#bcbec0;}.\35 c3eefd6-6f44-4da3-b459-2bdd7a9e28f2{fill:#00aeef;}.\36 6af9935-c91e-420a-8bdd-00d1b92253e0,.\37 4ea6029-2a96-49a6-90a3-5b457bdf6d5a,.\39 682e977-4576-4bb6-b39d-d96cf52e8c56,.a160d243-354e-4974-aa6c-dbd12f0b8e04,.d4a4dfe6-e5c5-4eb7-81ac-d129f8050fd6{fill:none;}.d4a4dfe6-e5c5-4eb7-81ac-d129f8050fd6{stroke:#00aeef;stroke-width:0.03px;}.\37 4ea6029-2a96-49a6-90a3-5b457bdf6d5a,.\39 682e977-4576-4bb6-b39d-d96cf52e8c56,.a160d243-354e-4974-aa6c-dbd12f0b8e04,.d4a4dfe6-e5c5-4eb7-81ac-d129f8050fd6{stroke-miterlimit:10;}.\37 4ea6029-2a96-49a6-90a3-5b457bdf6d5a{stroke:#ffed93;stroke-width:5px;}.a160d243-354e-4974-aa6c-dbd12f0b8e04{stroke:#231f20;stroke-width:4.95px;}.\39 7463be7-cfb5-49e9-8f98-8a2c4281fde1{fill:#39b54a;}.\37 157c3d9-de68-4725-b15e-4aad5434f271{fill:#ffca46;}.be285b98-d1d2-4b37-85b1-b88377ec8f5a{fill:#f7941d;}.\36 3db0da4-c103-4329-9c24-ef54b5845a71{fill:#ed1c24;}.\37 ae64c08-6239-4b79-b07c-324f922a0068{fill:#662d91;}.\39 682e977-4576-4bb6-b39d-d96cf52e8c56{stroke:#fff;stroke-width:1.43px;}</style><linearGradient id="c80db37f-26b5-45a6-ac16-fe2f3301cc99" x1="92.35" y1="43.06" x2="92.35" y2="165.02" gradientUnits="userSpaceOnUse"><stop offset="0" stop-color="#ffea00"/><stop offset="1" stop-color="#f4be18"/></linearGradient></defs><title>vf_logo</title><g class="5708df6f-8cb5-4c0d-9d9a-b792627fcf8e"><g id="ebdb360e-170e-4d7f-9d9e-867e7e6eea80" data-name="Layer 3"><path class="5bc2a48c-9fac-47b5-9acf-d73050060ade" d="M106.17,101.77a9.32,9.32,0,0,0-2.35-5.11c3.15-1,6.49-2,9.83-2.85a11.9,11.9,0,0,0-1.74,8l-.46.24c-2,1.15-3.54,3.53-4.67,6.25l-.57-.25L106,108A16.87,16.87,0,0,0,106.17,101.77ZM52.33,138.24c-.09-2.3-.07-4.44,0-6.34a6.21,6.21,0,0,0,.76,0A6,6,0,0,0,59,127.23a38.61,38.61,0,0,0,1-6.28l1,7.47,1-.62c-3.18,13.69-5.63,20.81-7.22,24.47A45.87,45.87,0,0,1,52.33,138.24Zm7.48-21.31a10.33,10.33,0,0,0-2.07-5,8.11,8.11,0,0,0-2.41-2c2.64-.27,5.32-.67,7.87-1.12A13.8,13.8,0,0,0,59.81,116.93Zm37.3-38.72c1-.76,1.89-1.56,2.81-2.39a11,11,0,0,0,.34,1.67Q98.71,77.83,97.11,78.21Zm-25.2,7.7A157.18,157.18,0,0,1,53.78,91a6,6,0,0,0,.11-4.77A6.14,6.14,0,0,0,53,84.69a91.47,91.47,0,0,0,7.37-8.86l.1.2a15.12,15.12,0,0,0,7.83,7.06,6.67,6.67,0,0,0,2.63.54h0a6.74,6.74,0,0,0,5-2.2,6.65,6.65,0,0,0,.6-.78l.59.4A17.72,17.72,0,0,0,71.91,85.91Zm84.14.84c-5,1.94-8.87,9.1-7.7,14.1l-.61.34a7,7,0,0,0-1.72,1.39,11,11,0,0,0-7.06-2.5,12.37,12.37,0,0,0-1.68.12l-1.16.16a6.07,6.07,0,0,0-1.88-.93,6.1,6.1,0,0,0,1.39-8.5,7.22,7.22,0,0,1,1.24.32,5.94,5.94,0,0,0,7.67-3.49,6,6,0,0,0,.34-1.41,11.62,11.62,0,0,0,3,.41,19.09,19.09,0,0,0,6.51-1.29l1.41-.54a16.38,16.38,0,0,0,1.85,1.32A13,13,0,0,0,156,86.76ZM51.63,32.43a33.24,33.24,0,0,0,1.49-5.87L55.77,31c.57,1,1,5.58-1.49,13.64A70.62,70.62,0,0,1,42.79,66.89l-.73.91C42.9,61.14,45.41,50.22,51.63,32.43Zm-30,16a21.73,21.73,0,0,1,.6-12.29A35.17,35.17,0,0,1,29,25.32a175.35,175.35,0,0,0-6.58,25.59Z" transform="translate(-1.01 -1.87)"/><path class="052da3b7-70a9-4f16-a2ce-c04f39b23bd7" d="M186.72,52.5a10.5,10.5,0,0,0-6-5.55,19.35,19.35,0,0,0-5.74-.84,10.51,10.51,0,0,0-5.52,1.21,14.25,14.25,0,0,0-5,4.82,15.36,15.36,0,0,0-2.76-2,11.77,11.77,0,0,0-5.94-1.63,11.47,11.47,0,0,0-5.56,1.58,22.42,22.42,0,0,0-4.34,3.2,30.34,30.34,0,0,0-3.48,3.87,25.46,25.46,0,0,0-3.25-3.5,7.21,7.21,0,0,0-4.39-1.81c-1.43-1.79-4.22-4.15-9.39-5.15a6.45,6.45,0,0,0-7.65,6.83,27.7,27.7,0,0,1-.17,5.38c-.45-.22-.87-.41-1.25-.57l-.24-.1a16.8,16.8,0,0,0,.21-6.15c-.66-4.59-4-7.67-8.43-7.67a10.23,10.23,0,0,0-7.66,3.68,15.52,15.52,0,0,0-1.68-1.12,11.79,11.79,0,0,0-5.6-1.61,6.28,6.28,0,0,0,.72-2.93c0-1.44-15.24,6.79-19.52,5.43-3.48-1.1-3.25-13.2,0-12.48-1.2-4.18-.92-6.65-5.31-8.41a20.31,20.31,0,0,0-6.94-1.4H54.87a24.56,24.56,0,0,0-2.77-12.09c-2.15-4.08-5.35-7.22-8.17-8A14.42,14.42,0,0,0,40.14,5c-8,0-21.87,5.54-30.25,14.49C4.57,25.17,2,31.6,2.41,38.09c1,15,13.2,19.49,13.72,19.67l6.72,2.4c-1.27,10.38-2.32,32.69,10.67,40.06l.59.33a11.52,11.52,0,0,0,.81,5.27c.78,1.94,2.61,4.55,6.93,6a23.13,23.13,0,0,0,5.43,1q-1,.43-2,1C34.4,120,34.62,137.18,35.22,144.29a62.16,62.16,0,0,0,4,17.63c2.6,6.4,6,10.39,10,11.86l.2.07.2.06a16.41,16.41,0,0,0,4.35.6h0c13.22,0,23.93-16,30.16-45.13l.35-1.65.5.83a6.12,6.12,0,0,0,5.25,2.88,7.05,7.05,0,0,0,2.44-.44,10.62,10.62,0,0,0,.54,2.3,8.59,8.59,0,0,0,4.64,5,9.55,9.55,0,0,0,3.34.82,2.8,2.8,0,0,0,1.88,1.82c2.34.5,5-2.42,6.84-.72,1.65,1.51.88,5.5,2.93,6.06,1.43.39,2.45-1.45,3.27-2.84s2.86-2.45,3.53-1c.49,1.09-.4,2.58.22,3.59s1.94.49,3,.38a1.76,1.76,0,0,1,1.67,1.44,1,1,0,0,0,1.66.7,2.27,2.27,0,0,0,.43-.48c.6-.94,1.29-2.22,2.28-2,.63.15,1,.89,1.59,1.22,1.61.91,3.05-1.68,4.8-2.16,2.26-.63,3.32,2.59,3.12,5.25s-.75,3.28-1,5a4.58,4.58,0,0,0,.89,3.34,2.19,2.19,0,0,0,1.41,1A2.09,2.09,0,0,0,142,158c.58-2.84-1.67-4.43-1.55-8.88,0-1.28.16-2.79,1.26-3,1.54-.35,2.41,1.92,3.6,3.13a1,1,0,0,0,1.72-.51l.61-3.13a1,1,0,0,1,1.35-.75,3.69,3.69,0,0,1,1.47,1.1,1,1,0,0,0,1.73-.36v0a1,1,0,0,1,2,0,10.36,10.36,0,0,1,.15,2.7,6.46,6.46,0,0,0,.72,3.45,1,1,0,0,0,1.88-.44,30.26,30.26,0,0,0-.65-9.18,1,1,0,0,1,.86-1.24,4,4,0,0,0,3-3.44,8.43,8.43,0,0,0-.43-3.75c-.16-2.7.18-9.48,5.4-20.91a6.31,6.31,0,0,0,.29-4.44,6.29,6.29,0,0,0,.91-1.83c1-3.24,2.78-4.52,4.09-5a6.25,6.25,0,0,0,2.44-9.94,13.38,13.38,0,0,0,8-4.61c4-4.75,4-11.35,3.48-14.5a22.83,22.83,0,0,0-.73-2.94,18.81,18.81,0,0,0,3-5C188.72,58.86,187.83,54.86,186.72,52.5ZM23.83,53.6,23,51.13a21.73,21.73,0,0,1,.6-12.29A35.17,35.17,0,0,1,30.41,28,175.35,175.35,0,0,0,23.83,53.6Zm20.36,16-.73.91c.84-6.66,3.35-17.58,9.57-35.37a33.24,33.24,0,0,0,1.49-5.87l2.65,4.41c.57,1,1,5.58-1.49,13.64A70.62,70.62,0,0,1,44.19,69.58Zm12,85.38a45.87,45.87,0,0,1-2.45-14c-.09-2.3-.07-4.44,0-6.34a6.21,6.21,0,0,0,.76,0,6,6,0,0,0,5.91-4.72,38.61,38.61,0,0,0,1-6.28l1,7.47,1-.62C60.22,144.17,57.77,151.29,56.18,155Zm5-35.34a10.33,10.33,0,0,0-2.07-5,8.11,8.11,0,0,0-2.41-2c2.64-.27,5.32-.67,7.87-1.12A13.8,13.8,0,0,0,61.22,119.61Zm12.1-31a157.18,157.18,0,0,1-18.13,5.06,6,6,0,0,0,.11-4.77,6.14,6.14,0,0,0-.88-1.51,91.47,91.47,0,0,0,7.37-8.86l.1.2a15.12,15.12,0,0,0,7.83,7.06,6.67,6.67,0,0,0,2.63.54h0a6.74,6.74,0,0,0,5-2.2,6.65,6.65,0,0,0,.6-.78l.59.4A17.72,17.72,0,0,0,73.32,88.6Zm64.85,8.87A6.06,6.06,0,0,0,137,93.61a7.22,7.22,0,0,1,1.24.32,5.94,5.94,0,0,0,7.67-3.49,6,6,0,0,0,.34-1.41,11.62,11.62,0,0,0,3,.41,19.09,19.09,0,0,0,6.51-1.29l1.41-.54a16.38,16.38,0,0,0,1.85,1.32,13,13,0,0,0-1.62.5c-5,1.94-8.87,9.1-7.7,14.1l-.61.34a7,7,0,0,0-1.72,1.39,11,11,0,0,0-7.06-2.5,12.37,12.37,0,0,0-1.68.12l-1.16.16a6.07,6.07,0,0,0-1.88-.93A6,6,0,0,0,138.17,97.47ZM115,96.5a11.9,11.9,0,0,0-1.74,8l-.46.24c-2,1.15-3.54,3.53-4.67,6.25l-.57-.25-.25-.11a16.87,16.87,0,0,0,.22-6.18,9.32,9.32,0,0,0-2.35-5.11C108.37,98.35,111.71,97.37,115,96.5Zm-13.72-18a11,11,0,0,0,.34,1.67q-1.56.34-3.16.72C99.47,80.14,100.41,79.34,101.33,78.51Z" transform="translate(-1.01 -1.87)"/><path class="be653e24-249d-41cd-bce4-aa1faa313148" d="M178.81,58.07c2.34-6.27-.12-9.72-2.68-10.61-1.77-.62-5.6-.77-6.74-.09-7,4.18-3.4,10-.19,15.61l-.69.59c-1.25,1.06-2.64,2.15-4.14,3.28-1,.78-2.09,1.54-3.2,2.3a19.1,19.1,0,0,1,1.74-4.72c-3.3.16-6.34,3.27-7.45,5.07a5.94,5.94,0,0,0-.84,3.75,38.15,38.15,0,0,1-4.51,2.1,11.45,11.45,0,0,1-4.08.85,1.34,1.34,0,0,1-1.24-.64,3,3,0,0,1-.36-1.69,11.81,11.81,0,0,1,.39-2.48,31,31,0,0,1,1-3.05,8.37,8.37,0,0,0,1.72.45,13.66,13.66,0,0,0,2.14.15,7.74,7.74,0,0,0,4.05-1.21,18.51,18.51,0,0,0,3.63-2.87A17.22,17.22,0,0,0,160,61.35a8.21,8.21,0,0,0,1.18-3.11,6.8,6.8,0,0,0-.58-2.84,11.24,11.24,0,0,0-1.75-2.93,9.77,9.77,0,0,0-2.69-2.27,6.45,6.45,0,0,0-3.26-.91,6.21,6.21,0,0,0-3,.91,17,17,0,0,0-3.3,2.45,25.54,25.54,0,0,0-3.23,3.69,37.29,37.29,0,0,0-2.87,4.59,31.56,31.56,0,0,0-2.18,5.17,24.65,24.65,0,0,0-.85,3.4h0c-.77.9-1.57,1.37-2.39,1.07,0,0-2.36-3.77,1.1-13.36a19.28,19.28,0,0,0-3.51-4.13,1.8,1.8,0,0,0-2.19-.18A7.46,7.46,0,0,0,127.76,57a28,28,0,0,0,.47-5.65s-1.21-3-6.73-4a1.09,1.09,0,0,0-1.29,1.15c.22,2.92.21,10.21-3.9,19.5-1.49,1.32-5.22,4.35-5.22,1.45,0-3.62,3-8,2.36-9.43s-5-1.57-6.6-4.87a9.74,9.74,0,0,0,1.26-6.92c-.63-4.4-5.66-3.77-7.55,0s-2.94,8,.25,11.85q-.94,1.07-2,2.19-1.82,2-3.84,3.9a39.37,39.37,0,0,1-4.11,3.45,24,24,0,0,1-4.14,2.45A9.47,9.47,0,0,1,82.8,73a1.35,1.35,0,0,1-1.24-.63,3,3,0,0,1-.36-1.69,11.56,11.56,0,0,1,.39-2.48,30.72,30.72,0,0,1,1-3.05,8.6,8.6,0,0,0,1.72.45,13.21,13.21,0,0,0,2.14.15,7.72,7.72,0,0,0,4-1.21,18.3,18.3,0,0,0,3.63-2.87,17.19,17.19,0,0,0,2.69-3.51A8.23,8.23,0,0,0,98,55.07a6.78,6.78,0,0,0-.58-2.84,11.26,11.26,0,0,0-1.75-2.93A9.83,9.83,0,0,0,93,47a6.45,6.45,0,0,0-3.26-.91,6.21,6.21,0,0,0-3,.91,17.16,17.16,0,0,0-3.3,2.45,25.93,25.93,0,0,0-3.23,3.69,37.56,37.56,0,0,0-2.87,4.59,31.46,31.46,0,0,0-2.18,5.17A24.76,24.76,0,0,0,74,68.37a3.93,3.93,0,0,0,.75,2.48,12.42,12.42,0,0,0,2.27,2.63,13.4,13.4,0,0,0,3.06,2.06,7.17,7.17,0,0,0,3.17.82,9.91,9.91,0,0,0,4.38-1.15,26.15,26.15,0,0,0,4.65-3,52.78,52.78,0,0,0,4.54-4q2.21-2.21,4-4.35Q102,62.48,103,61.29l1,.48,2.52.63s-5.73,11.7-.61,14c3.36,1.49,7.13-1.84,9.27-5.05.55,1.63,2.39,6.11,6.24,6,0,0,4.24-4.11,5.05-12.76a11.13,11.13,0,0,0,0,1.43h0a11.69,11.69,0,0,0,6.74,10s1.54.36,4.29-2.78A6.83,6.83,0,0,0,138,74a12.42,12.42,0,0,0,2.27,2.63,13.52,13.52,0,0,0,3.06,2.06,7.21,7.21,0,0,0,3.17.81,14,14,0,0,0,4.69-1,49.09,49.09,0,0,0,4.61-1.94c1.77,2.8,5.42,5.09,10.72,5.27,9.75.31,10.38-9.59,9.75-13.05a12.82,12.82,0,0,0-1.9-5.13A14.1,14.1,0,0,0,178.81,58.07ZM150,59.75a31.6,31.6,0,0,1,2-3.08,14.49,14.49,0,0,1,1.87-2.12,2.48,2.48,0,0,1,1.54-.79q.91,0,.76,1.3a7.3,7.3,0,0,1-1.21,3,15.29,15.29,0,0,1-2.84,3.23A9.32,9.32,0,0,1,148,63.38Q148.93,61.51,150,59.75ZM86.73,56.58a32.36,32.36,0,0,1,2-3.08,14.68,14.68,0,0,1,1.88-2.12,2.5,2.5,0,0,1,1.54-.79q.91,0,.76,1.3a7.37,7.37,0,0,1-1.21,3,15.28,15.28,0,0,1-2.84,3.23,9.35,9.35,0,0,1-4.14,2.12Q85.7,58.33,86.73,56.58Zm18.85-2.19c-1.73-2.52-1.1-6.76-1.1-6.76A8.44,8.44,0,0,1,105.59,54.39ZM171.07,70.6c-.6,2.24-2.52,4.1-5.83,4.1a4.21,4.21,0,0,1-3.49-1.29l.9-.56a43.46,43.46,0,0,0,5.12-3.72c1.13-1,2.3-1.85,3.28-2.66A5.74,5.74,0,0,1,171.07,70.6Zm1.47-10.19s-3.78-8.34,1.94-11.57C174.47,48.84,178.11,54.39,172.53,60.41Z" transform="translate(-1.01 -1.87)"/><path class="be653e24-249d-41cd-bce4-aa1faa313148" d="M35.62,11.89c-7.83,1.46-16.67,12-19.81,20.55a26.81,26.81,0,0,0-.69,15.71S5.74,44.85,5,33.19C3.85,15.86,31.45,3.82,39.73,6.08c2,.54,10.39,8.66,5.47,22.71-4.05,11.58-13.66,40.12-8.92,49.32a58.26,58.26,0,0,0,9.35-9.78C57.11,53.72,62.82,32.71,59,26.34c0,0,9.64,0,10.65,8.12S59.59,74.51,33.38,91c-9.38-5.33-9.5-23.53-7.86-35.76,2.28-17,7.61-31.45,9.64-37S35.62,11.89,35.62,11.89Z" transform="translate(-1.01 -1.87)"/><path class="be653e24-249d-41cd-bce4-aa1faa313148" d="M70.9,74.92c-.31-3.3,0-10.61,5.68-22.53a1.35,1.35,0,0,0-.35-1.62,6.56,6.56,0,0,0-7.8-.69c-3.15,1.8-6.67,17.4-4.53,21.69A10,10,0,0,0,69,76.29,1.35,1.35,0,0,0,70.9,74.92Z" transform="translate(-1.01 -1.87)"/><path class="be653e24-249d-41cd-bce4-aa1faa313148" d="M137.38,84.36c-10.27-3.82-38.39,5.49-50,10-1.65.65-3.61,1.34-5.8,2q-.66,3.73-1.56,8.41c1.81-.39,3.84-.74,6.16-1.06l.63-4.8s2-.86,4.31,2a25.37,25.37,0,0,0-4,13.21l-2.29.29.86-5.45s-1.22-1.11-6.62.81q-1.23,6.22-2.86,13.84c-6,28.14-16.37,43.64-27.85,40.48-10.34-3.73-16.37-42.78-3.16-50.25,9.71-5.49,8.56,4.54,7.27,10.24a.7.7,0,0,1-1.38-.05c-.49-3.14-1.42-7.06-3-6.17-2.58,1.44-5.17,29.29,3.45,39.91,5.57,6.88,12.71-21.86,17.06-43q-2.17,1.23-4.71,2.79s-.86-6.32,4-8.61c.68-.32,1.36-.63,2-.93.66-3.44,1.22-6.45,1.64-8.8-14.66,3.71-32,6-34.41,0-2.27-5.67,4.55-10.59,9.47-13.3a.68.68,0,0,1,.8,1.09c-5.57,5.38-11.51,14.21,26.68,1.45,1.49-2.78,4.36-5.77,9.85-6.76,0,0-.15,1.2-.52,3.62,22.47-7.18,36.2-7.85,44.54-6.32,5.13.94,8.22,2.71,10,4.3A.59.59,0,0,1,137.38,84.36Z" transform="translate(-1.01 -1.87)"/><path class="be653e24-249d-41cd-bce4-aa1faa313148" d="M122,101.58a.72.72,0,0,1-.85.48c-1.45-.34-4.82-1.31-5.31-3-.63-2.2,1.89-6.64,4.4-7.57a14.38,14.38,0,0,1,9.39.5.72.72,0,0,1-.06,1.34C127.44,94,123.72,96,122,101.58Z" transform="translate(-1.01 -1.87)"/><path class="be653e24-249d-41cd-bce4-aa1faa313148" d="M158.41,100.36a.88.88,0,0,1-1.06.6c-1.53-.39-4.67-1.4-5.14-3.13-.63-2.3,1.89-7,4.4-7.93a13.81,13.81,0,0,1,9.09.39.88.88,0,0,1,0,1.64C163.56,92.74,160.1,94.88,158.41,100.36Z" transform="translate(-1.01 -1.87)"/><path class="be653e24-249d-41cd-bce4-aa1faa313148" d="M121.31,106.28a6.79,6.79,0,0,0-8.58-1.43c-2.24,1.28-4.66,9.51-5.11,15.72h0c-1.54,1.36-5.14,4.25-5.14,1.39,0-3.63,3-8,2.36-9.47s-5-1.58-6.6-4.89a9.81,9.81,0,0,0,1.26-6.95c-.63-4.42-5.66-3.79-7.55,0s-2.91,7.87.1,11.71a34.52,34.52,0,0,1-5.2,8.87S88.32,123.7,95,114l.38.18,2.52.63s-5.73,11.74-.61,14c4,1.77,8.49-3.19,10.25-6.75a10.2,10.2,0,0,0,.65,4.4c1.48,3,4.71,4.33,6.58,4.89a.82.82,0,0,0,1-.94C115.23,127.61,114.72,119.83,121.31,106.28ZM97,106.81c-2.43-3.8-1.1-6.79-1.1-6.79C98.31,101.61,97,106.81,97,106.81Z" transform="translate(-1.01 -1.87)"/><path class="be653e24-249d-41cd-bce4-aa1faa313148" d="M157.45,106c-6.25,13.69-6.17,21.65-5.75,24.71a.93.93,0,0,1-1.26,1,11.28,11.28,0,0,1-4.65-3.19c-1.44,2.47-3.82,4.81-7.43,3.76-6.87-2-10.31-12.31-10.31-12.31a29.72,29.72,0,0,0,.13,11.33A1.24,1.24,0,0,1,127,132.8c-5.48.14-7.64-2.37-8.45-4a3.6,3.6,0,0,1-.37-2c1.76-15.89,6.44-22.83,6.44-22.83a8.41,8.41,0,0,1,6.67-1.3.77.77,0,0,1,.51,1.08,26.58,26.58,0,0,0-2.58,9,39.92,39.92,0,0,0,4-4.06,28.67,28.67,0,0,0,3.41-5.09c5.09-.7,6.87,4.33,6.87,4.33-6.29,7.08-10.65,9-10.65,9,4.26,6.19,8.41,7.62,11.22,7.69-.8-6.09,2.27-19.06,5.06-20.73a6.41,6.41,0,0,1,8.12,1A.93.93,0,0,1,157.45,106Z" transform="translate(-1.01 -1.87)"/><path class="be653e24-249d-41cd-bce4-aa1faa313148" d="M168.41,88.67h-.62a19.5,19.5,0,0,1-11.92-4.17l-1.42.54a19.07,19.07,0,0,1-6.51,1.29A12.54,12.54,0,0,1,142.41,85a18.94,18.94,0,0,1-4.26-2.86l-.08-.07a7.88,7.88,0,0,1-3.22.72,6.07,6.07,0,0,1-1.39-.16l-.56-.13-.52-.25a17.91,17.91,0,0,1-3.62-2.29,16.85,16.85,0,0,1-2.14,2.68L125.12,84l-2.07.07h-.34a10.16,10.16,0,0,1-7-2.79,11.7,11.7,0,0,1-6.67,2.24,9.57,9.57,0,0,1-3.91-.83,8.59,8.59,0,0,1-4.65-5,10.59,10.59,0,0,1-.54-2.28c-.95.86-1.92,1.68-2.9,2.46a31.58,31.58,0,0,1-5.61,3.6,15.21,15.21,0,0,1-6.75,1.7,12.5,12.5,0,0,1-5.55-1.37,18.81,18.81,0,0,1-4.25-2.86,17.81,17.81,0,0,1-3.23-3.77,9.14,9.14,0,0,1-1.56-5.86,30.23,30.23,0,0,1,1.35-6.57,36.92,36.92,0,0,1,2.54-6,43,43,0,0,1,3.28-5.24A31.39,31.39,0,0,1,81.22,47a22.64,22.64,0,0,1,4.35-3.21,11.47,11.47,0,0,1,5.56-1.58,11.76,11.76,0,0,1,5.94,1.63,15.48,15.48,0,0,1,1.68,1.12,10.23,10.23,0,0,1,7.66-3.68c4.39,0,7.77,3.08,8.43,7.67a16.8,16.8,0,0,1-.21,6.15l.24.1c.38.16.81.35,1.25.57a27.72,27.72,0,0,0,.17-5.38,6.45,6.45,0,0,1,7.65-6.82c5.17,1,8,3.36,9.39,5.15a7.21,7.21,0,0,1,4.39,1.81A25.51,25.51,0,0,1,141,54a30.33,30.33,0,0,1,3.48-3.87,22.42,22.42,0,0,1,4.34-3.21,11.46,11.46,0,0,1,5.56-1.58A11.76,11.76,0,0,1,160.3,47a15.35,15.35,0,0,1,2.7,2,14.36,14.36,0,0,1,5.07-4.77A10.51,10.51,0,0,1,173.59,43a19.36,19.36,0,0,1,5.74.84,10.5,10.5,0,0,1,6,5.55c1.11,2.36,2,6.36-.11,12a18.83,18.83,0,0,1-3,5,22.73,22.73,0,0,1,.73,2.94c.57,3.15.48,9.75-3.48,14.5a13.84,13.84,0,0,1-11.1,4.88Z" transform="translate(-1.01 -1.87)"/><path class="be653e24-249d-41cd-bce4-aa1faa313148" d="M32.16,97.1C19.16,89.72,20.23,67.36,21.5,57l-6.73-2.36C14.25,54.45,2,50,1.06,35,.63,28.47,3.22,22,8.54,16.36c8.39-9,22.23-14.49,30.25-14.49a14.42,14.42,0,0,1,3.78.46c2.82.77,6,3.9,8.17,8a24.56,24.56,0,0,1,2.77,12.12l6.91,0c5,0,14.7,2.68,16,12.81S65.64,79.37,37.66,97L35,98.68ZM53.19,26A33.2,33.2,0,0,1,51.69,32c-2.25,6.44-8.08,23.81-9.63,35.44l.78-1c11.84-15.07,14.66-33.07,13-35.92ZM29.06,24.88a35.18,35.18,0,0,0-6.78,10.84A21.49,21.49,0,0,0,21.67,48l.8,2.56A175.29,175.29,0,0,1,29.06,24.88Z" transform="translate(-1.01 -1.87)"/><path class="be653e24-249d-41cd-bce4-aa1faa313148" d="M71,83.19a6.67,6.67,0,0,1-2.63-.54,15.12,15.12,0,0,1-7.83-7.06c-2.11-4.22-1-11.4-.17-15.31,1.56-7.21,3.86-11.73,6.83-13.43a11.87,11.87,0,0,1,13.88,1.21,6.71,6.71,0,0,1,1.79,8c-5.3,11.18-5.39,17.53-5.18,19.74A6.72,6.72,0,0,1,71,83.19Z" transform="translate(-1.01 -1.87)"/><path class="be653e24-249d-41cd-bce4-aa1faa313148" d="M52.66,171.37a16.42,16.42,0,0,1-4.35-.6l-.2-.06-.2-.07c-8.8-3.18-13.06-17.87-14-29.49-1.8-21.35,6.44-28.42,10.06-30.47q1-.56,1.94-1c-4.13-.31-10.15-1.6-12.31-7-1.65-4.13-2.3-12.21,11.87-20a6,6,0,0,1,8.52,3,6,6,0,0,1-.1,4.77A157.16,157.16,0,0,0,72,85.47a18.63,18.63,0,0,1,12.43-7.55l7.16-1.28-.33,2.67c11.61-3.22,21.68-4.85,30-4.85a50.88,50.88,0,0,1,9.1.76c5.26,1,9.5,2.83,12.6,5.53a5.88,5.88,0,0,1,1.66,6.55,5.94,5.94,0,0,1-7.67,3.5,13.21,13.21,0,0,0-4.44-.56c-9.65,0-25.59,4.76-36.08,8.47l.3.36,2.51,3.14-2.31,3.29a20.19,20.19,0,0,0-3.05,10.13v4.74l-10,1.25q-.48,2.29-1,4.61c-6.24,29.1-16.95,45.12-30.16,45.13Zm-.26-39.91c-.29,6.38.17,14.66,2.42,20.41,1.59-3.65,4-10.78,7.24-24.52L61,128l-1-7.47a38.65,38.65,0,0,1-1,6.28,6,6,0,0,1-5.91,4.72A6.26,6.26,0,0,1,52.39,131.46Zm3-22a8.1,8.1,0,0,1,2.41,2,10.33,10.33,0,0,1,2.07,5,13.8,13.8,0,0,1,3.39-8.16C60.71,108.78,58,109.18,55.39,109.45ZM47.8,91.1Z" transform="translate(-1.01 -1.87)"/><path class="be653e24-249d-41cd-bce4-aa1faa313148" d="M122.72,108.87a6.09,6.09,0,0,1-1.4-.16c-5.19-1.23-8.3-3.51-9.23-6.77-1.41-4.93,2.54-12.17,7.7-14.07a16.17,16.17,0,0,1,5.6-.9,19.76,19.76,0,0,1,7.86,1.55,6.08,6.08,0,0,1-.55,11.3c-1.36.47-3.2,1.68-4.19,4.82A6.05,6.05,0,0,1,122.72,108.87Z" transform="translate(-1.01 -1.87)"/><path class="be653e24-249d-41cd-bce4-aa1faa313148" d="M159,107.77a6.23,6.23,0,0,1-1.55-.2c-5.06-1.3-8.08-3.63-9-6.92-1.37-5,2.56-12.38,7.64-14.35a15.71,15.71,0,0,1,5.68-1,19.72,19.72,0,0,1,7.44,1.42A6.25,6.25,0,0,1,169,98.34c-1.31.51-3.09,1.8-4.09,5A6.22,6.22,0,0,1,159,107.77Z" transform="translate(-1.01 -1.87)"/><path class="be653e24-249d-41cd-bce4-aa1faa313148" d="M116.46,138.25a6.17,6.17,0,0,1-1.79-.27,17.46,17.46,0,0,1-7.4-4.28,11.77,11.77,0,0,1-6.79,2.33,9.56,9.56,0,0,1-3.92-.83,8.59,8.59,0,0,1-4.64-5,10.62,10.62,0,0,1-.54-2.3,7.05,7.05,0,0,1-2.44.44,6.12,6.12,0,0,1-5.25-2.88l-1.92-3.18,2.31-2.91a31.52,31.52,0,0,0,3.37-5.18c-1.93-4.21-1.56-9.05,1.13-14.46a10.58,10.58,0,0,1,9.22-6.05c4.39,0,7.77,3.09,8.43,7.69a16.88,16.88,0,0,1-.22,6.19l.82.36c1.13-2.72,2.65-5.1,4.67-6.25a12.22,12.22,0,0,1,6.11-1.69,12.7,12.7,0,0,1,9.25,4.34l2.22,2.66-1.52,3.12c-6.08,12.5-5.41,19.07-5.06,20.78a6.18,6.18,0,0,1-6.05,7.42Z" transform="translate(-1.01 -1.87)"/><path class="be653e24-249d-41cd-bce4-aa1faa313148" d="M128,139.6c-8.35,0-11.72-4.81-12.78-6.88a9,9,0,0,1-.93-5.08c1.85-16.71,6.77-24.41,7.32-25.24l.62-.92.94-.6a14.44,14.44,0,0,1,7.75-2.36,12.73,12.73,0,0,1,3.13.38,6.06,6.06,0,0,1,2.14,1l1.16-.16a12.39,12.39,0,0,1,1.68-.12,11,11,0,0,1,7.11,2.54,7.21,7.21,0,0,1,1.67-1.43A12,12,0,0,1,154,99a12.22,12.22,0,0,1,8.4,3.55,6.3,6.3,0,0,1,1.35,7.14c-5.91,12.95-5.57,19.93-5.32,21.77a6.29,6.29,0,0,1-8.46,6.72,18.27,18.27,0,0,1-2.11-1,10.75,10.75,0,0,1-6.37,2.13,11.51,11.51,0,0,1-3.22-.47,15,15,0,0,1-4.42-2.14l-.24.33a6.58,6.58,0,0,1-5.08,2.57Z" transform="translate(-1.01 -1.87)"/><path class="edb846e6-a784-4080-a95a-6a36df4874d7" d="M178.81,58.07c2.34-6.27-.12-9.72-2.68-10.61-1.77-.62-5.6-.77-6.74-.09-7,4.18-3.4,10-.19,15.61l-.69.59c-1.25,1.06-2.64,2.15-4.14,3.28-1,.78-2.09,1.54-3.2,2.3a19.1,19.1,0,0,1,1.74-4.72c-3.3.16-6.34,3.27-7.45,5.07a5.94,5.94,0,0,0-.84,3.75,38.15,38.15,0,0,1-4.51,2.1,11.45,11.45,0,0,1-4.08.85,1.34,1.34,0,0,1-1.24-.64,3,3,0,0,1-.36-1.69,11.81,11.81,0,0,1,.39-2.48,31,31,0,0,1,1-3.05,8.37,8.37,0,0,0,1.72.45,13.66,13.66,0,0,0,2.14.15,7.74,7.74,0,0,0,4.05-1.21,18.51,18.51,0,0,0,3.63-2.87A17.22,17.22,0,0,0,160,61.35a8.21,8.21,0,0,0,1.18-3.11,6.8,6.8,0,0,0-.58-2.84,11.24,11.24,0,0,0-1.75-2.93,9.77,9.77,0,0,0-2.69-2.27,6.45,6.45,0,0,0-3.26-.91,6.21,6.21,0,0,0-3,.91,17,17,0,0,0-3.3,2.45,25.54,25.54,0,0,0-3.23,3.69,37.29,37.29,0,0,0-2.87,4.59,31.56,31.56,0,0,0-2.18,5.17,24.65,24.65,0,0,0-.85,3.4h0c-.77.9-1.57,1.37-2.39,1.07,0,0-2.36-3.77,1.1-13.36a19.28,19.28,0,0,0-3.51-4.13,1.8,1.8,0,0,0-2.19-.18A7.46,7.46,0,0,0,127.76,57a28,28,0,0,0,.47-5.65s-1.21-3-6.73-4a1.09,1.09,0,0,0-1.29,1.15c.22,2.92.21,10.21-3.9,19.5-1.49,1.32-5.22,4.35-5.22,1.45,0-3.62,3-8,2.36-9.43s-5-1.57-6.6-4.87a9.74,9.74,0,0,0,1.26-6.92c-.63-4.4-5.66-3.77-7.55,0s-2.94,8,.25,11.85q-.94,1.07-2,2.19-1.82,2-3.84,3.9a39.37,39.37,0,0,1-4.11,3.45,24,24,0,0,1-4.14,2.45A9.47,9.47,0,0,1,82.8,73a1.35,1.35,0,0,1-1.24-.63,3,3,0,0,1-.36-1.69,11.56,11.56,0,0,1,.39-2.48,30.72,30.72,0,0,1,1-3.05,8.6,8.6,0,0,0,1.72.45,13.21,13.21,0,0,0,2.14.15,7.72,7.72,0,0,0,4-1.21,18.3,18.3,0,0,0,3.63-2.87,17.19,17.19,0,0,0,2.69-3.51A8.23,8.23,0,0,0,98,55.07a6.78,6.78,0,0,0-.58-2.84,11.26,11.26,0,0,0-1.75-2.93A9.83,9.83,0,0,0,93,47a6.45,6.45,0,0,0-3.26-.91,6.21,6.21,0,0,0-3,.91,17.16,17.16,0,0,0-3.3,2.45,25.93,25.93,0,0,0-3.23,3.69,37.56,37.56,0,0,0-2.87,4.59,31.46,31.46,0,0,0-2.18,5.17A24.76,24.76,0,0,0,74,68.37a3.93,3.93,0,0,0,.75,2.48,12.42,12.42,0,0,0,2.27,2.63,13.4,13.4,0,0,0,3.06,2.06,7.17,7.17,0,0,0,3.17.82,9.91,9.91,0,0,0,4.38-1.15,26.15,26.15,0,0,0,4.65-3,52.78,52.78,0,0,0,4.54-4q2.21-2.21,4-4.35Q102,62.48,103,61.29l1,.48,2.52.63s-5.73,11.7-.61,14c3.36,1.49,7.13-1.84,9.27-5.05.55,1.63,2.39,6.11,6.24,6,0,0,4.24-4.11,5.05-12.76a11.13,11.13,0,0,0,0,1.43h0a11.69,11.69,0,0,0,6.74,10s1.54.36,4.29-2.78A6.83,6.83,0,0,0,138,74a12.42,12.42,0,0,0,2.27,2.63,13.52,13.52,0,0,0,3.06,2.06,7.21,7.21,0,0,0,3.17.81,14,14,0,0,0,4.69-1,49.09,49.09,0,0,0,4.61-1.94c1.77,2.8,5.42,5.09,10.72,5.27,9.75.31,10.38-9.59,9.75-13.05a12.82,12.82,0,0,0-1.9-5.13A14.1,14.1,0,0,0,178.81,58.07ZM150,59.75a31.6,31.6,0,0,1,2-3.08,14.49,14.49,0,0,1,1.87-2.12,2.48,2.48,0,0,1,1.54-.79q.91,0,.76,1.3a7.3,7.3,0,0,1-1.21,3,15.29,15.29,0,0,1-2.84,3.23A9.32,9.32,0,0,1,148,63.38Q148.93,61.51,150,59.75ZM86.73,56.58a32.36,32.36,0,0,1,2-3.08,14.68,14.68,0,0,1,1.88-2.12,2.5,2.5,0,0,1,1.54-.79q.91,0,.76,1.3a7.37,7.37,0,0,1-1.21,3,15.28,15.28,0,0,1-2.84,3.23,9.35,9.35,0,0,1-4.14,2.12Q85.7,58.33,86.73,56.58Zm18.85-2.19c-1.73-2.52-1.1-6.76-1.1-6.76A8.44,8.44,0,0,1,105.59,54.39ZM171.07,70.6c-.6,2.24-2.52,4.1-5.83,4.1a4.21,4.21,0,0,1-3.49-1.29l.9-.56a43.46,43.46,0,0,0,5.12-3.72c1.13-1,2.3-1.85,3.28-2.66A5.74,5.74,0,0,1,171.07,70.6Zm1.47-10.19s-3.78-8.34,1.94-11.57C174.47,48.84,178.11,54.39,172.53,60.41Z" transform="translate(-1.01 -1.87)"/><path class="edb846e6-a784-4080-a95a-6a36df4874d7" d="M35.62,11.89c-7.83,1.46-16.67,12-19.81,20.55a26.81,26.81,0,0,0-.69,15.71S5.74,44.85,5,33.19C3.85,15.86,31.45,3.82,39.73,6.08c2,.54,10.39,8.66,5.47,22.71-4.05,11.58-13.66,40.12-8.92,49.32a58.26,58.26,0,0,0,9.35-9.78C57.11,53.72,62.82,32.71,59,26.34c0,0,9.64,0,10.65,8.12S59.59,74.51,33.38,91c-9.38-5.33-9.5-23.53-7.86-35.76,2.28-17,7.61-31.45,9.64-37S35.62,11.89,35.62,11.89Z" transform="translate(-1.01 -1.87)"/><path class="edb846e6-a784-4080-a95a-6a36df4874d7" d="M70.9,74.92c-.31-3.3,0-10.61,5.68-22.53a1.35,1.35,0,0,0-.35-1.62,6.56,6.56,0,0,0-7.8-.69c-3.15,1.8-6.67,17.4-4.53,21.69A10,10,0,0,0,69,76.29,1.35,1.35,0,0,0,70.9,74.92Z" transform="translate(-1.01 -1.87)"/><path class="edb846e6-a784-4080-a95a-6a36df4874d7" d="M137.38,84.36c-10.27-3.82-38.39,5.49-50,10-1.65.65-3.61,1.34-5.8,2q-.66,3.73-1.56,8.41c1.81-.39,3.84-.74,6.16-1.06l.63-4.8s2-.86,4.31,2a25.37,25.37,0,0,0-4,13.21l-2.29.29.86-5.45s-1.22-1.11-6.62.81q-1.23,6.22-2.86,13.84c-6,28.14-16.37,43.64-27.85,40.48-10.34-3.73-16.37-42.78-3.16-50.25,9.71-5.49,8.56,4.54,7.27,10.24a.7.7,0,0,1-1.38-.05c-.49-3.14-1.42-7.06-3-6.17-2.58,1.44-5.17,29.29,3.45,39.91,5.57,6.88,12.71-21.86,17.06-43q-2.17,1.23-4.71,2.79s-.86-6.32,4-8.61c.68-.32,1.36-.63,2-.93.66-3.44,1.22-6.45,1.64-8.8-14.66,3.71-32,6-34.41,0-2.27-5.67,4.55-10.59,9.47-13.3a.68.68,0,0,1,.8,1.09c-5.57,5.38-11.51,14.21,26.68,1.45,1.49-2.78,4.36-5.77,9.85-6.76,0,0-.15,1.2-.52,3.62,22.47-7.18,36.2-7.85,44.54-6.32,5.13.94,8.22,2.71,10,4.3A.59.59,0,0,1,137.38,84.36Z" transform="translate(-1.01 -1.87)"/><path class="edb846e6-a784-4080-a95a-6a36df4874d7" d="M122,101.58a.72.72,0,0,1-.85.48c-1.45-.34-4.82-1.31-5.31-3-.63-2.2,1.89-6.64,4.4-7.57a14.38,14.38,0,0,1,9.39.5.72.72,0,0,1-.06,1.34C127.44,94,123.72,96,122,101.58Z" transform="translate(-1.01 -1.87)"/><path class="edb846e6-a784-4080-a95a-6a36df4874d7" d="M158.41,100.36a.88.88,0,0,1-1.06.6c-1.53-.39-4.67-1.4-5.14-3.13-.63-2.3,1.89-7,4.4-7.93a13.81,13.81,0,0,1,9.09.39.88.88,0,0,1,0,1.64C163.56,92.74,160.1,94.88,158.41,100.36Z" transform="translate(-1.01 -1.87)"/><path class="edb846e6-a784-4080-a95a-6a36df4874d7" d="M121.31,106.28a6.79,6.79,0,0,0-8.58-1.43c-2.24,1.28-4.66,9.51-5.11,15.72h0c-1.54,1.36-5.14,4.25-5.14,1.39,0-3.63,3-8,2.36-9.47s-5-1.58-6.6-4.89a9.81,9.81,0,0,0,1.26-6.95c-.63-4.42-5.66-3.79-7.55,0s-2.91,7.87.1,11.71a34.52,34.52,0,0,1-5.2,8.87S88.32,123.7,95,114l.38.18,2.52.63s-5.73,11.74-.61,14c4,1.77,8.49-3.19,10.25-6.75a10.2,10.2,0,0,0,.65,4.4c1.48,3,4.71,4.33,6.58,4.89a.82.82,0,0,0,1-.94C115.23,127.61,114.72,119.83,121.31,106.28ZM97,106.81c-2.43-3.8-1.1-6.79-1.1-6.79C98.31,101.61,97,106.81,97,106.81Z" transform="translate(-1.01 -1.87)"/><path class="edb846e6-a784-4080-a95a-6a36df4874d7" d="M157.45,106c-6.25,13.69-6.17,21.65-5.75,24.71a.93.93,0,0,1-1.26,1,11.28,11.28,0,0,1-4.65-3.19c-1.44,2.47-3.82,4.81-7.43,3.76-6.87-2-10.31-12.31-10.31-12.31a29.72,29.72,0,0,0,.13,11.33A1.24,1.24,0,0,1,127,132.8c-5.48.14-7.64-2.37-8.45-4a3.6,3.6,0,0,1-.37-2c1.76-15.89,6.44-22.83,6.44-22.83a8.41,8.41,0,0,1,6.67-1.3.77.77,0,0,1,.51,1.08,26.58,26.58,0,0,0-2.58,9,39.92,39.92,0,0,0,4-4.06,28.67,28.67,0,0,0,3.41-5.09c5.09-.7,6.87,4.33,6.87,4.33-6.29,7.08-10.65,9-10.65,9,4.26,6.19,8.41,7.62,11.22,7.69-.8-6.09,2.27-19.06,5.06-20.73a6.41,6.41,0,0,1,8.12,1A.93.93,0,0,1,157.45,106Z" transform="translate(-1.01 -1.87)"/><path class="991f6de4-bd4e-49b6-a354-21f117e5150e" d="M41.72,31.83c-.23,1-.47,2-.73,3s-.64,1.93-.95,2.9l-2,5.74c-1.3,3.82-2.53,7.64-3.47,11.53a73.59,73.59,0,0,0-2,11.78,58.74,58.74,0,0,0,.25,12,35.55,35.55,0,0,1-1.92-12.11,52.08,52.08,0,0,1,1.6-12.23,75.19,75.19,0,0,1,4-11.61c.81-1.87,1.68-3.72,2.58-5.54l1.37-2.72Q41.06,33.22,41.72,31.83Z" transform="translate(-1.01 -1.87)"/><path class="991f6de4-bd4e-49b6-a354-21f117e5150e" d="M63.13,29.78a3.32,3.32,0,0,1,3.43.83,3.28,3.28,0,0,1,.59.77,4.52,4.52,0,0,1,.26.42l.17.44a7.19,7.19,0,0,1,.31.9l.16.91a18.83,18.83,0,0,1-.59,7.06,37.14,37.14,0,0,1-2.33,6.51,38,38,0,0,1-3.36,6c.45-2.28,1.21-4.41,1.8-6.59.29-1.09.7-2.14.95-3.23s.67-2.13.87-3.21l.41-1.6c.13-.53.18-1.07.29-1.61l.16-.8.07-.8a11,11,0,0,0,.09-1.58l0-.78c0-.26-.09-.49-.13-.74l-.06-.38a3.13,3.13,0,0,0-.13-.34,2.59,2.59,0,0,0-.31-.66A3.2,3.2,0,0,0,63.13,29.78Z" transform="translate(-1.01 -1.87)"/><path class="e029191c-2bc2-44ac-8d8c-1b3145cc3fad" d="M15.13,51.23s-19.62-28,20.49-39.34C35.62,11.89,16.15,19.57,15.13,51.23Z" transform="translate(-1.01 -1.87)"/><path class="e029191c-2bc2-44ac-8d8c-1b3145cc3fad" d="M59,26.34a7.18,7.18,0,0,1,7.2,6.16C67.56,39,66.61,59,33.38,91A68.39,68.39,0,0,0,60.45,67.37c3.23-4.89,3.15-8.8,5.06-15.46.54-1.88,3.88-5.44,4.22-7C74.73,21.19,59,26.34,59,26.34Z" transform="translate(-1.01 -1.87)"/><path class="e029191c-2bc2-44ac-8d8c-1b3145cc3fad" d="M68.42,50.08l3.9,1.48S66.76,60.5,69,76.29l1.88-1.37,7.54-25.06-4.43-2Z" transform="translate(-1.01 -1.87)"/><path class="e029191c-2bc2-44ac-8d8c-1b3145cc3fad" d="M92.17,50.59l-3-1.3s-4.66,3.44-7.65,11.12A28.28,28.28,0,0,0,79.22,71c0,1.18,2.35,1.41,2.35,1.41l1-7.22S81.5,62.77,81.8,62s2.93-1.82,2.93-1.82Z" transform="translate(-1.01 -1.87)"/><path class="e029191c-2bc2-44ac-8d8c-1b3145cc3fad" d="M113.45,60l-3.68-.65s-4.43,9.53-1.36,12.94l3.83-1.65,3.66-5.84Z" transform="translate(-1.01 -1.87)"/><path class="e029191c-2bc2-44ac-8d8c-1b3145cc3fad" d="M136.24,57.22,132.6,55.5S129,66.37,133.81,71.55a3.45,3.45,0,0,0,3.73-2c1.45-2.62-.45-9.18-.45-9.18Z" transform="translate(-1.01 -1.87)"/><path class="e029191c-2bc2-44ac-8d8c-1b3145cc3fad" d="M126.52,66l.15-4.22S123.45,72.58,120.34,75l1.1,2.3,3.22-1.61Z" transform="translate(-1.01 -1.87)"/><path class="e029191c-2bc2-44ac-8d8c-1b3145cc3fad" d="M161.21,58.24s-5.59,10.8-16.67,8.28c0,0-4.34,4.94-2.77,8.56s8.34.26,8.34.26l.73-3.28,9.82-8.81Z" transform="translate(-1.01 -1.87)"/><path class="e029191c-2bc2-44ac-8d8c-1b3145cc3fad" d="M174.47,48.84h0s7.68,7.56-1.94,11.57l.71-5Z" transform="translate(-1.01 -1.87)"/><path class="e029191c-2bc2-44ac-8d8c-1b3145cc3fad" d="M171,66.47s3,7.36-.57,9.88-11.08-1.76-11.08-1.76l5.54-2.52Z" transform="translate(-1.01 -1.87)"/><path class="e029191c-2bc2-44ac-8d8c-1b3145cc3fad" d="M51.9,165.27S71,155.74,76.07,111.14L79,109.85l.46,7.07-2,14-4.09,16.34s-4.77,7.15-5.45,8.51-5.79,9.19-6.81,9.53S51.9,165.27,51.9,165.27Z" transform="translate(-1.01 -1.87)"/><path class="e029191c-2bc2-44ac-8d8c-1b3145cc3fad" d="M81.55,96.45l-2.76-2.67s47.74-19.18,58.59-9.42L126.45,86,99.56,90.72Z" transform="translate(-1.01 -1.87)"/><path class="e029191c-2bc2-44ac-8d8c-1b3145cc3fad" d="M71.51,99.32l-4.3-2.13s-23.12,9-30.11,2.1l-.87,5,15.66,2.38s10.89-1,12.94-1.7S71.51,99.32,71.51,99.32Z" transform="translate(-1.01 -1.87)"/><path class="e029191c-2bc2-44ac-8d8c-1b3145cc3fad" d="M97,106.81a12.21,12.21,0,0,0,4.63,6s-3.74,10.21-1.7,12.94,7.72-5.22,7.72-5.22l-1.94-4-.34-6.47-3.06-2.72Z" transform="translate(-1.01 -1.87)"/><path class="e029191c-2bc2-44ac-8d8c-1b3145cc3fad" d="M121.31,106.28l-4.05,1.12s-5.28,13-2.47,24l1.79,2.18,1-2.12-.59-4.13,2-10.63Z" transform="translate(-1.01 -1.87)"/><path class="e029191c-2bc2-44ac-8d8c-1b3145cc3fad" d="M157.68,105.79l-4.05,1.12s-5.28,13-2.47,24l1.79,2.18,1-2.12-.59-4.13,2-10.63Z" transform="translate(-1.01 -1.87)"/><path class="e029191c-2bc2-44ac-8d8c-1b3145cc3fad" d="M122.49,102.94l-3.15-1.18a13.16,13.16,0,0,1,2.17-5.51,14.27,14.27,0,0,1,4-3.36,11.15,11.15,0,0,0,2.67.3,10.84,10.84,0,0,0,1.78-.4l-2.77,5Z" transform="translate(-1.01 -1.87)"/><path class="e029191c-2bc2-44ac-8d8c-1b3145cc3fad" d="M159.11,101.47,156,100.29a13.16,13.16,0,0,1,2.17-5.51,14.27,14.27,0,0,1,4-3.36,11.15,11.15,0,0,0,2.67.3,10.84,10.84,0,0,0,1.78-.4l-2.77,5Z" transform="translate(-1.01 -1.87)"/><polygon class="e029191c-2bc2-44ac-8d8c-1b3145cc3fad" points="130.78 101.88 127.39 102.84 125.18 112.43 128.2 110.92 130.83 105.3 130.78 101.88"/><polygon class="e029191c-2bc2-44ac-8d8c-1b3145cc3fad" points="127.03 118.08 123.95 119.07 123.95 129.39 127.16 129.4 127.63 126.44 127.03 118.08"/><path class="be653e24-249d-41cd-bce4-aa1faa313148" d="M99.94,133.53c-1,1.71,0,4.38,1.78,4.76,2.34.5,5-2.42,6.84-.72,1.65,1.51.88,5.5,2.93,6.06,1.43.39,2.45-1.45,3.27-2.84s2.86-2.45,3.53-1c.49,1.09-.4,2.58.22,3.59s1.94.49,3,.38a1.76,1.76,0,0,1,1.67,1.44,1,1,0,0,0,1.66.7,2.27,2.27,0,0,0,.43-.48c.6-.94,1.29-2.22,2.28-2,.63.15,1,.89,1.59,1.22,1.61.91,3.05-1.68,4.8-2.16,2.26-.63,3.32,2.59,3.12,5.25s-.75,3.28-1,5a4.58,4.58,0,0,0,.89,3.34,2.19,2.19,0,0,0,1.41,1,2.09,2.09,0,0,0,2.21-1.73c.58-2.84-1.67-4.43-1.55-8.88,0-1.28.16-2.79,1.26-3,1.54-.35,2.41,1.92,3.6,3.13a1,1,0,0,0,1.72-.51l.61-3.13a1,1,0,0,1,1.35-.75,3.69,3.69,0,0,1,1.47,1.1,1,1,0,0,0,1.73-.36v0a1,1,0,0,1,2,0,10.36,10.36,0,0,1,.15,2.7,6.46,6.46,0,0,0,.72,3.45,1,1,0,0,0,1.88-.44,30.26,30.26,0,0,0-.65-9.18,1,1,0,0,1,.86-1.24,4,4,0,0,0,3-3.44,10.94,10.94,0,0,0-1.2-5.76,1,1,0,0,0-1-.61l-1.81,5.92-13.62,3.4L118.28,135l-17.95-2.11" transform="translate(-1.01 -1.87)"/></g><g id="17de62bd-66ba-4e22-811c-2dc1135cd663" data-name="Blue hilights"><path class="746a4e32-40d7-4832-9f67-a401ecaf8d43" d="M182.62,100.82a.11.11,0,0,0-.22,0c-.25,1.88-.85,5.85-1.44,6.91-.38.68-2.12,1-3.15,1.17a.11.11,0,0,0,0,.22c1,.2,2.74.62,3.15,1.31.61,1,1.19,5.24,1.44,7.26a.11.11,0,0,0,.22,0c.19-2,.62-6.26,1.1-7.25.34-.7,1.8-1.11,2.73-1.3a.11.11,0,0,0,0-.22c-.91-.13-2.34-.44-2.72-1.18C183.23,106.76,182.8,102.73,182.62,100.82Z" transform="translate(-1.01 -1.87)"/><path class="746a4e32-40d7-4832-9f67-a401ecaf8d43" d="M177,110a0,0,0,0,0-.09,0,13.34,13.34,0,0,1-.58,2.77c-.15.27-.85.41-1.26.47a0,0,0,0,0,0,.09c.41.08,1.1.25,1.26.52a13.15,13.15,0,0,1,.58,2.91,0,0,0,0,0,.09,0,16.06,16.06,0,0,1,.44-2.91c.14-.28.72-.44,1.09-.52a0,0,0,0,0,0-.09c-.37-.05-.94-.18-1.09-.47A14.25,14.25,0,0,1,177,110Z" transform="translate(-1.01 -1.87)"/><path class="746a4e32-40d7-4832-9f67-a401ecaf8d43" d="M174.61,103.28a.06.06,0,0,0-.12,0,18.88,18.88,0,0,1-.81,3.92c-.22.39-1.2.58-1.78.66a.06.06,0,0,0,0,.12c.58.11,1.55.35,1.79.74a18.61,18.61,0,0,1,.82,4.11.06.06,0,0,0,.12,0,22.73,22.73,0,0,1,.62-4.11c.19-.4,1-.63,1.55-.74a.06.06,0,0,0,0-.12c-.52-.07-1.33-.25-1.54-.67A20.16,20.16,0,0,1,174.61,103.28Z" transform="translate(-1.01 -1.87)"/><path class="991f6de4-bd4e-49b6-a354-21f117e5150e" d="M10.39,40.61a12.09,12.09,0,0,1-1.58-7.85,16.62,16.62,0,0,1,.95-4,12.24,12.24,0,0,1,.84-1.88,13.51,13.51,0,0,1,1-1.79,23.29,23.29,0,0,1,5.48-5.86,38.39,38.39,0,0,1,3.33-2.11,32.22,32.22,0,0,1,3.65-1.48l.12.18L21.09,18c-1,.81-1.94,1.61-2.88,2.45a30.23,30.23,0,0,0-4.81,5.78,20.81,20.81,0,0,0-2.93,6.87,15.42,15.42,0,0,0,.12,7.44Z" transform="translate(-1.01 -1.87)"/><path class="991f6de4-bd4e-49b6-a354-21f117e5150e" d="M85.11,63.57A26.28,26.28,0,0,0,88.06,62a18,18,0,0,0,2.42-1.84A17.8,17.8,0,0,0,92.59,58a25.7,25.7,0,0,0,1.89-2.75l.14,0a9.8,9.8,0,0,1-9.51,8.48Z" transform="translate(-1.01 -1.87)"/><path class="991f6de4-bd4e-49b6-a354-21f117e5150e" d="M122.32,49.87a5.2,5.2,0,0,1,2.91,2,7.37,7.37,0,0,1,1,7A5.22,5.22,0,0,1,124,61.64l-.12-.08A8.94,8.94,0,0,0,122.23,50Z" transform="translate(-1.01 -1.87)"/><path class="991f6de4-bd4e-49b6-a354-21f117e5150e" d="M146.07,63.65a6.27,6.27,0,0,1-.4-3.25,8.73,8.73,0,0,1,3.08-5.66,6.31,6.31,0,0,1,2.94-1.44l.08.12a14.54,14.54,0,0,0-5.56,10.25Z" transform="translate(-1.01 -1.87)"/><path class="991f6de4-bd4e-49b6-a354-21f117e5150e" d="M170,49.28A3.47,3.47,0,0,0,168.49,51a4.72,4.72,0,0,0-.41,2.07,11.15,11.15,0,0,0,1.36,4.22c.7,1.5,1.43,3.07,2,4.67a28.08,28.08,0,0,1,1.41,5l-.13.06-4.57-9.1a9.67,9.67,0,0,1-1.19-5,5,5,0,0,1,.92-2.4,3.44,3.44,0,0,1,2.12-1.4Z" transform="translate(-1.01 -1.87)"/><path class="991f6de4-bd4e-49b6-a354-21f117e5150e" d="M39.31,98.63a19.86,19.86,0,0,0,9.57.84,50.91,50.91,0,0,0,9.44-2.2l9.32-3.12c3.17-1,6.29-1.94,9.44-2.91s6.32-1.79,9.49-2.69,6.31-1.82,9.51-2.62l9.56-2.44c3.21-.73,6.4-1.54,9.63-2.19l0,.14L77.48,92.59c-3.15.93-6.32,1.81-9.46,2.78s-6.25,2-9.41,2.94a50,50,0,0,1-9.68,1.89,19.46,19.46,0,0,1-9.68-1.44Z" transform="translate(-1.01 -1.87)"/><path class="991f6de4-bd4e-49b6-a354-21f117e5150e" d="M49.56,116.86a2.92,2.92,0,0,0-3.12,1A7.5,7.5,0,0,0,45.07,121c-.27,1.23-.59,2.45-.8,3.7s-.46,2.47-.63,3.72c-.37,2.49-.59,5-.71,7.53s-.14,5.09-.12,7.72l-.14,0a45,45,0,0,1,1.33-23,7.42,7.42,0,0,1,1.94-3.36,3.25,3.25,0,0,1,3.69-.55Z" transform="translate(-1.01 -1.87)"/><path class="991f6de4-bd4e-49b6-a354-21f117e5150e" d="M92.72,102.11a20.63,20.63,0,0,0,.35,5.3,20.91,20.91,0,0,0,1.77,5,6,6,0,0,1-2.07-2,7.87,7.87,0,0,1-1.1-2.71A7.08,7.08,0,0,1,92.72,102.11Z" transform="translate(-1.01 -1.87)"/><path class="991f6de4-bd4e-49b6-a354-21f117e5150e" d="M115.92,105.25a15.7,15.7,0,0,0-1.81,2,10.87,10.87,0,0,0-1.23,2.19,23.92,23.92,0,0,0-.86,2.44c-.26.85-.49,1.73-.83,2.63a9,9,0,0,1,.38-5.64A5.8,5.8,0,0,1,115.92,105.25Z" transform="translate(-1.01 -1.87)"/><path class="991f6de4-bd4e-49b6-a354-21f117e5150e" d="M131.41,120a7.31,7.31,0,0,0,1.53,3.69,18.79,18.79,0,0,0,2.77,2.91,12.76,12.76,0,0,0,3.38,2,5,5,0,0,0,3.88.21,3.24,3.24,0,0,1-2,.91,6.21,6.21,0,0,1-2.21-.18,10,10,0,0,1-3.92-2,12.71,12.71,0,0,1-2.77-3.34A5.59,5.59,0,0,1,131.41,120Z" transform="translate(-1.01 -1.87)"/><path class="991f6de4-bd4e-49b6-a354-21f117e5150e" d="M153.3,104.46a6.19,6.19,0,0,0-2.74,1.6,8.31,8.31,0,0,0-1.74,2.52,16.16,16.16,0,0,0-1,3c-.25,1.06-.45,2.16-.77,3.27a13.93,13.93,0,0,1-.22-3.41,9.82,9.82,0,0,1,.79-3.41,6.83,6.83,0,0,1,2.27-2.77A4.43,4.43,0,0,1,153.3,104.46Z" transform="translate(-1.01 -1.87)"/><path class="5c3eefd6-6f44-4da3-b459-2bdd7a9e28f2" d="M57.34,69.89A21.06,21.06,0,0,1,59,66.23a29,29,0,0,1,2.18-3.35l1.53-2-.59,2.44a28.9,28.9,0,0,0-.56,3.07c-.14,1-.21,2.1-.28,3.18a11.63,11.63,0,0,1-.5-3.22,13.51,13.51,0,0,1,.32-3.27l.94.43L59.71,66.7C58.94,67.77,58.18,68.84,57.34,69.89Z" transform="translate(-1.01 -1.87)"/><path class="5c3eefd6-6f44-4da3-b459-2bdd7a9e28f2" d="M72.14,74.67a13.49,13.49,0,0,1,.24-3.92l.19-1,.73.79a17.05,17.05,0,0,1,1.32,1.6,10,10,0,0,1,1.09,1.81A10,10,0,0,1,74,72.67a17.05,17.05,0,0,1-1.48-1.45l.92-.26A13.49,13.49,0,0,1,72.14,74.67Z" transform="translate(-1.01 -1.87)"/><path class="5c3eefd6-6f44-4da3-b459-2bdd7a9e28f2" d="M123.84,76.81c.52-1.62,1.09-3.21,1.7-4.79l.26-.68.41.64a31.21,31.21,0,0,0,2,2.8,8.12,8.12,0,0,0,2.45,2.11,4.74,4.74,0,0,0,3,.46,3.14,3.14,0,0,0,2.4-1.67l.23-.51.37.38c1.16,1.18,2.3,2.39,3.4,3.64-1.34-1-2.63-2-3.91-3.09l.6-.14a3.47,3.47,0,0,1-1.15,1.57,4.54,4.54,0,0,1-1.75.79,5.52,5.52,0,0,1-3.72-.49,8.51,8.51,0,0,1-2.72-2.45,21.51,21.51,0,0,1-1.83-3l.67,0C125.47,73.84,124.68,75.33,123.84,76.81Z" transform="translate(-1.01 -1.87)"/><path class="5c3eefd6-6f44-4da3-b459-2bdd7a9e28f2" d="M84.37,78.3a35.25,35.25,0,0,0,4.87-2.14,34.12,34.12,0,0,0,4.44-2.83,32.07,32.07,0,0,0,7.22-7.57l.8-1.19.08,1.41c.19,3.49.3,7,.28,10.48-.53-3.46-.92-6.93-1.24-10.41l.88.23a26.79,26.79,0,0,1-7.45,7.83,26.18,26.18,0,0,1-4.73,2.63A24,24,0,0,1,84.37,78.3Z" transform="translate(-1.01 -1.87)"/><path class="5c3eefd6-6f44-4da3-b459-2bdd7a9e28f2" d="M182.28,56a12.59,12.59,0,0,1-.51,2.54,13.53,13.53,0,0,1-1,2.43,15.08,15.08,0,0,1-3.23,4.16l.09-.59A13.86,13.86,0,0,1,179,77.11a13.41,13.41,0,0,1-3.78,5.25,12.72,12.72,0,0,1-5.69,2.84,14.78,14.78,0,0,0,5.24-3.33A13.64,13.64,0,0,0,176.89,65l-.21-.35.3-.24a14.49,14.49,0,0,0,3.32-3.75,16.92,16.92,0,0,0,1.18-2.25A17.23,17.23,0,0,0,182.28,56Z" transform="translate(-1.01 -1.87)"/><path class="5c3eefd6-6f44-4da3-b459-2bdd7a9e28f2" d="M145.83,82a14.19,14.19,0,0,0,4.64-.52,12.4,12.4,0,0,0,4.06-2l.52-.4.29.58A9.63,9.63,0,0,0,158,82.84,10.69,10.69,0,0,0,159.81,84a10.34,10.34,0,0,0,2.06.79,7.64,7.64,0,0,1-2.25-.31,8.42,8.42,0,0,1-2.1-1,8.74,8.74,0,0,1-3.14-3.43l.8.18a10.55,10.55,0,0,1-4.52,2,10.28,10.28,0,0,1-2.46.16A9.35,9.35,0,0,1,145.83,82Z" transform="translate(-1.01 -1.87)"/><path class="5c3eefd6-6f44-4da3-b459-2bdd7a9e28f2" d="M111.81,56.33c-.37-.28-.71-.58-1.06-.88l-.85-.73,1.08.44c.89.37,1.74.79,2.6,1.22s1.69.88,2.52,1.35l.32.18-.06.37c-.24,1.46-.55,2.9-.88,4.34-.18.72-.36,1.43-.56,2.15s-.42,1.42-.68,2.12c0-.75.08-1.49.12-2.23s.15-1.47.24-2.21c.2-1.46.43-2.92.73-4.37l.25.55c-.82-.48-1.63-1-2.43-1.51s-1.59-1.06-2.35-1.64l.23-.29C111.3,55.58,111.56,55.94,111.81,56.33Z" transform="translate(-1.01 -1.87)"/><path class="5c3eefd6-6f44-4da3-b459-2bdd7a9e28f2" d="M134.28,51.23a53.08,53.08,0,0,1,5.3,4.32l.23.21-.1.32c-.48,1.58-1,3.15-1.59,4.7-.29.77-.59,1.55-.92,2.31s-.67,1.52-1,2.27c.13-.83.31-1.64.48-2.45s.39-1.61.61-2.41c.44-1.6.94-3.17,1.48-4.74l.14.53A53.08,53.08,0,0,1,134.28,51.23Z" transform="translate(-1.01 -1.87)"/><path class="5c3eefd6-6f44-4da3-b459-2bdd7a9e28f2" d="M163.52,53.62A26.61,26.61,0,0,0,164.94,58a20.86,20.86,0,0,0,1,2,20,20,0,0,0,1.23,1.87l.27.37-.31.25a26.07,26.07,0,0,1-2.89,2.06,26.07,26.07,0,0,1,2.29-2.71l0,.61A11,11,0,0,1,165,60.5a11.26,11.26,0,0,1-1-2.17A9.81,9.81,0,0,1,163.52,53.62Z" transform="translate(-1.01 -1.87)"/><path class="5c3eefd6-6f44-4da3-b459-2bdd7a9e28f2" d="M151.3,60.76a4.75,4.75,0,0,1,1.13-2.06,4.69,4.69,0,0,1,1.93-1.34,4.69,4.69,0,0,1-1.13,2.06A4.75,4.75,0,0,1,151.3,60.76Z" transform="translate(-1.01 -1.87)"/><ellipse class="5c3eefd6-6f44-4da3-b459-2bdd7a9e28f2" cx="167.02" cy="71.61" rx="3.5" ry="0.4" transform="translate(-10.43 113.25) rotate(-37.06)"/><path class="5c3eefd6-6f44-4da3-b459-2bdd7a9e28f2" d="M173.36,56.82c-.2.07-.81-1.33-.63-3.17s1-3.11,1.2-3-.26,1.41-.4,3.07S173.58,56.76,173.36,56.82Z" transform="translate(-1.01 -1.87)"/><path class="5c3eefd6-6f44-4da3-b459-2bdd7a9e28f2" d="M146.59,70c.11,0,.08.41,0,1a5.72,5.72,0,0,0,0,2.06,2.28,2.28,0,0,0,1.13,1.45c.43.22.79.16.83.28s-.32.4-1,.26a2.42,2.42,0,0,1-1.73-1.8,4,4,0,0,1,.26-2.39C146.27,70.29,146.49,70,146.59,70Z" transform="translate(-1.01 -1.87)"/><path class="5c3eefd6-6f44-4da3-b459-2bdd7a9e28f2" d="M91.32,51.84c.17.15-.88,1.55-2,3.35s-2,3.33-2.17,3.25.31-1.81,1.5-3.68S91.17,51.69,91.32,51.84Z" transform="translate(-1.01 -1.87)"/><path class="5c3eefd6-6f44-4da3-b459-2bdd7a9e28f2" d="M93,63.73c.08,0-.28.86-1.34,1.8a8.5,8.5,0,0,1-5,2.08,8,8,0,0,1-1.58,0l-.7-.11c-.19,0-.12,0-.22.09a9.8,9.8,0,0,0-.78,2.13,18.11,18.11,0,0,1-.42,2.13,3.81,3.81,0,0,1-.14-2.24,8.24,8.24,0,0,1,.69-2.39.92.92,0,0,1,.39-.39,1,1,0,0,1,.54-.09l.72.09a8.08,8.08,0,0,0,1.44,0,9.25,9.25,0,0,0,4.71-1.72C92.35,64.32,92.87,63.65,93,63.73Z" transform="translate(-1.01 -1.87)"/><path class="5c3eefd6-6f44-4da3-b459-2bdd7a9e28f2" d="M116.46,76.08c-.07.06-.34-.08-.71-.36-.19-.14-.4-.32-.63-.53l-.18-.16-.09-.08,0,0s0,0,0,0,0,0,0,.07a4,4,0,0,1-1.67,1.8c-.56.3-1,.32-1,.22s1.25-.84,1.94-2.36a4.45,4.45,0,0,0,.21-.57l.2-.62.73.78.24.27.16.19c.21.25.38.47.52.66C116.41,75.75,116.53,76,116.46,76.08Z" transform="translate(-1.01 -1.87)"/><path class="5c3eefd6-6f44-4da3-b459-2bdd7a9e28f2" d="M46.57,62.78a13.38,13.38,0,0,1-1.86,3.37,42.11,42.11,0,0,1-6,7.14l-1,.92-.24.23c-.06.08-.05,0,0-.06v-.83l0-1.73,0-2.46V65.2a18.34,18.34,0,0,1,.21-3.84,18.34,18.34,0,0,1,.35,3.83l.16,4.16c0,1.35.11,4.09.09,3.32a56.26,56.26,0,0,0,6.06-6.84A29.26,29.26,0,0,1,46.57,62.78Z" transform="translate(-1.01 -1.87)"/><path class="5c3eefd6-6f44-4da3-b459-2bdd7a9e28f2" d="M34.32,13.64c.06.12-1.4.75-3.44,2.23A29.28,29.28,0,0,0,24.14,23a56.78,56.78,0,0,0-4.72,8.67,26,26,0,0,1-1.78,3.72A17.93,17.93,0,0,1,18.9,31.4a44,44,0,0,1,4.58-8.9,25.93,25.93,0,0,1,7.08-7.1A10.63,10.63,0,0,1,34.32,13.64Z" transform="translate(-1.01 -1.87)"/><path class="5c3eefd6-6f44-4da3-b459-2bdd7a9e28f2" d="M67.58,106.84c-.06,0-.15-.44-.13-1.25a8.85,8.85,0,0,1,.17-1.45c.05-.28.13-.58.22-.89l.07-.23,0-.06,0-.1-.22.07-.87.22c-.6.15-1.24.29-1.9.42-1.33.26-2.79.48-4.31.64a44.54,44.54,0,0,1-8.92,0,13.05,13.05,0,0,1-3.63-.67c0-.25,5.62.58,12.47-.14,1.5-.15,2.94-.35,4.26-.58.66-.12,1.29-.23,1.89-.36l.87-.18L69,102l-.38.86-.16.4-.08.22c-.11.29-.2.56-.27.82a12.13,12.13,0,0,0-.3,1.37A5,5,0,0,1,67.58,106.84Z" transform="translate(-1.01 -1.87)"/><path class="5c3eefd6-6f44-4da3-b459-2bdd7a9e28f2" d="M101,91.54a17.18,17.18,0,0,1-3.32,1.67,81.51,81.51,0,0,1-8.34,3.34c-.84.26-1.68.49-2.49.67-.41.09-.81.17-1.21.23l-.59.09-.23,0s0,0,0,0l-.19.88c-.08.35-.18.7-.27,1-.19.66-.41,1.26-.62,1.79-.11.27-.22.52-.32.76l-.08.18,0,.08-.08.14c0,.08.15,0,.23.07l.51,0c.64.05,1,.11,1,.16s-.35.11-1,.15l-.56,0H82.5a.42.42,0,0,1,0-.11l.2-.5.17-.44.26-.76c.18-.54.35-1.13.51-1.77.08-.32.16-.66.23-1l.1-.53.13-.76s0-.1,0-.11l.14,0,.27,0,.34-.05.57-.1c.38-.07.77-.15,1.17-.24.79-.18,1.6-.41,2.43-.66,3.3-1,6.2-2.32,8.36-3.1A17.18,17.18,0,0,1,101,91.54Z" transform="translate(-1.01 -1.87)"/><path class="5c3eefd6-6f44-4da3-b459-2bdd7a9e28f2" d="M83.82,112.56c-.06,0-.11-.23-.14-.64,0-.2,0-.45,0-.74V111a1.05,1.05,0,0,0,0-.17l0-.11-.09.05,0,0-.21.08-.88.35-.94.36c-.31.13-.37.18-.44.46s0,.8-.1,1.2-.09.81-.16,1.18a13.77,13.77,0,0,1-.48,2c-.36,1.09-.73,1.7-.82,1.66s.07-.72.28-1.81c.1-.54.22-1.19.3-1.92,0-.36.08-.74.1-1.14s0-.77.09-1.3a1.35,1.35,0,0,1,.34-.68,1.57,1.57,0,0,1,.6-.36l1-.33,2.15-.71-.09.91,0,.3,0,.22c0,.28-.08.53-.12.73C84,112.34,83.88,112.56,83.82,112.56Z" transform="translate(-1.01 -1.87)"/><path class="5c3eefd6-6f44-4da3-b459-2bdd7a9e28f2" d="M85.31,120.63c-.18-.16,1.9-2.58,3.7-6,.11-.21.23-.44.32-.63s.17-.33.13-.48c0-.33-.2-.87-.24-1.29a7.76,7.76,0,0,1,0-2.35c.24-1.32.7-2,.78-2a17,17,0,0,1-.22,2.06,9,9,0,0,0,.12,2.17c.06.43.2.75.29,1.33a1.75,1.75,0,0,1-.19.88c-.11.25-.22.45-.33.68C87.86,118.53,85.45,120.79,85.31,120.63Z" transform="translate(-1.01 -1.87)"/><path class="5c3eefd6-6f44-4da3-b459-2bdd7a9e28f2" d="M100.64,131.14a3,3,0,0,1-1.27,0,9.81,9.81,0,0,1-3.32-1,7.51,7.51,0,0,1-3.56-3.75,6.15,6.15,0,0,1-.46-3.11,8.41,8.41,0,0,1,1.17-3.12c.95-1.61,1.87-3.11,2.73-4.52l.61.44A40.42,40.42,0,0,1,91,121.41a10.78,10.78,0,0,1-2.49,1.68c-.14-.16,3.51-2.76,7.45-7.49l.61.44-2.68,4.52a7.86,7.86,0,0,0-1.09,2.83,5.51,5.51,0,0,0,.36,2.73,7.15,7.15,0,0,0,3.15,3.53,11.45,11.45,0,0,0,3.1,1.18A5.31,5.31,0,0,1,100.64,131.14Z" transform="translate(-1.01 -1.87)"/><path class="5c3eefd6-6f44-4da3-b459-2bdd7a9e28f2" d="M115.79,132.62a4.07,4.07,0,0,1-2.48.21,8,8,0,0,1-5.22-3,8.21,8.21,0,0,1-1.27-2.25,7.76,7.76,0,0,1-.33-1.14l0-.14s0,0,0,0v-.14c-.05,0-.06,0-.38.47s-.41.7-.56,1c-.28.56-.43.9-.5.88s0-.39.14-1a8,8,0,0,1,1.72-3l.14,1,.08.51c0,.08,0,.18.05.24l0,.13a7.9,7.9,0,0,0,.34,1,8.19,8.19,0,0,0,5.87,4.94C114.83,132.59,115.77,132.49,115.79,132.62Z" transform="translate(-1.01 -1.87)"/><path class="d4a4dfe6-e5c5-4eb7-81ac-d129f8050fd6" d="M102.82,107" transform="translate(-1.01 -1.87)"/><path class="5c3eefd6-6f44-4da3-b459-2bdd7a9e28f2" d="M105.36,118.65a10.7,10.7,0,0,1,.22-3.1c.13-1,.32-2.08.57-3.32l.2-1,.09-.4s0-.06,0-.05a5.73,5.73,0,0,1-.74-.13,6.91,6.91,0,0,1-1.08-.36,13.16,13.16,0,0,1-3.5-2.35l-.69-.63c-.11-.11-.21-.18-.34-.33a.78.78,0,0,1-.2-.68,4.88,4.88,0,0,1,.39-.8,6.63,6.63,0,0,0,.29-.66,15.72,15.72,0,0,0,.59-3,4.52,4.52,0,0,1-.06,3.14,6.47,6.47,0,0,1-.27.74c-.09.24-.28.55-.3.67s0,0,.05.1l.31.27.7.59a13.83,13.83,0,0,0,3.33,2.18,6.43,6.43,0,0,0,1,.32,6.61,6.61,0,0,0,1.33.19h.12s.1,0,.07.05l-.06.23-.11.46-.14.58-.22.94-.74,3.27A13.82,13.82,0,0,1,105.36,118.65Z" transform="translate(-1.01 -1.87)"/><path class="5c3eefd6-6f44-4da3-b459-2bdd7a9e28f2" d="M118.16,102.26a4.5,4.5,0,0,1,2.35.13,11,11,0,0,1,1.15.32l.52.19s0,0,0,0a14.09,14.09,0,0,1,5.21-6.94,4.78,4.78,0,0,1,2.1-1c.14.2-3.07,1.92-5.31,5.59a16.35,16.35,0,0,0-1.34,2.71l-.23.62,0,.08-.07,0-.15-.07-.29-.14-.69-.31c-.38-.16-.74-.29-1.07-.4A14.78,14.78,0,0,1,118.16,102.26Z" transform="translate(-1.01 -1.87)"/><path class="5c3eefd6-6f44-4da3-b459-2bdd7a9e28f2" d="M136,103.62c.19.08-.42,1.85-1.94,3.54a10.49,10.49,0,0,1-2.18,1.88l-.43.25c-.13.08-.35.16-.48.08s0-.14.07-.22,0,0,0-.05,0-.08,0-.09-.11,0,0,.06.1,0,.19-.13l.35-.33c.51-.49,1.22-1.16,1.93-2C134.85,105,135.75,103.52,136,103.62Z" transform="translate(-1.01 -1.87)"/><path class="5c3eefd6-6f44-4da3-b459-2bdd7a9e28f2" d="M143.2,122.5a5.19,5.19,0,0,1-2.43-.43,14.58,14.58,0,0,1-5.13-3,15,15,0,0,1-1.2-1.23.78.78,0,0,1-.26-.67.74.74,0,0,1,.45-.53l.76-.29a12,12,0,0,0,2.25-1.21c1.21-.83,1.84-1.53,1.93-1.44s-.4.9-1.59,1.89a10.16,10.16,0,0,1-2.3,1.43l-.36.15-.3.12s0,0,0,0c.35.38.73.78,1.15,1.15a17.87,17.87,0,0,0,4.8,3.09A14.11,14.11,0,0,1,143.2,122.5Z" transform="translate(-1.01 -1.87)"/><path class="5c3eefd6-6f44-4da3-b459-2bdd7a9e28f2" d="M138.49,133.53a2.5,2.5,0,0,1-1-.21,14.55,14.55,0,0,1-2.58-1.1,11.61,11.61,0,0,1-3.32-2.65,8.75,8.75,0,0,1-2.12-4.88h.79c-.05.64-.09,1.3-.09,2a26,26,0,0,0,.6,5.75c0,.23.1.4.14.71a.85.85,0,0,1-.13.54.9.9,0,0,1-.41.32,8.41,8.41,0,0,1-1.29.3,12.76,12.76,0,0,1-2.28.15,11.53,11.53,0,0,1-3.25-.53,2.83,2.83,0,0,1-1.1-.5,26,26,0,0,0,4.34.47,13.45,13.45,0,0,0,2.17-.24,9.27,9.27,0,0,0,1.13-.29c.13-.09.09,0,.1-.16s-.09-.39-.14-.6a24.36,24.36,0,0,1-.68-5.93c0-.69,0-1.37.1-2h.79a8.3,8.3,0,0,0,1.88,4.49,12,12,0,0,0,3,2.64C137.15,133,138.53,133.41,138.49,133.53Z" transform="translate(-1.01 -1.87)"/><path class="5c3eefd6-6f44-4da3-b459-2bdd7a9e28f2" d="M165.77,93.8c.08.09-.62.74-1.7,1.79a13.51,13.51,0,0,0-3.38,4.63,7.11,7.11,0,0,0-.41,1.55c0,.13,0,.25,0,.38V103s-.12,0-.18,0l-.38,0-.53-.07a11,11,0,0,1-2.64-.76c-1.44-.63-2.16-1.29-2.1-1.37a21.93,21.93,0,0,1,2.3.84,13.27,13.27,0,0,0,2.54.56l.23,0s0,0,0,0h0v-.1c0-.14,0-.29,0-.43a7.31,7.31,0,0,1,.44-1.73,11.82,11.82,0,0,1,3.75-4.77A6.88,6.88,0,0,1,165.77,93.8Z" transform="translate(-1.01 -1.87)"/><path class="5c3eefd6-6f44-4da3-b459-2bdd7a9e28f2" d="M154.78,118.13a20.35,20.35,0,0,1-.93,3.94,15.16,15.16,0,0,0-.81,4.19,16.49,16.49,0,0,0,1,5.13l.35,1,.06.17s-.1,0-.15,0l-.33,0-.62.07a11.1,11.1,0,0,1-4-.41,11.05,11.05,0,0,1-2.22-.93,10.13,10.13,0,0,1-.93-.58l-.21-.15-.15-.11-.12-.11-.06.12c0,.09-.14.26-.21.38a4.67,4.67,0,0,1-1.52,1.52c-.63.37-1,.43-1,.39s.34-.22.87-.64a5,5,0,0,0,.85-.88,4.49,4.49,0,0,0,.41-.64,3.84,3.84,0,0,0,.19-.4c.09-.23.18-.49.27-.75l.63.47.25.17.21.13c.28.18.58.35.89.51a11.11,11.11,0,0,0,2.11.81,10.7,10.7,0,0,0,2.46.37,10.56,10.56,0,0,0,1.31,0h.1l-.1-.3a16.05,16.05,0,0,1-.95-5.39,14.16,14.16,0,0,1,1-4.35A20.35,20.35,0,0,1,154.78,118.13Z" transform="translate(-1.01 -1.87)"/><path class="5c3eefd6-6f44-4da3-b459-2bdd7a9e28f2" d="M139.06,86.87a11.12,11.12,0,0,1-2.89-.27c-1.77-.24-4.2-.63-6.9-.77a28.54,28.54,0,0,0-6.86.41c-.86.16-1.57.36-2.09.39s-.81-.08-.8-.13.28-.06.75-.18,1.13-.39,2-.63a22.33,22.33,0,0,1,7-.65,42.52,42.52,0,0,1,7,1A10.1,10.1,0,0,1,139.06,86.87Z" transform="translate(-1.01 -1.87)"/><path class="5c3eefd6-6f44-4da3-b459-2bdd7a9e28f2" d="M53,154.5s-.3-.36-.71-1.09a30.18,30.18,0,0,1-1.53-3.18,42.22,42.22,0,0,1-1.73-5,44.4,44.4,0,0,1-1.65-12.72,42.22,42.22,0,0,1,.41-5.23,30.18,30.18,0,0,1,.67-3.47,4.08,4.08,0,0,1,.41-1.23c.13,0-.23,1.83-.51,4.77-.15,1.47-.23,3.22-.23,5.17a50.53,50.53,0,0,0,1.62,12.52c.5,1.88,1,3.56,1.54,4.94C52.28,152.79,53.1,154.44,53,154.5Z" transform="translate(-1.01 -1.87)"/><path class="5c3eefd6-6f44-4da3-b459-2bdd7a9e28f2" d="M63.72,128.91c-.22,0,.28-3.32,1.11-7.3l.43-2,.11-.47,0-.11h0v0a1.07,1.07,0,0,0,0-.14l-.08,0-.07,0-.27.18a8.2,8.2,0,0,1-1,.55c-.57.27-.92.35-.95.28s.26-.27.74-.62c.24-.18.53-.4.85-.66l.25-.21c.15-.13.31-.26.48-.42l1.11-1.08-.53,2.8-.4,2C64.78,125.76,63.93,129,63.72,128.91Z" transform="translate(-1.01 -1.87)"/><path class="5c3eefd6-6f44-4da3-b459-2bdd7a9e28f2" d="M69.9,148.57a5.74,5.74,0,0,1-.55,1.51c-.41.95-1.06,2.29-2,3.9a55.18,55.18,0,0,1-3.52,5.45,23.38,23.38,0,0,1-5.53,5.79A11.21,11.21,0,0,1,50.51,167a10.82,10.82,0,0,1-8.41-6.48,4.08,4.08,0,0,1-.43-1.56,13.35,13.35,0,0,1,.71,1.43A11.57,11.57,0,0,0,45,163.7a10.44,10.44,0,0,0,5.62,2.54,10.68,10.68,0,0,0,7.28-1.68A23.84,23.84,0,0,0,63.27,159c1.46-1.93,2.66-3.74,3.63-5.3C68.81,150.57,69.78,148.52,69.9,148.57Z" transform="translate(-1.01 -1.87)"/><path class="be653e24-249d-41cd-bce4-aa1faa313148" d="M180.15,98.27a.11.11,0,0,0-.22,0c-.25,1.88-.85,5.85-1.44,6.91-.38.68-2.12,1-3.15,1.17a.11.11,0,0,0,0,.22c1,.2,2.74.62,3.15,1.31.61,1,1.19,5.24,1.44,7.26a.11.11,0,0,0,.22,0c.19-2,.62-6.26,1.1-7.25.34-.7,1.8-1.11,2.73-1.3a.11.11,0,0,0,0-.22c-.91-.13-2.34-.44-2.72-1.18C180.76,104.21,180.33,100.18,180.15,98.27Z" transform="translate(-1.01 -1.87)"/><path class="be653e24-249d-41cd-bce4-aa1faa313148" d="M174.56,107.47a0,0,0,0,0-.09,0,13.34,13.34,0,0,1-.58,2.77c-.15.27-.85.41-1.26.47a0,0,0,0,0,0,.09c.41.08,1.1.25,1.26.52a13.15,13.15,0,0,1,.58,2.91,0,0,0,0,0,.09,0,16.06,16.06,0,0,1,.44-2.91c.14-.28.72-.44,1.09-.52a0,0,0,0,0,0-.09c-.37-.05-.94-.18-1.09-.47A14.25,14.25,0,0,1,174.56,107.47Z" transform="translate(-1.01 -1.87)"/><path class="be653e24-249d-41cd-bce4-aa1faa313148" d="M172.14,100.73a.06.06,0,0,0-.12,0,18.88,18.88,0,0,1-.81,3.92c-.22.39-1.2.58-1.78.66a.06.06,0,0,0,0,.12c.58.11,1.55.35,1.79.74a18.61,18.61,0,0,1,.82,4.11.06.06,0,0,0,.12,0,22.73,22.73,0,0,1,.62-4.11c.19-.4,1-.63,1.55-.74a.06.06,0,0,0,0-.12c-.52-.07-1.33-.25-1.54-.67A20.16,20.16,0,0,1,172.14,100.73Z" transform="translate(-1.01 -1.87)"/><path class="746a4e32-40d7-4832-9f67-a401ecaf8d43" d="M29.34,102.51a.08.08,0,0,0-.17,0,25,25,0,0,1-1.08,5.19c-.29.51-1.59.77-2.36.88a.08.08,0,0,0,0,.16c.76.15,2.06.47,2.37,1,.46.77.89,3.93,1.08,5.45a.08.08,0,0,0,.17,0,30.09,30.09,0,0,1,.82-5.44c.25-.52,1.35-.83,2-1a.08.08,0,0,0,0-.16c-.69-.09-1.76-.33-2-.88A26.69,26.69,0,0,1,29.34,102.51Z" transform="translate(-1.01 -1.87)"/><path class="746a4e32-40d7-4832-9f67-a401ecaf8d43" d="M25.14,109.41a0,0,0,0,0-.07,0,10,10,0,0,1-.43,2.08c-.11.21-.64.31-.95.35a0,0,0,0,0,0,.07c.31.06.82.19.95.39a9.87,9.87,0,0,1,.43,2.18,0,0,0,0,0,.07,0,12.06,12.06,0,0,1,.33-2.18c.1-.21.54-.33.82-.39a0,0,0,0,0,0-.07c-.27,0-.7-.13-.82-.35A10.69,10.69,0,0,1,25.14,109.41Z" transform="translate(-1.01 -1.87)"/><path class="746a4e32-40d7-4832-9f67-a401ecaf8d43" d="M23.33,104.35a0,0,0,0,0-.09,0,14.17,14.17,0,0,1-.61,2.94c-.16.29-.9.43-1.34.5a0,0,0,0,0,0,.09c.43.08,1.17.27,1.34.56a14,14,0,0,1,.61,3.09,0,0,0,0,0,.09,0,17.06,17.06,0,0,1,.47-3.09c.14-.3.77-.47,1.16-.55a0,0,0,0,0,0-.09c-.39-.05-1-.19-1.16-.5A15.13,15.13,0,0,1,23.33,104.35Z" transform="translate(-1.01 -1.87)"/><path class="be653e24-249d-41cd-bce4-aa1faa313148" d="M26.9,98.49a.08.08,0,0,0-.17,0,25,25,0,0,1-1.08,5.19c-.29.51-1.59.77-2.36.88a.08.08,0,0,0,0,.16c.76.15,2.06.47,2.37,1,.46.77.89,3.93,1.08,5.45a.08.08,0,0,0,.17,0,30.09,30.09,0,0,1,.82-5.44c.25-.52,1.35-.83,2-1a.08.08,0,0,0,0-.16c-.69-.09-1.76-.33-2-.88A26.69,26.69,0,0,1,26.9,98.49Z" transform="translate(-1.01 -1.87)"/><path class="be653e24-249d-41cd-bce4-aa1faa313148" d="M22.7,105.39a0,0,0,0,0-.07,0,10,10,0,0,1-.43,2.08c-.11.21-.64.31-.95.35a0,0,0,0,0,0,.07c.31.06.82.19.95.39a9.87,9.87,0,0,1,.43,2.18,0,0,0,0,0,.07,0,12.06,12.06,0,0,1,.33-2.18c.1-.21.54-.33.82-.39a0,0,0,0,0,0-.07c-.27,0-.7-.13-.82-.35A10.69,10.69,0,0,1,22.7,105.39Z" transform="translate(-1.01 -1.87)"/><path class="be653e24-249d-41cd-bce4-aa1faa313148" d="M20.89,100.33a0,0,0,0,0-.09,0,14.17,14.17,0,0,1-.61,2.94c-.16.29-.9.43-1.34.5a0,0,0,0,0,0,.09c.43.08,1.17.27,1.34.56a14,14,0,0,1,.61,3.09,0,0,0,0,0,.09,0,17.06,17.06,0,0,1,.47-3.09c.14-.3.77-.47,1.16-.55a0,0,0,0,0,0-.09c-.39-.05-1-.19-1.16-.5A15.13,15.13,0,0,1,20.89,100.33Z" transform="translate(-1.01 -1.87)"/></g><g id="85beca91-7854-4619-9cdb-300cf07ce395" data-name="Apple"><path class="74ea6029-2a96-49a6-90a3-5b457bdf6d5a" d="M86.62,14.86c-8,1.92-5.72,10.5-5.72,10.5C88,21.57,86.62,14.86,86.62,14.86Z" transform="translate(-1.01 -1.87)"/><path class="a160d243-354e-4974-aa6c-dbd12f0b8e04" d="M86.26,13.79c-8,1.92-5.72,10.5-5.72,10.5C87.63,20.5,86.26,13.79,86.26,13.79Z" transform="translate(-1.01 -1.87)"/><path class="74ea6029-2a96-49a6-90a3-5b457bdf6d5a" d="M90.18,38.27h0a5.35,5.35,0,0,1-2.43-3.08h0a6.88,6.88,0,0,1-.31-1.93,7.87,7.87,0,0,1,.15-1.7h0a9,9,0,0,1,2.1-4.2l0,0a8.39,8.39,0,0,1,.94-.91,4.11,4.11,0,0,0-1.48-1.19c-4.2-2-5.86,2.31-8.2,2.9-2.64.67-2.87-3.19-7.21-.76a7,7,0,0,0-2.9,3.29v0a11.08,11.08,0,0,0-.94,3.92h0a11.91,11.91,0,0,0,.3,3.53h0a8.49,8.49,0,0,0,.75,2c.21.39.43.77.66,1.14h0a19.07,19.07,0,0,0,2.23,2.89h0a7.6,7.6,0,0,0,3.34,2.38c2.75.51,2.65-1.39,5.09-1.75s2.18,1.55,4.86.19a8,8,0,0,0,2.7-3.38h0a28,28,0,0,0,1.3-2.95A4.87,4.87,0,0,1,90.18,38.27Z" transform="translate(-1.01 -1.87)"/><path class="a160d243-354e-4974-aa6c-dbd12f0b8e04" d="M89.82,37.2h0a5.35,5.35,0,0,1-2.43-3.08h0a6.88,6.88,0,0,1-.31-1.93,7.87,7.87,0,0,1,.15-1.7h0a9,9,0,0,1,2.1-4.2l0,0a8.39,8.39,0,0,1,.94-.91,4.11,4.11,0,0,0-1.48-1.19c-4.2-2-5.86,2.31-8.2,2.9-2.64.67-2.87-3.19-7.21-.76a7,7,0,0,0-2.9,3.29v0a11.08,11.08,0,0,0-.94,3.92h0a11.91,11.91,0,0,0,.3,3.53h0a8.49,8.49,0,0,0,.75,2c.21.39.43.77.66,1.14h0a19.07,19.07,0,0,0,2.23,2.89h0a7.6,7.6,0,0,0,3.34,2.38c2.75.51,2.65-1.39,5.09-1.75s2.18,1.55,4.86.19a8,8,0,0,0,2.7-3.38h0a28,28,0,0,0,1.3-2.95A4.87,4.87,0,0,1,89.82,37.2Z" transform="translate(-1.01 -1.87)"/><polygon class="be653e24-249d-41cd-bce4-aa1faa313148" points="86.19 28.61 86.19 28.62 68.5 31.66 68.5 31.66 86.19 28.61"/><polygon class="be653e24-249d-41cd-bce4-aa1faa313148" points="86.35 32.24 86.35 32.25 68.8 35.19 68.8 35.19 86.35 32.24"/><polygon class="be653e24-249d-41cd-bce4-aa1faa313148" points="88.45 38.7 88.45 38.7 72.46 41.26 72.46 41.26 88.45 38.7"/><polygon class="be653e24-249d-41cd-bce4-aa1faa313148" points="88.78 35.33 70.23 38.37 70.22 38.36 88.78 35.33 88.78 35.33"/><path class="97463be7-cfb5-49e9-8f98-8a2c4281fde1" d="M80.51,24.29s-2.23-8.58,5.72-10.5C86.23,13.79,87.6,20.5,80.51,24.29Z" transform="translate(-1.01 -1.87)"/><path class="66af9935-c91e-420a-8bdd-00d1b92253e0" d="M86.23,13.79c-8,1.92-5.72,10.5-5.72,10.5C87.6,20.5,86.23,13.79,86.23,13.79ZM70.46,29.6v0m18.86-3.35,0,0" transform="translate(-1.01 -1.87)"/><path class="97463be7-cfb5-49e9-8f98-8a2c4281fde1" d="M90.25,25.35a8.38,8.38,0,0,0-.94.91l0,0L70.46,29.61v0a7,7,0,0,1,2.89-3.29c4.33-2.43,4.57,1.43,7.21.76,2.34-.59,4-4.86,8.2-2.9A4.11,4.11,0,0,1,90.25,25.35Z" transform="translate(-1.01 -1.87)"/><path class="7157c3d9-de68-4725-b15e-4aad5434f271" d="M89.29,26.29a9,9,0,0,0-2.1,4.2l-17.68,3a11.08,11.08,0,0,1,.94-3.92Z" transform="translate(-1.01 -1.87)"/><path class="66af9935-c91e-420a-8bdd-00d1b92253e0" d="M89.31,26.27l0,0" transform="translate(-1.01 -1.87)"/><path class="be285b98-d1d2-4b37-85b1-b88377ec8f5a" d="M87.36,34.12,69.81,37.06a11.91,11.91,0,0,1-.3-3.53l17.68-3a7.87,7.87,0,0,0-.15,1.7A6.88,6.88,0,0,0,87.36,34.12Z" transform="translate(-1.01 -1.87)"/><path class="63db0da4-c103-4329-9c24-ef54b5845a71" d="M89.79,37.2l-18.55,3c-.23-.37-.46-.75-.66-1.14a8.49,8.49,0,0,1-.76-2l17.54-2.95A5.35,5.35,0,0,0,89.79,37.2Z" transform="translate(-1.01 -1.87)"/><path class="7ae64c08-6239-4b79-b07c-324f922a0068" d="M90.77,37.63a27.94,27.94,0,0,1-1.3,2.95l-16,2.56a19.08,19.08,0,0,1-2.23-2.89l18.56-3A4.87,4.87,0,0,0,90.77,37.63Z" transform="translate(-1.01 -1.87)"/><path class="5c3eefd6-6f44-4da3-b459-2bdd7a9e28f2" d="M89.46,40.58A8,8,0,0,1,86.77,44c-2.68,1.36-2.39-.55-4.85-.19S79.56,46,76.82,45.51a7.61,7.61,0,0,1-3.34-2.38Z" transform="translate(-1.01 -1.87)"/><path class="991f6de4-bd4e-49b6-a354-21f117e5150e" d="M79.91,25.33a10.27,10.27,0,0,0,4.6-3.15,16.23,16.23,0,0,0,2.76-4.93A9.46,9.46,0,0,1,85,22.64,7.29,7.29,0,0,1,79.91,25.33Z" transform="translate(-1.01 -1.87)"/><path class="991f6de4-bd4e-49b6-a354-21f117e5150e" d="M89.77,27.4a8.07,8.07,0,0,0-1.3,5.49,5.21,5.21,0,0,0,1.13,2.5,4.26,4.26,0,0,0,2.28,1.41l.34.08-.09.34a23.31,23.31,0,0,1-1.24,3.73,9,9,0,0,1-2.31,3.26,5.16,5.16,0,0,1-3.75,1.32A6.29,6.29,0,0,1,83,44.83a2.53,2.53,0,0,0-1.85-.26,2.48,2.48,0,0,1,1.92.07,6.82,6.82,0,0,0,1.82.51,4.7,4.7,0,0,0,3.32-1.39,8.4,8.4,0,0,0,2.09-3.08A36.33,36.33,0,0,0,91.49,37l.25.42a4.91,4.91,0,0,1-2.6-1.67A5.3,5.3,0,0,1,88,33,7.58,7.58,0,0,1,89.77,27.4Z" transform="translate(-1.01 -1.87)"/></g><g id="1435327e-083e-424f-b8cb-9ada175d75a9" data-name="X-wing"><path class="9682e977-4576-4bb6-b39d-d96cf52e8c56" d="M21.79,68l-.34-.24c-.15-.1-.28-.16-.3-.14s.07.15.19.29l.28.31s0,.12-.06.2-.11.15-.09.17.09,0,.16-.11.37.08.68.35l2.6,2.29c.3.27.48.57.4.66s0,.34.27.54a.67.67,0,0,1-.07.92l-3,3.4c-.27.3-.63.43-.8.28s-.53,0-.8.28l0,0c-.27.3-.61.44-.77.31s-.45,0-.67.19a.74.74,0,0,1-1,0L9.72,71.1l-.59-.44-.61-.41L5.35,68.06a.86.86,0,0,0-1.1.13l-.32.36a.86.86,0,0,0,0,1.11l2.56,2.87.49.56.51.53,7.64,7.83a.74.74,0,0,1,.13,1c-.21.24-.26.55-.1.68s.06.5-.21.8l0,.06c-.27.3-.35.68-.17.83s.09.53-.17.83l-3,3.36a.67.67,0,0,1-.91.18c-.23-.2-.49-.29-.57-.2s-.4,0-.71-.31l-2.6-2.29c-.3-.27-.5-.55-.43-.63s.11-.15.09-.17-.09,0-.16.11-.16.11-.2.07l-.34-.24c-.15-.1-.28-.16-.3-.14s.07.15.19.29l.28.31s0,.12-.06.2-.11.15-.09.17.09,0,.16-.11.37.08.68.35l2.6,2.29c.3.27.48.57.4.66s.09.39.4.66l3.09,2.72a.68.68,0,0,0,1,0c.22-.25.28-.56.14-.68s0-.43.33-.68L19.14,88a7.71,7.71,0,0,0,.85-.75c.15-.17.52-.08.82.19l.78.69c.3.27.5.55.43.63s.14.34.47.58l.65.48a.83.83,0,0,0,1.09-.12l0,0a.83.83,0,0,0,0-1.09l-.4-.42a.83.83,0,0,1,0-1.09l1.26-1.43a.83.83,0,0,1,1.08-.12l.47.34a.83.83,0,0,0,1.08-.12l0,0a.83.83,0,0,0,0-1.09L27.2,84c-.28-.3-.56-.47-.63-.4s-.37-.08-.68-.35l-.78-.69c-.3-.27-.51-.54-.45-.61s.28-.41.5-.75l3.32-5.39c.21-.35.49-.54.62-.42s.41,0,.64-.25a.68.68,0,0,0-.15-.94L26.5,71.49c-.3-.27-.62-.41-.71-.31s-.4,0-.71-.31l-2.6-2.29c-.3-.27-.5-.55-.43-.63s.11-.15.09-.17-.09,0-.16.11S21.83,68,21.79,68ZM17.35,80.08a.71.71,0,0,1-1,0L14,77.89a.64.64,0,1,1,.83-.94l2.51,2a.71.71,0,0,1,.08,1Z" transform="translate(-1.01 -1.87)"/><g class="01d31921-619d-4362-99ad-e40fd709a739"><path class="5bc2a48c-9fac-47b5-9acf-d73050060ade" d="M27.15,79l-.34-.24c-.15-.1-.28-.16-.3-.14s.07.15.19.29l.28.31s0,.12-.06.2-.11.15-.09.17.09,0,.16-.11.37.08.68.35l2.6,2.29c.3.27.48.57.4.66s0,.34.27.54a.67.67,0,0,1-.07.92l-3,3.4c-.27.3-.63.43-.8.28s-.53,0-.8.28l0,0c-.27.3-.61.44-.77.31s-.45,0-.67.19a.74.74,0,0,1-1,0l-8.71-6.61-.59-.44-.61-.41-3.17-2.18a.86.86,0,0,0-1.1.13l-.32.36a.86.86,0,0,0,0,1.11l2.56,2.87.49.56.51.53,7.64,7.83a.74.74,0,0,1,.13,1c-.21.24-.26.55-.1.68s.06.5-.21.8l0,.06c-.27.3-.35.68-.17.83s.09.53-.17.83l-3,3.36a.67.67,0,0,1-.91.18c-.23-.2-.49-.29-.57-.2s-.4,0-.71-.31l-2.6-2.29c-.3-.27-.5-.55-.43-.63s.11-.15.09-.17-.09,0-.16.11-.16.11-.2.07l-.34-.24c-.15-.1-.28-.16-.3-.14s.07.15.19.29l.28.31s0,.12-.06.2-.11.15-.09.17.09,0,.16-.11.37.08.68.35l2.6,2.29c.3.27.48.57.4.66s.09.39.4.66L18.45,104a.68.68,0,0,0,1,0c.22-.25.28-.56.14-.68s0-.43.33-.68l4.63-3.56a7.71,7.71,0,0,0,.85-.75c.15-.17.52-.08.82.19l.78.69c.3.27.5.55.43.63s.14.34.47.58l.65.48a.83.83,0,0,0,1.09-.12l0,0a.83.83,0,0,0,0-1.09l-.4-.42a.83.83,0,0,1,0-1.09l1.26-1.43a.83.83,0,0,1,1.08-.12l.47.34a.83.83,0,0,0,1.08-.12l0,0a.83.83,0,0,0,0-1.09l-.56-.59c-.28-.3-.56-.47-.63-.4s-.37-.08-.68-.35l-.78-.69c-.3-.27-.51-.54-.45-.61s.28-.41.5-.75l3.32-5.39c.21-.35.49-.54.62-.42s.41,0,.64-.25A.68.68,0,0,0,35,85.3l-3.09-2.72c-.3-.27-.62-.41-.71-.31s-.4,0-.71-.31l-2.6-2.29c-.3-.27-.5-.55-.43-.63s.11-.15.09-.17-.09,0-.16.11S27.2,79.07,27.15,79ZM22.72,91.16a.71.71,0,0,1-1,0L19.35,89a.64.64,0,1,1,.83-.94l2.51,2a.71.71,0,0,1,.08,1Z" transform="translate(-1.01 -1.87)"/></g><path class="be653e24-249d-41cd-bce4-aa1faa313148" d="M21.79,68l-.34-.24c-.15-.1-.28-.16-.3-.14s.07.15.19.29l.28.31s0,.12-.06.2-.11.15-.09.17.09,0,.16-.11.37.08.68.35l2.6,2.29c.3.27.48.57.4.66s0,.34.27.54a.67.67,0,0,1-.07.92l-3,3.4c-.27.3-.63.43-.8.28s-.53,0-.8.28l0,0c-.27.3-.61.44-.77.31s-.45,0-.67.19a.74.74,0,0,1-1,0L9.72,71.1l-.59-.44-.61-.41L5.35,68.06a.86.86,0,0,0-1.1.13l-.32.36a.86.86,0,0,0,0,1.11l2.56,2.87.49.56.51.53,7.64,7.83a.74.74,0,0,1,.13,1c-.21.24-.26.55-.1.68s.06.5-.21.8l0,.06c-.27.3-.35.68-.17.83s.09.53-.17.83l-3,3.36a.67.67,0,0,1-.91.18c-.23-.2-.49-.29-.57-.2s-.4,0-.71-.31l-2.6-2.29c-.3-.27-.5-.55-.43-.63s.11-.15.09-.17-.09,0-.16.11-.16.11-.2.07l-.34-.24c-.15-.1-.28-.16-.3-.14s.07.15.19.29l.28.31s0,.12-.06.2-.11.15-.09.17.09,0,.16-.11.37.08.68.35l2.6,2.29c.3.27.48.57.4.66s.09.39.4.66l3.09,2.72a.68.68,0,0,0,1,0c.22-.25.28-.56.14-.68s0-.43.33-.68L19.14,88a7.71,7.71,0,0,0,.85-.75c.15-.17.52-.08.82.19l.78.69c.3.27.5.55.43.63s.14.34.47.58l.65.48a.83.83,0,0,0,1.09-.12l0,0a.83.83,0,0,0,0-1.09l-.4-.42a.83.83,0,0,1,0-1.09l1.26-1.43a.83.83,0,0,1,1.08-.12l.47.34a.83.83,0,0,0,1.08-.12l0,0a.83.83,0,0,0,0-1.09L27.2,84c-.28-.3-.56-.47-.63-.4s-.37-.08-.68-.35l-.78-.69c-.3-.27-.51-.54-.45-.61s.28-.41.5-.75l3.32-5.39c.21-.35.49-.54.62-.42s.41,0,.64-.25a.68.68,0,0,0-.15-.94L26.5,71.49c-.3-.27-.62-.41-.71-.31s-.4,0-.71-.31l-2.6-2.29c-.3-.27-.5-.55-.43-.63s.11-.15.09-.17-.09,0-.16.11S21.83,68,21.79,68ZM17.35,80.08a.71.71,0,0,1-1,0L14,77.89a.64.64,0,1,1,.83-.94l2.51,2a.71.71,0,0,1,.08,1Z" transform="translate(-1.01 -1.87)"/></g></g></svg>